<?xml version="1.0" encoding="UTF-8"?>
<svg width="800" height="600" viewBox="0 0 800 600" xmlns="http://www.w3.org/2000/svg">
  <defs>
    <linearGradient id="bgGradient" x1="0%" y1="0%" x2="100%" y2="100%">
      <stop offset="0%" style="stop-color:#1a1a2e;stop-opacity:1" />
      <stop offset="50%" style="stop-color:#16213e;stop-opacity:1" />
      <stop offset="100%" style="stop-color:#800000;stop-opacity:1" />
    </linearGradient>
    <filter id="glow">
      <feGaussianBlur stdDeviation="3" result="coloredBlur"/>
      <feMerge>
        <feMergeNode in="coloredBlur"/>
        <feMergeNode in="SourceGraphic"/>
      </feMerge>
    </filter>
  </defs>

  <rect width="800" height="600" fill="url(#bgGradient)"/>

  <circle cx="200" cy="200" r="60" fill="#FF69B4" stroke="#FF1493" stroke-width="3"/>
  <path d="M160 180 Q180 160 200 180 Q220 160 240 180" stroke="#FF1493" stroke-width="3" fill="none"/>
  <path d="M160 220 Q180 240 200 220 Q220 240 240 220" stroke="#FF1493" stroke-width="3" fill="none"/>

  <g stroke="#00FFFF" stroke-width="2" fill="none">
    <circle cx="150" cy="150" r="8" fill="#00FFFF"/>
    <circle cx="180" cy="130" r="8" fill="#00FFFF"/>
    <circle cx="220" cy="130" r="8" fill="#00FFFF"/>
    <circle cx="250" cy="150" r="8" fill="#00FFFF"/>
    <line x1="150" y1="150" x2="180" y2="130"/>
    <line x1="180" y1="130" x2="220" y2="130"/>
    <line x1="220" y1="130" x2="250" y2="150"/>
    <line x1="150" y1="150" x2="200" y2="200"/>
    <line x1="250" y1="150" x2="200" y2="200"/>
  </g>

  <rect x="400" y="150" width="100" height="80" fill="#F5F5F5" stroke="#2F4F4F" stroke-width="3"/>
  <text x="450" y="175" text-anchor="middle" fill="#000000" font-family="Arial" font-size="12" font-weight="bold">AI Content</text>
  <rect x="410" y="185" width="80" height="5" fill="#000000"/>
  <rect x="410" y="195" width="60" height="5" fill="#000000"/>
  <rect x="410" y="205" width="70" height="5" fill="#000000"/>
  <rect x="410" y="215" width="50" height="5" fill="#000000"/>

  <polygon points="550,200 530,240 570,240" fill="#FF4500" stroke="#FF0000" stroke-width="2"/>
  <text x="550" y="230" text-anchor="middle" fill="#ffffff" font-family="Arial" font-size="16" font-weight="bold">!</text>

  <circle cx="600" cy="300" r="25" fill="#4169E1" stroke="#2F4F4F" stroke-width="3"/>
  <text x="600" y="310" text-anchor="middle" fill="#ffffff" font-family="Arial" font-size="20" font-weight="bold">©</text>

  <rect x="180" y="350" width="40" height="15" fill="#8B4513" stroke="#654321" stroke-width="2"/>
  <rect x="195" y="365" width="10" height="60" fill="#654321"/>

  <rect x="350" y="350" width="80" height="100" fill="#F5F5F5" stroke="#2F4F4F" stroke-width="2"/>
  <text x="390" y="375" text-anchor="middle" fill="#000000" font-family="Arial" font-size="12" font-weight="bold">LIABILITY</text>
  <rect x="360" y="385" width="60" height="3" fill="#000000"/>
  <rect x="360" y="395" width="50" height="3" fill="#000000"/>
  <rect x="360" y="405" width="55" height="3" fill="#000000"/>

  <path d="M500 400 L530 415 L530 465 L500 480 L470 465 L470 415 Z" fill="#32CD32" stroke="#228B22" stroke-width="3"/>
  <text x="500" y="450" text-anchor="middle" fill="#ffffff" font-family="Arial" font-size="18" font-weight="bold">$</text>

  <g stroke="#FF6347" stroke-width="2" fill="none" stroke-dasharray="3,3">
    <path d="M260 200 Q330 180 400 190" marker-end="url(#arrowhead)"/>
  </g>

  <defs>
    <marker id="arrowhead" markerWidth="10" markerHeight="7" refX="9" refY="3.5" orient="auto">
      <polygon points="0 0, 10 3.5, 0 7" fill="#FF6347"/>
    </marker>
  </defs>

  <text x="400" y="50" text-anchor="middle" fill="#ffffff" font-family="Arial" font-size="26" font-weight="bold">AI Content Liability</text>
  <text x="400" y="80" text-anchor="middle" fill="#ffffff" font-family="Arial" font-size="26" font-weight="bold">Insurance</text>
  <text x="400" y="550" text-anchor="middle" fill="#ffffff" font-family="Arial" font-size="18">AI Output Responsibility</text>

  <rect x="50" y="50" width="110" height="30" rx="15" fill="#FF69B4" opacity="0.9"/>
  <text x="105" y="70" text-anchor="middle" fill="#ffffff" font-family="Arial" font-size="14" font-weight="bold">FUTURE TECH</text>
</svg>