<?xml version="1.0" encoding="UTF-8"?>
<svg width="800" height="600" viewBox="0 0 800 600" xmlns="http://www.w3.org/2000/svg">
  <defs>
    <linearGradient id="bgGradient" x1="0%" y1="0%" x2="100%" y2="100%">
      <stop offset="0%" style="stop-color:#0a0a0a;stop-opacity:1" />
      <stop offset="50%" style="stop-color:#1a1a2e;stop-opacity:1" />
      <stop offset="100%" style="stop-color:#4F4F4F;stop-opacity:1" />
    </linearGradient>
    <radialGradient id="asteroidGradient" cx="50%" cy="50%" r="50%">
      <stop offset="0%" style="stop-color:#8B4513;stop-opacity:1" />
      <stop offset="100%" style="stop-color:#2F4F4F;stop-opacity:1" />
    </radialGradient>
    <filter id="glow">
      <feGaussianBlur stdDeviation="3" result="coloredBlur"/>
      <feMerge>
        <feMergeNode in="coloredBlur"/>
        <feMergeNode in="SourceGraphic"/>
      </feMerge>
    </filter>
  </defs>

  <rect width="800" height="600" fill="url(#bgGradient)"/>

  <circle cx="100" cy="80" r="1" fill="#ffffff" filter="url(#glow)"/>
  <circle cx="200" cy="60" r="1.5" fill="#ffffff" filter="url(#glow)"/>
  <circle cx="300" cy="90" r="1" fill="#ffffff" filter="url(#glow)"/>
  <circle cx="700" cy="70" r="1" fill="#ffffff" filter="url(#glow)"/>
  <circle cx="650" cy="120" r="1.5" fill="#ffffff" filter="url(#glow)"/>
  <circle cx="750" cy="150" r="1" fill="#ffffff" filter="url(#glow)"/>

  <circle cx="350" cy="250" r="80" fill="url(#asteroidGradient)" stroke="#696969" stroke-width="4"/>

  <circle cx="320" cy="220" r="15" fill="#2F4F4F"/>
  <circle cx="360" cy="200" r="12" fill="#2F4F4F"/>
  <circle cx="380" cy="240" r="10" fill="#2F4F4F"/>
  <circle cx="340" cy="290" r="18" fill="#2F4F4F"/>
  <circle cx="310" cy="270" r="8" fill="#2F4F4F"/>

  <circle cx="335" cy="235" r="6" fill="#FFD700"/>
  <circle cx="370" cy="260" r="4" fill="#C0C0C0"/>
  <circle cx="355" cy="280" r="5" fill="#FFD700"/>
  <circle cx="325" cy="255" r="3" fill="#CD7F32"/>

  <rect x="500" y="200" width="60" height="30" fill="#4682B4" stroke="#2F4F4F" stroke-width="3"/>
  <polygon points="560,215 580,215 570,225" fill="#4682B4"/>
  <circle cx="520" cy="210" r="4" fill="#FFD700"/>
  <circle cx="540" cy="220" r="4" fill="#FFD700"/>
  <rect x="510" y="190" width="10" height="10" fill="#FF6347"/>
  <rect x="530" y="190" width="10" height="10" fill="#FF6347"/>

  <g stroke="#00FFFF" stroke-width="4" fill="none" filter="url(#glow)">
    <line x1="500" y1="215" x2="430" y2="250"/>
    <line x1="500" y1="215" x2="420" y2="240"/>
    <line x1="500" y1="215" x2="410" y2="260"/>
  </g>

  <rect x="450" y="300" width="20" height="15" fill="#FFD700"/>
  <rect x="480" y="310" width="15" height="12" fill="#C0C0C0"/>
  <rect x="460" y="330" width="18" height="10" fill="#CD7F32"/>
  <rect x="490" y="325" width="16" height="14" fill="#FFD700"/>

  <rect x="150" y="350" width="100" height="40" fill="#2F4F4F" stroke="#4682B4" stroke-width="3"/>
  <circle cx="200" cy="370" r="15" fill="#4682B4"/>
  <rect x="120" y="365" width="30" height="10" fill="#2F4F4F"/>
  <rect x="250" y="365" width="30" height="10" fill="#2F4F4F"/>

  <rect x="600" y="350" width="80" height="60" fill="#696969" stroke="#2F4F4F" stroke-width="3"/>
  <circle cx="640" cy="380" r="20" fill="#4682B4"/>
  <rect x="620" y="360" width="40" height="5" fill="#FFD700"/>
  <rect x="620" y="370" width="40" height="5" fill="#C0C0C0"/>
  <rect x="620" y="380" width="40" height="5" fill="#CD7F32"/>

  <rect x="200" y="450" width="80" height="25" fill="#4682B4" stroke="#2F4F4F" stroke-width="3"/>
  <polygon points="280,462 300,462 290,475" fill="#4682B4"/>
  <rect x="210" y="440" width="15" height="10" fill="#FFD700"/>
  <rect x="235" y="440" width="15" height="10" fill="#C0C0C0"/>
  <rect x="260" y="440" width="15" height="10" fill="#CD7F32"/>

  <rect x="50" y="450" width="100" height="80" fill="#ffffff" stroke="#2F4F4F" stroke-width="3"/>
  <text x="100" y="475" text-anchor="middle" fill="#000000" font-family="Arial" font-size="14" font-weight="bold">ASTEROID</text>
  <text x="100" y="490" text-anchor="middle" fill="#000000" font-family="Arial" font-size="14" font-weight="bold">MINING</text>
  <text x="100" y="505" text-anchor="middle" fill="#000000" font-family="Arial" font-size="14" font-weight="bold">INSURANCE</text>
  <rect x="60" y="515" width="80" height="3" fill="#32CD32"/>
  <rect x="60" y="522" width="60" height="3" fill="#32CD32"/>
  <rect x="60" y="529" width="40" height="3" fill="#32CD32"/>

  <rect x="600" y="450" width="120" height="80" fill="#2F4F4F" stroke="#4682B4" stroke-width="3"/>
  <text x="660" y="475" text-anchor="middle" fill="#ffffff" font-family="Arial" font-size="14" font-weight="bold">RISK ANALYSIS</text>
  <rect x="620" y="485" width="80" height="5" fill="#32CD32"/>
  <rect x="620" y="495" width="60" height="5" fill="#FFD700"/>
  <rect x="620" y="505" width="40" height="5" fill="#FF6347"/>
  <text x="660" y="525" text-anchor="middle" fill="#ffffff" font-family="Arial" font-size="10">LOW</text>
  <text x="660" y="535" text-anchor="middle" fill="#ffffff" font-family="Arial" font-size="10">MEDIUM</text>
  <text x="660" y="545" text-anchor="middle" fill="#ffffff" font-family="Arial" font-size="10">HIGH</text>

  <g stroke="#87CEEB" stroke-width="2" fill="none" stroke-dasharray="5,5">
    <ellipse cx="400" cy="350" rx="200" ry="100"/>
    <ellipse cx="400" cy="350" rx="250" ry="130"/>
  </g>

  <circle cx="700" cy="500" r="40" fill="#4169E1"/>
  <path d="M680 485 Q700 470 720 485 Q740 500 720 515 Q700 530 680 515 Q660 500 680 485" fill="#32CD32"/>

  <path d="M400 500 L440 520 L440 580 L400 600 L360 580 L360 520 Z" fill="#32CD32" stroke="#228B22" stroke-width="3"/>
  <text x="400" y="565" text-anchor="middle" fill="#ffffff" font-family="Arial" font-size="20" font-weight="bold">$</text>

  <text x="400" y="50" text-anchor="middle" fill="#ffffff" font-family="Arial" font-size="26" font-weight="bold">Asteroid Mining Insurance</text>
  <text x="400" y="80" text-anchor="middle" fill="#ffffff" font-family="Arial" font-size="18">Space Commerce Protection</text>

  <rect x="50" y="50" width="110" height="30" rx="15" fill="#4F4F4F" opacity="0.9"/>
  <text x="105" y="70" text-anchor="middle" fill="#ffffff" font-family="Arial" font-size="14" font-weight="bold">SPECULATIVE</text>
</svg>