<?xml version="1.0" encoding="UTF-8"?>
<svg width="800" height="600" viewBox="0 0 800 600" xmlns="http://www.w3.org/2000/svg">
  <defs>
    <linearGradient id="bgGradient" x1="0%" y1="0%" x2="100%" y2="100%">
      <stop offset="0%" style="stop-color:#006400;stop-opacity:1" />
      <stop offset="50%" style="stop-color:#228B22;stop-opacity:1" />
      <stop offset="100%" style="stop-color:#32CD32;stop-opacity:1" />
    </linearGradient>
    <radialGradient id="treeGradient" cx="50%" cy="50%" r="50%">
      <stop offset="0%" style="stop-color:#90EE90;stop-opacity:1" />
      <stop offset="100%" style="stop-color:#006400;stop-opacity:1" />
    </radialGradient>
    <filter id="glow">
      <feGaussianBlur stdDeviation="3" result="coloredBlur"/>
      <feMerge>
        <feMergeNode in="coloredBlur"/>
        <feMergeNode in="SourceGraphic"/>
      </feMerge>
    </filter>
  </defs>

  <rect width="800" height="600" fill="url(#bgGradient)"/>

  <ellipse cx="200" cy="500" rx="50" ry="80" fill="url(#treeGradient)"/>
  <rect x="190" y="480" width="20" height="40" fill="#8B4513"/>

  <ellipse cx="300" cy="480" rx="60" ry="100" fill="url(#treeGradient)"/>
  <rect x="288" y="450" width="24" height="50" fill="#8B4513"/>

  <ellipse cx="120" cy="520" rx="40" ry="60" fill="url(#treeGradient)"/>
  <rect x="110" y="510" width="20" height="30" fill="#8B4513"/>

  <ellipse cx="400" cy="450" rx="15" ry="10" fill="#8B4513"/>
  <circle cx="410" cy="440" r="8" fill="#8B4513"/>
  <circle cx="415" cy="435" r="2" fill="#000000"/>
  <path d="M420 430 L425 425 M420 425 L425 430" stroke="#000000" stroke-width="2"/>

  <path d="M500 200 Q510 190 520 200 Q530 210 520 220 Q510 210 500 200" fill="#4682B4"/>
  <path d="M550 180 Q560 170 570 180 Q580 190 570 200 Q560 190 550 180" fill="#4682B4"/>
  <path d="M600 220 Q610 210 620 220 Q630 230 620 240 Q610 230 600 220" fill="#4682B4"/>

  <g stroke="#90EE90" stroke-width="2" fill="none" opacity="0.7">
    <path d="M200 400 Q300 350 400 400"/>
    <path d="M400 400 Q500 350 600 400"/>
    <path d="M300 300 Q400 250 500 300"/>
    <path d="M150 350 Q250 300 350 350"/>
  </g>

  <g stroke="#4169E1" stroke-width="3" fill="none">
    <path d="M600 300 Q620 280 640 300 Q660 320 680 300 Q700 280 720 300"/>
    <path d="M600 300 Q620 320 640 300 Q660 280 680 300 Q700 320 720 300"/>
    <circle cx="610" cy="290" r="3" fill="#4169E1"/>
    <circle cx="630" cy="310" r="3" fill="#4169E1"/>
    <circle cx="650" cy="290" r="3" fill="#4169E1"/>
    <circle cx="670" cy="310" r="3" fill="#4169E1"/>
    <circle cx="690" cy="290" r="3" fill="#4169E1"/>
    <circle cx="710" cy="310" r="3" fill="#4169E1"/>
  </g>

  <rect x="450" y="100" width="200" height="120" fill="#ffffff" stroke="#2F4F4F" stroke-width="3"/>
  <text x="550" y="125" text-anchor="middle" fill="#000000" font-family="Arial" font-size="14" font-weight="bold">SPECIES PROTECTION</text>
  <rect x="470" y="140" width="30" height="60" fill="#32CD32"/>
  <rect x="510" y="150" width="30" height="50" fill="#FFD700"/>
  <rect x="550" y="160" width="30" height="40" fill="#FF6347"/>
  <rect x="590" y="170" width="30" height="30" fill="#8B4513"/>
  <text x="485" y="215" text-anchor="middle" fill="#000000" font-family="Arial" font-size="10">Safe</text>
  <text x="525" y="215" text-anchor="middle" fill="#000000" font-family="Arial" font-size="10">Risk</text>
  <text x="565" y="215" text-anchor="middle" fill="#000000" font-family="Arial" font-size="10">Threat</text>
  <text x="605" y="215" text-anchor="middle" fill="#000000" font-family="Arial" font-size="10">Critical</text>

  <rect x="100" y="200" width="120" height="80" fill="#ffffff" stroke="#2F4F4F" stroke-width="3"/>
  <text x="160" y="225" text-anchor="middle" fill="#000000" font-family="Arial" font-size="14" font-weight="bold">BIODIVERSITY</text>
  <text x="160" y="240" text-anchor="middle" fill="#000000" font-family="Arial" font-size="14" font-weight="bold">INSURANCE</text>
  <rect x="110" y="250" width="100" height="3" fill="#32CD32"/>
  <rect x="110" y="258" width="80" height="3" fill="#32CD32"/>
  <rect x="110" y="266" width="60" height="3" fill="#32CD32"/>

  <circle cx="500" cy="400" r="60" fill="#4682B4" opacity="0.8"/>
  <text x="500" y="390" text-anchor="middle" fill="#ffffff" font-family="Arial" font-size="14" font-weight="bold">RISK</text>
  <text x="500" y="410" text-anchor="middle" fill="#ffffff" font-family="Arial" font-size="14" font-weight="bold">ASSESSMENT</text>

  <rect x="650" y="80" width="40" height="20" fill="#4682B4" stroke="#2F4F4F" stroke-width="2"/>
  <rect x="640" y="88" width="60" height="4" fill="#4682B4"/>
  <g stroke="#00FFFF" stroke-width="2" fill="none">
    <line x1="670" y1="100" x2="300" y2="450"/>
    <line x1="670" y1="100" x2="200" y2="400"/>
    <line x1="670" y1="100" x2="400" y2="350"/>
  </g>

  <path d="M50 400 L90 420 L90 480 L50 500 L10 480 L10 420 Z" fill="#32CD32" stroke="#228B22" stroke-width="3"/>
  <text x="50" y="465" text-anchor="middle" fill="#ffffff" font-family="Arial" font-size="20" font-weight="bold">$</text>

  <g fill="#FF6347" opacity="0.8">
    <ellipse cx="700" cy="500" rx="30" ry="20"/>
    <ellipse cx="730" cy="485" rx="25" ry="15"/>
    <ellipse cx="720" cy="520" rx="20" ry="12"/>
  </g>

  <rect x="650" y="530" width="150" height="70" fill="#4682B4" opacity="0.6"/>
  <g stroke="#87CEEB" stroke-width="2" fill="none">
    <path d="M650 545 Q700 535 750 545 Q800 555 750 565"/>
    <path d="M650 560 Q700 550 750 560 Q800 570 750 580"/>
  </g>

  <text x="400" y="50" text-anchor="middle" fill="#ffffff" font-family="Arial" font-size="26" font-weight="bold">Biodiversity Insurance</text>
  <text x="400" y="80" text-anchor="middle" fill="#ffffff" font-family="Arial" font-size="18">Protecting Nature's Assets</text>

  <rect x="50" y="50" width="140" height="30" rx="15" fill="#228B22" opacity="0.9"/>
  <text x="120" y="70" text-anchor="middle" fill="#ffffff" font-family="Arial" font-size="14" font-weight="bold">ENVIRONMENTAL</text>
</svg>