<?xml version="1.0" encoding="UTF-8"?>
<svg width="800" height="600" viewBox="0 0 800 600" xmlns="http://www.w3.org/2000/svg">
  <defs>
    <linearGradient id="bgGradient" x1="0%" y1="0%" x2="100%" y2="100%">
      <stop offset="0%" style="stop-color:#1a1a2e;stop-opacity:1" />
      <stop offset="50%" style="stop-color:#16213e;stop-opacity:1" />
      <stop offset="100%" style="stop-color:#FFD700;stop-opacity:1" />
    </linearGradient>
    <filter id="glow">
      <feGaussianBlur stdDeviation="3" result="coloredBlur"/>
      <feMerge>
        <feMergeNode in="coloredBlur"/>
        <feMergeNode in="SourceGraphic"/>
      </feMerge>
    </filter>
  </defs>

  <rect width="800" height="600" fill="url(#bgGradient)"/>

  <circle cx="200" cy="200" r="80" fill="#4169E1" stroke="#2F4F4F" stroke-width="3"/>
  <path d="M180 180 Q200 160 220 180 Q240 200 220 220 Q200 240 180 220 Q160 200 180 180" fill="#228B22"/>
  <path d="M200 140 Q220 160 240 140" fill="#228B22"/>

  <g transform="translate(350,150)">
    <circle cx="0" cy="0" r="50" fill="none" stroke="#FF6347" stroke-width="4" stroke-dasharray="5,5"/>
    <path d="M-20,-20 Q0,0 20,20 Q0,40 -20,20 Q0,0 20,-20" fill="#FF6347" opacity="0.7"/>
  </g>

  <rect x="500" y="150" width="120" height="80" fill="#F5F5F5" stroke="#2F4F4F" stroke-width="3"/>
  <text x="560" y="175" text-anchor="middle" fill="#000000" font-family="Arial" font-size="14" font-weight="bold">CAT BOND</text>
  <text x="560" y="195" text-anchor="middle" fill="#000000" font-family="Arial" font-size="12">$100M</text>
  <text x="560" y="215" text-anchor="middle" fill="#000000" font-family="Arial" font-size="10">Social Impact</text>

  <g stroke="#32CD32" stroke-width="3" fill="none">
    <path d="M280 200 Q400 180 500 190" marker-end="url(#arrowhead)"/>
    <path d="M560 230 Q450 280 350 300" marker-end="url(#arrowhead)"/>
  </g>

  <defs>
    <marker id="arrowhead" markerWidth="10" markerHeight="7" refX="9" refY="3.5" orient="auto">
      <polygon points="0 0, 10 3.5, 0 7" fill="#32CD32"/>
    </marker>
  </defs>

  <circle cx="150" cy="400" r="25" fill="#FFD700" stroke="#FFA500" stroke-width="3"/>
  <rect x="135" y="425" width="30" height="40" rx="10" fill="#4169E1"/>

  <circle cx="200" cy="420" r="20" fill="#FFD700" stroke="#FFA500" stroke-width="3"/>
  <rect x="190" y="440" width="20" height="35" rx="10" fill="#32CD32"/>

  <circle cx="250" cy="410" r="22" fill="#FFD700" stroke="#FFA500" stroke-width="3"/>
  <rect x="238" y="432" width="24" height="38" rx="10" fill="#9370DB"/>

  <rect x="550" y="350" width="100" height="120" fill="#4682B4" stroke="#2F4F4F" stroke-width="3"/>
  <rect x="570" y="370" width="20" height="20" fill="#87CEEB"/>
  <rect x="600" y="370" width="20" height="20" fill="#87CEEB"/>
  <rect x="630" y="370" width="20" height="20" fill="#87CEEB"/>
  <rect x="570" y="400" width="20" height="20" fill="#87CEEB"/>
  <rect x="600" y="400" width="20" height="20" fill="#87CEEB"/>
  <rect x="630" y="400" width="20" height="20" fill="#87CEEB"/>

  <path d="M400 400 L430 415 L430 465 L400 480 L370 465 L370 415 Z" fill="#32CD32" stroke="#228B22" stroke-width="3"/>
  <text x="400" y="450" text-anchor="middle" fill="#ffffff" font-family="Arial" font-size="18" font-weight="bold">$</text>

  <text x="400" y="50" text-anchor="middle" fill="#ffffff" font-family="Arial" font-size="26" font-weight="bold">Catastrophe Bonds</text>
  <text x="400" y="80" text-anchor="middle" fill="#ffffff" font-family="Arial" font-size="26" font-weight="bold">Social Impact</text>
  <text x="400" y="550" text-anchor="middle" fill="#ffffff" font-family="Arial" font-size="18">Funding Global Resilience</text>

  <rect x="50" y="50" width="120" height="30" rx="15" fill="#FF6347" opacity="0.9"/>
  <text x="110" y="70" text-anchor="middle" fill="#ffffff" font-family="Arial" font-size="14" font-weight="bold">SOCIAL IMPACT</text>
</svg>