<?xml version="1.0" encoding="UTF-8"?>
<svg width="800" height="600" viewBox="0 0 800 600" xmlns="http://www.w3.org/2000/svg">
  <defs>
    <linearGradient id="bgGradient" x1="0%" y1="0%" x2="100%" y2="100%">
      <stop offset="0%" style="stop-color:#87CEEB;stop-opacity:1" />
      <stop offset="50%" style="stop-color:#4682B4;stop-opacity:1" />
      <stop offset="100%" style="stop-color:#2F4F4F;stop-opacity:1" />
    </linearGradient>
    <linearGradient id="stormGradient" x1="0%" y1="0%" x2="100%" y2="100%">
      <stop offset="0%" style="stop-color:#696969;stop-opacity:1" />
      <stop offset="100%" style="stop-color:#2F4F4F;stop-opacity:1" />
    </linearGradient>
    <filter id="glow">
      <feGaussianBlur stdDeviation="3" result="coloredBlur"/>
      <feMerge>
        <feMergeNode in="coloredBlur"/>
        <feMergeNode in="SourceGraphic"/>
      </feMerge>
    </filter>
  </defs>

  <rect width="800" height="600" fill="url(#bgGradient)"/>

  <ellipse cx="150" cy="120" rx="60" ry="40" fill="url(#stormGradient)"/>
  <ellipse cx="200" cy="100" rx="80" ry="50" fill="url(#stormGradient)"/>
  <ellipse cx="250" cy="130" rx="70" ry="45" fill="url(#stormGradient)"/>
  <ellipse cx="300" cy="110" rx="60" ry="35" fill="url(#stormGradient)"/>

  <g stroke="#FFD700" stroke-width="6" fill="none" filter="url(#glow)">
    <path d="M180 160 L170 200 L185 210 L175 250 L190 260 L180 300"/>
    <path d="M280 150 L270 190 L285 200 L275 240"/>
  </g>

  <g stroke="#4682B4" stroke-width="2" fill="none" opacity="0.7">
    <line x1="120" y1="180" x2="110" y2="220"/>
    <line x1="140" y1="170" x2="130" y2="210"/>
    <line x1="160" y1="185" x2="150" y2="225"/>
    <line x1="180" y1="175" x2="170" y2="215"/>
    <line x1="200" y1="190" x2="190" y2="230"/>
    <line x1="220" y1="180" x2="210" y2="220"/>
    <line x1="240" y1="195" x2="230" y2="235"/>
    <line x1="260" y1="185" x2="250" y2="225"/>
    <line x1="280" y1="200" x2="270" y2="240"/>
    <line x1="300" y1="190" x2="290" y2="230"/>
  </g>

  <rect x="0" y="500" width="400" height="100" fill="#4682B4" opacity="0.8"/>
  <g stroke="#87CEEB" stroke-width="3" fill="none">
    <path d="M0 515 Q100 505 200 515 Q300 525 400 515"/>
    <path d="M0 530 Q100 520 200 530 Q300 540 400 530"/>
    <path d="M0 545 Q100 535 200 545 Q300 555 400 545"/>
  </g>

  <rect x="450" y="400" width="80" height="120" fill="#2F4F4F" stroke="#4682B4" stroke-width="4"/>
  <polygon points="450,400 490,370 530,400" fill="#8B4513"/>
  <rect x="470" y="430" width="15" height="20" fill="#FFD700"/>
  <rect x="500" y="430" width="15" height="20" fill="#FFD700"/>
  <rect x="470" y="470" width="15" height="20" fill="#FFD700"/>
  <rect x="500" y="470" width="15" height="20" fill="#FFD700"/>
  <rect x="485" y="490" width="20" height="30" fill="#8B4513"/>

  <rect x="400" y="480" width="10" height="40" fill="#2F4F4F"/>
  <rect x="420" y="485" width="10" height="35" fill="#2F4F4F"/>
  <rect x="440" y="490" width="10" height="30" fill="#2F4F4F"/>

  <rect x="560" y="350" width="60" height="40" fill="#4169E1" stroke="#2F4F4F" stroke-width="3"/>
  <g stroke="#FFD700" stroke-width="2" fill="none">
    <line x1="570" y1="360" x2="610" y2="360"/>
    <line x1="570" y1="370" x2="610" y2="370"/>
    <line x1="570" y1="380" x2="610" y2="380"/>
    <line x1="580" y1="355" x2="580" y2="385"/>
    <line x1="590" y1="355" x2="590" y2="385"/>
    <line x1="600" y1="355" x2="600" y2="385"/>
  </g>

  <line x1="650" y1="300" x2="650" y2="450" stroke="#2F4F4F" stroke-width="8"/>
  <circle cx="650" cy="300" r="10" fill="#2F4F4F"/>
  <g stroke="#ffffff" stroke-width="4" fill="none">
    <path d="M650 300 L630 260"/>
    <path d="M650 300 L670 260"/>
    <path d="M650 300 L650 250"/>
  </g>

  <rect x="700" y="200" width="30" height="80" fill="#4682B4" stroke="#2F4F4F" stroke-width="3"/>
  <circle cx="715" cy="190" r="8" fill="#FF6347"/>
  <rect x="705" y="220" width="20" height="15" fill="#000000"/>
  <text x="715" y="232" text-anchor="middle" fill="#ffffff" font-family="Arial" font-size="8">DATA</text>

  <polygon points="50,350 30,390 70,390" fill="#FF4500" stroke="#FF0000" stroke-width="2"/>
  <text x="50" y="380" text-anchor="middle" fill="#ffffff" font-family="Arial" font-size="16" font-weight="bold">!</text>

  <rect x="500" y="500" width="150" height="80" fill="#ffffff" stroke="#2F4F4F" stroke-width="3"/>
  <text x="575" y="525" text-anchor="middle" fill="#000000" font-family="Arial" font-size="14" font-weight="bold">CLIMATE RESILIENCE</text>
  <text x="575" y="540" text-anchor="middle" fill="#000000" font-family="Arial" font-size="12">COVERAGE</text>
  <rect x="520" y="550" width="110" height="5" fill="#32CD32"/>
  <rect x="520" y="560" width="80" height="5" fill="#FFD700"/>
  <rect x="520" y="570" width="60" height="5" fill="#FF6347"/>

  <rect x="50" y="450" width="120" height="80" fill="#2F4F4F" stroke="#4682B4" stroke-width="3"/>
  <text x="110" y="475" text-anchor="middle" fill="#ffffff" font-family="Arial" font-size="14" font-weight="bold">CLIMATE DATA</text>
  <g stroke="#00FFFF" stroke-width="2" fill="none">
    <path d="M70 490 Q90 480 110 490 Q130 500 150 490"/>
    <path d="M70 505 Q90 495 110 505 Q130 515 150 505"/>
    <path d="M70 520 Q90 510 110 520 Q130 530 150 520"/>
  </g>

  <rect x="200" y="380" width="15" height="60" fill="#FF4500"/>
  <circle cx="207" cy="450" r="8" fill="#FF4500"/>
  <text x="207" y="470" text-anchor="middle" fill="#ffffff" font-family="Arial" font-size="12">+2°C</text>

  <path d="M350 480 L390 500 L390 560 L350 580 L310 560 L310 500 Z" fill="#32CD32" stroke="#228B22" stroke-width="3"/>
  <text x="350" y="545" text-anchor="middle" fill="#ffffff" font-family="Arial" font-size="20" font-weight="bold">$</text>

  <g stroke="#32CD32" stroke-width="3" fill="none">
    <circle cx="600" cy="250" r="25"/>
    <circle cx="600" cy="250" r="35"/>
    <circle cx="600" cy="250" r="45"/>
  </g>

  <text x="400" y="50" text-anchor="middle" fill="#ffffff" font-family="Arial" font-size="26" font-weight="bold">Climate Resilience</text>
  <text x="400" y="80" text-anchor="middle" fill="#ffffff" font-family="Arial" font-size="26" font-weight="bold">Insurance</text>
  <text x="400" y="110" text-anchor="middle" fill="#ffffff" font-family="Arial" font-size="18">Adaptive Risk Management</text>

  <rect x="50" y="50" width="140" height="30" rx="15" fill="#228B22" opacity="0.9"/>
  <text x="120" y="70" text-anchor="middle" fill="#ffffff" font-family="Arial" font-size="14" font-weight="bold">ENVIRONMENTAL</text>
</svg>