<?xml version="1.0" encoding="UTF-8"?>
<svg viewBox="0 0 400 300" xmlns="http://www.w3.org/2000/svg">
  <defs>
    <linearGradient id="techBg" x1="0%" y1="0%" x2="100%" y2="100%">
      <stop offset="0%" style="stop-color:#0F172A;stop-opacity:1" />
      <stop offset="100%" style="stop-color:#1E293B;stop-opacity:1" />
    </linearGradient>
    <linearGradient id="shieldGradient" x1="0%" y1="0%" x2="0%" y2="100%">
      <stop offset="0%" style="stop-color:#3B82F6;stop-opacity:1" />
      <stop offset="100%" style="stop-color:#1E40AF;stop-opacity:1" />
    </linearGradient>
    <radialGradient id="glowEffect" cx="50%" cy="50%" r="50%">
      <stop offset="0%" style="stop-color:#60A5FA;stop-opacity:0.8" />
      <stop offset="100%" style="stop-color:#3B82F6;stop-opacity:0.2" />
    </radialGradient>
  </defs>

  <rect width="400" height="300" fill="url(#techBg)"/>

  <defs>
    <pattern id="grid" width="20" height="20" patternUnits="userSpaceOnUse">
      <path d="M 20 0 L 0 0 0 20" fill="none" stroke="#334155" stroke-width="0.5" opacity="0.3"/>
    </pattern>
  </defs>
  <rect width="400" height="300" fill="url(#grid)"/>

  <g transform="translate(200,150)">
    <circle cx="0" cy="0" r="35" fill="url(#glowEffect)"/>
    <path d="M0 -30 L20 -20 L20 10 L0 30 L-20 10 L-20 -20 Z" fill="url(#shieldGradient)" stroke="#60A5FA" stroke-width="2"/>
    <path d="M0 -20 L12 -12 L12 5 L0 20 L-12 5 L-12 -12 Z" fill="#93C5FD"/>

    <rect x="-6" y="-5" width="12" height="10" rx="2" fill="#1E40AF"/>
    <path d="M-4 -5 L-4 -10 Q-4 -14 0 -14 Q4 -14 4 -10 L4 -5" fill="none" stroke="#1E40AF" stroke-width="2"/>
    <circle cx="0" cy="0" r="2" fill="#60A5FA"/>
  </g>

  <g transform="translate(80,180)">
    <rect x="0" y="0" width="40" height="25" rx="2" fill="#374151"/>
    <rect x="2" y="2" width="36" height="18" rx="1" fill="#111827"/>
    <rect x="4" y="4" width="32" height="14" rx="1" fill="#60A5FA"/>
    <rect x="15" y="25" width="10" height="3" fill="#374151"/>
    <rect x="8" y="28" width="24" height="2" rx="1" fill="#374151"/>

    <rect x="6" y="6" width="28" height="2" fill="#93C5FD"/>
    <rect x="6" y="10" width="20" height="1" fill="#93C5FD"/>
    <rect x="6" y="13" width="24" height="1" fill="#93C5FD"/>
  </g>

  <g transform="translate(320,170)">
    <rect x="0" y="0" width="20" height="35" rx="4" fill="#374151"/>
    <rect x="2" y="3" width="16" height="25" rx="2" fill="#111827"/>
    <rect x="4" y="5" width="12" height="21" rx="1" fill="#60A5FA"/>
    <circle cx="10" cy="31" r="2" fill="#6B7280"/>

    <rect x="6" y="7" width="8" height="1" fill="#93C5FD"/>
    <rect x="6" y="10" width="6" height="1" fill="#93C5FD"/>
    <rect x="6" y="13" width="10" height="1" fill="#93C5FD"/>
  </g>

  <g transform="translate(200,50)">
    <rect x="-15" y="0" width="30" height="8" rx="4" fill="#6B7280"/>
    <rect x="-15" y="12" width="30" height="8" rx="4" fill="#6B7280"/>
    <rect x="-15" y="24" width="30" height="8" rx="4" fill="#6B7280"/>
    <circle cx="-8" cy="4" r="1.5" fill="#22C55E"/>
    <circle cx="-8" cy="16" r="1.5" fill="#22C55E"/>
    <circle cx="-8" cy="28" r="1.5" fill="#EF4444"/>
    <rect x="-2" y="2" width="12" height="4" rx="1" fill="#374151"/>
    <rect x="-2" y="14" width="12" height="4" rx="1" fill="#374151"/>
    <rect x="-2" y="26" width="12" height="4" rx="1" fill="#374151"/>
  </g>

  <g transform="translate(100,80)">
    <circle cx="0" cy="0" r="12" fill="#EF4444" opacity="0.8"/>
    <circle cx="0" cy="0" r="8" fill="#DC2626"/>
    <text x="0" y="4" font-family="Arial" font-size="12" fill="white" text-anchor="middle" font-weight="bold">!</text>
    <circle cx="0" cy="0" r="15" fill="none" stroke="#EF4444" stroke-width="1" stroke-dasharray="2,2">
      <animate attributeName="r" values="15;20;15" dur="2s" repeatCount="indefinite"/>
    </circle>
  </g>

  <g transform="translate(350,80)">
    <circle cx="0" cy="0" r="12" fill="#1F2937"/>
    <path d="M-8 -5 L-8 -10 L8 -10 L8 -5 Z" fill="#1F2937"/>
    <circle cx="-3" cy="-2" r="1" fill="#EF4444"/>
    <circle cx="3" cy="-2" r="1" fill="#EF4444"/>
    <rect x="-2" y="2" width="4" height="1" fill="#6B7280"/>
    <rect x="-6" y="5" width="3" height="8" fill="#1F2937"/>
    <rect x="3" y="5" width="3" height="8" fill="#1F2937"/>
  </g>

  <path d="M120 180 Q150 120 200 120" stroke="#60A5FA" stroke-width="2" fill="none" stroke-dasharray="5,5" opacity="0.7">
    <animate attributeName="stroke-dashoffset" values="0;-10" dur="1s" repeatCount="indefinite"/>
  </path>
  <path d="M320 180 Q280 120 200 120" stroke="#60A5FA" stroke-width="2" fill="none" stroke-dasharray="5,5" opacity="0.7">
    <animate attributeName="stroke-dashoffset" values="0;-10" dur="1s" repeatCount="indefinite"/>
  </path>

  <circle cx="50" cy="120" r="3" fill="#F59E0B">
    <animate attributeName="r" values="3;6;3" dur="1.5s" repeatCount="indefinite"/>
    <animate attributeName="opacity" values="1;0.5;1" dur="1.5s" repeatCount="indefinite"/>
  </circle>
  <circle cx="350" cy="120" r="3" fill="#F59E0B">
    <animate attributeName="r" values="3;6;3" dur="1.5s" repeatCount="indefinite"/>
    <animate attributeName="opacity" values="1;0.5;1" dur="1.5s" repeatCount="indefinite"/>
  </circle>

  <text x="200" y="280" font-family="Arial" font-size="16" fill="#E2E8F0" text-anchor="middle" font-weight="bold">Cyber Security Protection</text>
</svg>