<?xml version="1.0" encoding="UTF-8"?>
<svg width="800" height="600" viewBox="0 0 800 600" xmlns="http://www.w3.org/2000/svg">
  <defs>
    <linearGradient id="bgGradient" x1="0%" y1="0%" x2="100%" y2="100%">
      <stop offset="0%" style="stop-color:#1a1a2e;stop-opacity:1" />
      <stop offset="50%" style="stop-color:#16213e;stop-opacity:1" />
      <stop offset="100%" style="stop-color:#FF4500;stop-opacity:1" />
    </linearGradient>
    <linearGradient id="shieldGradient" x1="0%" y1="0%" x2="100%" y2="100%">
      <stop offset="0%" style="stop-color:#4CAF50;stop-opacity:1" />
      <stop offset="100%" style="stop-color:#2E7D32;stop-opacity:1" />
    </linearGradient>
    <linearGradient id="threatGradient" x1="0%" y1="0%" x2="100%" y2="100%">
      <stop offset="0%" style="stop-color:#FF6B6B;stop-opacity:1" />
      <stop offset="100%" style="stop-color:#FF4444;stop-opacity:1" />
    </linearGradient>
    <filter id="glow">
      <feGaussianBlur stdDeviation="3" result="coloredBlur"/>
      <feMerge>
        <feMergeNode in="coloredBlur"/>
        <feMergeNode in="SourceGraphic"/>
      </feMerge>
    </filter>
  </defs>

  <rect width="800" height="600" fill="url(#bgGradient)"/>

  <g id="business-building" transform="translate(200, 400)">

    <rect x="0" y="-80" width="100" height="80" fill="rgba(255,255,255,0.1)" stroke="#FF4500" stroke-width="2"/>
    <rect x="10" y="-70" width="15" height="60" fill="rgba(255,255,255,0.2)"/>
    <rect x="35" y="-70" width="15" height="60" fill="rgba(255,255,255,0.2)"/>
    <rect x="60" y="-70" width="15" height="60" fill="rgba(255,255,255,0.2)"/>
    <rect x="85" y="-70" width="15" height="60" fill="rgba(255,255,255,0.2)"/>

    <polygon points="0,-80 50,-100 100,-80" fill="#FF4500" stroke="#FF6347" stroke-width="2"/>

    <rect x="40" y="-20" width="20" height="20" fill="#FF4500"/>

    <rect x="20" y="-90" width="60" height="15" rx="5" fill="#FF4500"/>
    <text x="50" y="-80" font-family="Arial" font-size="10" fill="white" text-anchor="middle">SMALL BUSINESS</text>
  </g>

  <g id="cyber-threats" transform="translate(100, 200)">

    <circle cx="0" cy="0" r="15" fill="url(#threatGradient)" opacity="0.8">
      <animate attributeName="opacity" values="0.8;0.3;0.8" dur="2s" repeatCount="indefinite"/>
    </circle>
    <text x="0" y="5" font-family="Arial" font-size="12" fill="white" text-anchor="middle">🦠</text>
    <text x="0" y="35" font-family="Arial" font-size="10" fill="#FF6B6B" text-anchor="middle">Malware</text>

    <circle cx="150" cy="50" r="15" fill="url(#threatGradient)" opacity="0.8">
      <animate attributeName="opacity" values="0.3;0.8;0.3" dur="2.5s" repeatCount="indefinite"/>
    </circle>
    <text x="150" y="55" font-family="Arial" font-size="12" fill="white" text-anchor="middle">🎣</text>
    <text x="150" y="85" font-family="Arial" font-size="10" fill="#FF6B6B" text-anchor="middle">Phishing</text>

    <circle cx="300" cy="-30" r="15" fill="url(#threatGradient)" opacity="0.8">
      <animate attributeName="opacity" values="0.8;0.3;0.8" dur="3s" repeatCount="indefinite"/>
    </circle>
    <text x="300" y="-25" font-family="Arial" font-size="12" fill="white" text-anchor="middle">🔒</text>
    <text x="300" y="5" font-family="Arial" font-size="10" fill="#FF6B6B" text-anchor="middle">Ransomware</text>

    <circle cx="450" cy="20" r="15" fill="url(#threatGradient)" opacity="0.8">
      <animate attributeName="opacity" values="0.3;0.8;0.3" dur="1.8s" repeatCount="indefinite"/>
    </circle>
    <text x="450" y="25" font-family="Arial" font-size="12" fill="white" text-anchor="middle">💾</text>
    <text x="450" y="55" font-family="Arial" font-size="10" fill="#FF6B6B" text-anchor="middle">Data Breach</text>
  </g>

  <g id="security-shield" transform="translate(400, 300)">

    <path d="M 0 -60 L 30 -40 L 40 -10 L 40 20 L 30 45 L 0 60 L -30 45 L -40 20 L -40 -10 L -30 -40 Z" 
          fill="url(#shieldGradient)" stroke="#4CAF50" stroke-width="3" filter="url(#glow)"/>

    <circle cx="0" cy="0" r="25" fill="rgba(255,255,255,0.2)"/>
    <text x="0" y="8" font-family="Arial" font-size="20" fill="white" text-anchor="middle" font-weight="bold">🛡️</text>

    <rect x="-30" y="-50" width="60" height="6" rx="3" fill="#4CAF50" opacity="0.8"/>
    <rect x="-30" y="-35" width="60" height="6" rx="3" fill="#4CAF50" opacity="0.8"/>
    <rect x="-30" y="-20" width="60" height="6" rx="3" fill="#4CAF50" opacity="0.8"/>
    <rect x="-30" y="25" width="60" height="6" rx="3" fill="#4CAF50" opacity="0.8"/>
    <rect x="-30" y="40" width="60" height="6" rx="3" fill="#4CAF50" opacity="0.8"/>

    <text x="0" y="80" font-family="Arial" font-size="14" fill="#4CAF50" text-anchor="middle" font-weight="bold">Cyber Protection</text>
  </g>

  <g id="network" transform="translate(200, 350)">

    <rect x="150" y="-20" width="40" height="20" rx="5" fill="#4CAF50" stroke="#2E7D32" stroke-width="2"/>
    <circle cx="155" cy="-10" r="3" fill="#2E7D32"/>
    <circle cx="165" cy="-10" r="3" fill="#2E7D32"/>
    <circle cx="175" cy="-10" r="3" fill="#2E7D32"/>
    <circle cx="185" cy="-10" r="3" fill="#2E7D32"/>
    <text x="170" y="15" font-family="Arial" font-size="10" fill="#4CAF50" text-anchor="middle">Firewall</text>

    <line x1="50" y1="-50" x2="155" y2="-10" stroke="#4CAF50" stroke-width="2" stroke-dasharray="5,5">
      <animate attributeName="stroke-dasharray" values="5,5;10,0;5,5" dur="2s" repeatCount="indefinite"/>
    </line>
    <line x1="50" y1="-10" x2="155" y2="-10" stroke="#4CAF50" stroke-width="2" stroke-dasharray="5,5">
      <animate attributeName="stroke-dasharray" values="0,5;5,10;0,5" dur="2.5s" repeatCount="indefinite"/>
    </line>
    <line x1="50" y1="30" x2="155" y2="-10" stroke="#4CAF50" stroke-width="2" stroke-dasharray="5,5">
      <animate attributeName="stroke-dasharray" values="5,5;10,0;5,5" dur="1.8s" repeatCount="indefinite"/>
    </line>
  </g>

  <g id="coverage-areas" transform="translate(600, 200)">
    <rect x="-80" y="-60" width="160" height="120" rx="10" fill="rgba(255,255,255,0.1)" stroke="#FF4500" stroke-width="2"/>
    <text x="0" y="-40" font-family="Arial" font-size="14" fill="white" text-anchor="middle" font-weight="bold">Coverage Areas</text>

    <text x="0" y="-20" font-family="Arial" font-size="12" fill="#FF4500" text-anchor="middle">• Data Recovery</text>
    <text x="0" y="-5" font-family="Arial" font-size="12" fill="#FF4500" text-anchor="middle">• Business Interruption</text>
    <text x="0" y="10" font-family="Arial" font-size="12" fill="#FF4500" text-anchor="middle">• Cyber Extortion</text>
    <text x="0" y="25" font-family="Arial" font-size="12" fill="#FF4500" text-anchor="middle">• Legal Defense</text>
    <text x="0" y="40" font-family="Arial" font-size="12" fill="#FF4500" text-anchor="middle">• Notification Costs</text>
    <text x="0" y="55" font-family="Arial" font-size="12" fill="#FF4500" text-anchor="middle">• Reputation Repair</text>
  </g>

  <text x="400" y="60" font-family="Arial" font-size="30" fill="white" text-anchor="middle" font-weight="bold">Small Business Cybersecurity</text>
  <text x="400" y="100" font-family="Arial" font-size="22" fill="white" text-anchor="middle" font-weight="bold">Insurance Protection</text>
  <text x="400" y="130" font-family="Arial" font-size="16" fill="#FF4500" text-anchor="middle">Defend Your Digital Assets</text>

  <g id="info-panel" transform="translate(50, 520)">
    <rect x="0" y="0" width="700" height="70" rx="10" fill="rgba(255,255,255,0.1)" stroke="rgba(255,255,255,0.3)" stroke-width="1"/>
    <text x="20" y="20" font-family="Arial" font-size="14" fill="white" font-weight="bold">Essential Protection for Small Businesses:</text>
    <text x="20" y="35" font-family="Arial" font-size="12" fill="#4CAF50">• 24/7 Incident Response</text>
    <text x="180" y="35" font-family="Arial" font-size="12" fill="#4CAF50">• Expert Forensic Investigation</text>
    <text x="360" y="35" font-family="Arial" font-size="12" fill="#4CAF50">• Compliance Support</text>
    <text x="520" y="35" font-family="Arial" font-size="12" fill="#4CAF50">• Risk Assessment</text>
    <text x="20" y="50" font-family="Arial" font-size="12" fill="#4CAF50">• Employee Training</text>
    <text x="180" y="50" font-family="Arial" font-size="12" fill="#4CAF50">• Breach Prevention</text>
    <text x="360" y="50" font-family="Arial" font-size="12" fill="#4CAF50">• Recovery Planning</text>
    <text x="520" y="50" font-family="Arial" font-size="12" fill="#4CAF50">• Affordable Coverage</text>
  </g>

  <g id="warning-indicators">
    <polygon points="50,150 60,170 40,170" fill="#FF6600" stroke="#FF4500" stroke-width="2">
      <animate attributeName="opacity" values="1;0.3;1" dur="2s" repeatCount="indefinite"/>
    </polygon>
    <text x="50" y="167" font-family="Arial" font-size="8" fill="white" text-anchor="middle" font-weight="bold">!</text>

    <polygon points="750,350 760,370 740,370" fill="#FF6600" stroke="#FF4500" stroke-width="2">
      <animate attributeName="opacity" values="1;0.3;1" dur="2.5s" repeatCount="indefinite"/>
    </polygon>
    <text x="750" y="367" font-family="Arial" font-size="8" fill="white" text-anchor="middle" font-weight="bold">!</text>
  </g>
</svg>