<svg width="400" height="300" viewBox="0 0 400 300" xmlns="http://www.w3.org/2000/svg">
  <defs>
    <linearGradient id="carGradient" x1="0%" y1="0%" x2="100%" y2="0%">
      <stop offset="0%" style="stop-color:#1E90FF;stop-opacity:1" />
      <stop offset="100%" style="stop-color:#0066CC;stop-opacity:1" />
    </linearGradient>
    <linearGradient id="batteryGradient" x1="0%" y1="0%" x2="100%" y2="0%">
      <stop offset="0%" style="stop-color:#32CD32;stop-opacity:1" />
      <stop offset="100%" style="stop-color:#228B22;stop-opacity:1" />
    </linearGradient>
    <linearGradient id="roadGradient" x1="0%" y1="0%" x2="0%" y2="100%">
      <stop offset="0%" style="stop-color:#808080;stop-opacity:1" />
      <stop offset="100%" style="stop-color:#696969;stop-opacity:1" />
    </linearGradient>
  </defs>

  <rect width="400" height="300" fill="#87CEEB"/>

  <rect x="0" y="200" width="400" height="100" fill="url(#roadGradient)"/>

  <rect x="0" y="245" width="80" height="5" fill="#FFFFFF"/>
  <rect x="100" y="245" width="80" height="5" fill="#FFFFFF"/>
  <rect x="200" y="245" width="80" height="5" fill="#FFFFFF"/>
  <rect x="300" y="245" width="80" height="5" fill="#FFFFFF"/>

  <g transform="translate(150, 150)">

    <rect x="0" y="20" width="120" height="40" fill="url(#carGradient)" rx="10"/>
    <rect x="10" y="0" width="100" height="30" fill="url(#carGradient)" rx="8"/>

    <rect x="15" y="5" width="30" height="20" fill="#87CEEB" rx="3"/>
    <rect x="50" y="5" width="30" height="20" fill="#87CEEB" rx="3"/>
    <rect x="85" y="5" width="20" height="20" fill="#87CEEB" rx="3"/>

    <circle cx="25" cy="70" r="12" fill="#333333"/>
    <circle cx="25" cy="70" r="8" fill="#666666"/>
    <circle cx="95" cy="70" r="12" fill="#333333"/>
    <circle cx="95" cy="70" r="8" fill="#666666"/>

    <path d="M 50 35 L 45 45 L 50 45 L 40 55 L 45 45 L 40 45 L 50 35" fill="#FFD700" transform="translate(10, -5)"/>

    <rect x="75" y="25" width="20" height="10" fill="#32CD32" rx="2"/>
    <text x="85" y="32" text-anchor="middle" font-family="Arial, sans-serif" font-size="8" fill="#FFFFFF">EV</text>
  </g>

  <g transform="translate(320, 140)">

    <rect x="0" y="0" width="15" height="60" fill="#4169E1" rx="7"/>
    <rect x="2" y="5" width="11" height="20" fill="#87CEEB" rx="2"/>

    <path d="M 15 15 Q 30 10 45 25" stroke="#333333" stroke-width="4" fill="none"/>
    <circle cx="45" cy="25" r="3" fill="#333333"/>

    <path d="M 7 35 L 4 42 L 7 42 L 2 48 L 5 42 L 2 42 L 7 35" fill="#FFD700"/>

    <rect x="-5" y="60" width="25" height="10" fill="#696969" rx="2"/>
  </g>

  <g transform="translate(50, 80)">
    <path d="M 0 0 L 20 -8 L 40 0 L 40 25 L 20 40 L 0 25 Z" fill="#4169E1" stroke="#191970" stroke-width="2"/>
    <text x="20" y="15" text-anchor="middle" font-family="Arial, sans-serif" font-size="12" fill="#FFFFFF">$</text>
    <text x="20" y="28" text-anchor="middle" font-family="Arial, sans-serif" font-size="8" fill="#FFFFFF">INSURANCE</text>
  </g>

  <g transform="translate(280, 80)">
    <rect x="0" y="0" width="40" height="20" fill="url(#batteryGradient)" stroke="#228B22" stroke-width="2" rx="3"/>
    <rect x="40" y="6" width="6" height="8" fill="#228B22" rx="2"/>
    <rect x="5" y="5" width="25" height="10" fill="#90EE90"/>
    <text x="20" y="35" text-anchor="middle" font-family="Arial, sans-serif" font-size="8" fill="#333333">Battery Coverage</text>
  </g>

  <g transform="translate(50, 200)">
    <rect x="0" y="0" width="80" height="60" fill="#FFFFFF" stroke="#333333" stroke-width="2" rx="5"/>
    <text x="40" y="15" text-anchor="middle" font-family="Arial, sans-serif" font-size="8" fill="#333333">EV RISKS</text>

    <rect x="10" y="20" width="30" height="6" fill="#FFD700"/>
    <text x="45" y="25" font-family="Arial, sans-serif" font-size="6" fill="#333333">Battery</text>

    <rect x="10" y="30" width="25" height="6" fill="#FF6347"/>
    <text x="40" y="35" font-family="Arial, sans-serif" font-size="6" fill="#333333">Repair</text>

    <rect x="10" y="40" width="20" height="6" fill="#32CD32"/>
    <text x="35" y="45" font-family="Arial, sans-serif" font-size="6" fill="#333333">Safety</text>

    <rect x="10" y="50" width="15" height="6" fill="#4169E1"/>
    <text x="30" y="55" font-family="Arial, sans-serif" font-size="6" fill="#333333">Tech</text>
  </g>

  <g transform="translate(10, 20)">

    <path d="M 0 10 Q 5 0 10 5 Q 15 10 10 15 Q 5 20 0 10" fill="#32CD32"/>
    <path d="M 0 10 Q 5 5 10 10" stroke="#228B22" stroke-width="1" fill="none"/>

    <g transform="translate(20, 0)">
      <ellipse cx="5" cy="8" rx="3" ry="2" fill="#87CEEB" opacity="0.6"/>
      <ellipse cx="8" cy="12" rx="2" ry="1" fill="#87CEEB" opacity="0.6"/>
      <ellipse cx="12" cy="9" rx="2" ry="1" fill="#87CEEB" opacity="0.6"/>
    </g>
  </g>

  <text x="200" y="25" text-anchor="middle" font-family="Arial, sans-serif" font-size="16" font-weight="bold" fill="#2F4F4F">Electric Vehicle Insurance</text>
</svg>