<?xml version="1.0" encoding="UTF-8"?>
<svg width="800" height="600" viewBox="0 0 800 600" xmlns="http://www.w3.org/2000/svg">
  <defs>
    <linearGradient id="bgGradient" x1="0%" y1="0%" x2="100%" y2="100%">
      <stop offset="0%" style="stop-color:#0a0a0a;stop-opacity:1" />
      <stop offset="50%" style="stop-color:#1a1a2e;stop-opacity:1" />
      <stop offset="100%" style="stop-color:#4F4F4F;stop-opacity:1" />
    </linearGradient>
    <radialGradient id="alienGradient" cx="50%" cy="50%" r="50%">
      <stop offset="0%" style="stop-color:#90EE90;stop-opacity:1" />
      <stop offset="100%" style="stop-color:#32CD32;stop-opacity:1" />
    </radialGradient>
    <filter id="glow">
      <feGaussianBlur stdDeviation="3" result="coloredBlur"/>
      <feMerge>
        <feMergeNode in="coloredBlur"/>
        <feMergeNode in="SourceGraphic"/>
      </feMerge>
    </filter>
  </defs>

  <rect width="800" height="600" fill="url(#bgGradient)"/>

  <circle cx="100" cy="80" r="1" fill="#ffffff" filter="url(#glow)"/>
  <circle cx="200" cy="60" r="1.5" fill="#ffffff" filter="url(#glow)"/>
  <circle cx="300" cy="90" r="1" fill="#ffffff" filter="url(#glow)"/>
  <circle cx="700" cy="70" r="1" fill="#ffffff" filter="url(#glow)"/>
  <circle cx="650" cy="120" r="1.5" fill="#ffffff" filter="url(#glow)"/>
  <circle cx="750" cy="150" r="1" fill="#ffffff" filter="url(#glow)"/>

  <ellipse cx="300" cy="200" rx="40" ry="60" fill="url(#alienGradient)"/>
  <ellipse cx="300" cy="150" rx="35" ry="50" fill="url(#alienGradient)"/>
  <circle cx="285" cy="130" r="8" fill="#000000"/>
  <circle cx="315" cy="130" r="8" fill="#000000"/>
  <ellipse cx="300" cy="160" rx="5" ry="8" fill="#000000"/>
  <rect x="285" y="190" width="10" height="20" fill="url(#alienGradient)"/>
  <rect x="305" y="190" width="10" height="20" fill="url(#alienGradient)"/>
  <rect x="290" y="260" width="8" height="25" fill="url(#alienGradient)"/>
  <rect x="302" y="260" width="8" height="25" fill="url(#alienGradient)"/>

  <rect x="400" y="150" width="80" height="60" fill="#4682B4" stroke="#2F4F4F" stroke-width="3"/>
  <circle cx="440" cy="180" r="20" fill="#00FFFF" filter="url(#glow)"/>
  <rect x="410" y="130" width="60" height="10" fill="#4682B4"/>
  <text x="440" y="145" text-anchor="middle" fill="#ffffff" font-family="Arial" font-size="12" font-weight="bold">SCANNER</text>

  <g stroke="#00FFFF" stroke-width="3" fill="none" filter="url(#glow)">
    <line x1="400" y1="180" x2="340" y2="180"/>
    <line x1="400" y1="175" x2="340" y2="175"/>
    <line x1="400" y1="185" x2="340" y2="185"/>
  </g>

  <rect x="550" y="200" width="120" height="80" fill="#2F4F4F" stroke="#4682B4" stroke-width="3"/>
  <text x="610" y="225" text-anchor="middle" fill="#ffffff" font-family="Arial" font-size="14" font-weight="bold">MEDICAL</text>
  <text x="610" y="240" text-anchor="middle" fill="#ffffff" font-family="Arial" font-size="14" font-weight="bold">STATION</text>
  <circle cx="580" cy="260" r="8" fill="#32CD32"/>
  <circle cx="610" cy="260" r="8" fill="#FFD700"/>
  <circle cx="640" cy="260" r="8" fill="#FF6347"/>

  <g stroke="#90EE90" stroke-width="3" fill="none">
    <path d="M150 300 Q170 280 190 300 Q210 320 230 300 Q250 280 270 300"/>
    <path d="M150 300 Q170 320 190 300 Q210 280 230 300 Q250 320 270 300"/>
    <circle cx="160" cy="290" r="3" fill="#90EE90"/>
    <circle cx="180" cy="310" r="3" fill="#90EE90"/>
    <circle cx="200" cy="290" r="3" fill="#90EE90"/>
    <circle cx="220" cy="310" r="3" fill="#90EE90"/>
    <circle cx="240" cy="290" r="3" fill="#90EE90"/>
    <circle cx="260" cy="310" r="3" fill="#90EE90"/>
  </g>

  <rect x="100" y="400" width="100" height="80" fill="#2F4F4F" stroke="#4682B4" stroke-width="3"/>
  <text x="150" y="425" text-anchor="middle" fill="#ffffff" font-family="Arial" font-size="14" font-weight="bold">XENOBIOLOGY</text>
  <text x="150" y="440" text-anchor="middle" fill="#ffffff" font-family="Arial" font-size="14" font-weight="bold">UNIT</text>
  <rect x="120" y="450" width="60" height="3" fill="#90EE90"/>
  <rect x="120" y="458" width="50" height="3" fill="#90EE90"/>
  <rect x="120" y="466" width="40" height="3" fill="#90EE90"/>

  <rect x="300" y="400" width="150" height="100" fill="#ffffff" stroke="#2F4F4F" stroke-width="3"/>
  <text x="375" y="425" text-anchor="middle" fill="#000000" font-family="Arial" font-size="14" font-weight="bold">EXTRATERRESTRIAL</text>
  <text x="375" y="440" text-anchor="middle" fill="#000000" font-family="Arial" font-size="14" font-weight="bold">MEDICAL</text>
  <text x="375" y="455" text-anchor="middle" fill="#000000" font-family="Arial" font-size="14" font-weight="bold">INSURANCE</text>
  <text x="375" y="470" text-anchor="middle" fill="#000000" font-family="Arial" font-size="12">Coverage:</text>
  <text x="375" y="485" text-anchor="middle" fill="#000000" font-family="Arial" font-size="10">• Alien Contact</text>
  <text x="375" y="495" text-anchor="middle" fill="#000000" font-family="Arial" font-size="10">• Radiation Exposure</text>

  <ellipse cx="600" cy="400" rx="80" ry="30" fill="#696969" stroke="#2F4F4F" stroke-width="3"/>
  <circle cx="600" cy="400" r="15" fill="#00FFFF" filter="url(#glow)"/>
  <rect x="550" y="385" width="20" height="10" fill="#696969"/>
  <rect x="630" y="385" width="20" height="10" fill="#696969"/>
  <rect x="580" y="370" width="40" height="15" fill="#FF6347"/>
  <text x="600" y="380" text-anchor="middle" fill="#ffffff" font-family="Arial" font-size="10">RESCUE</text>

  <g stroke="#FF6347" stroke-width="4" fill="none" stroke-dasharray="10,10">
    <rect x="250" y="100" width="100" height="200"/>
  </g>
  <text x="300" y="95" text-anchor="middle" fill="#FF6347" font-family="Arial" font-size="14" font-weight="bold">QUARANTINE</text>

  <rect x="500" y="450" width="120" height="80" fill="#2F4F4F" stroke="#4682B4" stroke-width="3"/>
  <text x="560" y="475" text-anchor="middle" fill="#ffffff" font-family="Arial" font-size="14" font-weight="bold">RISK LEVEL</text>
  <rect x="520" y="485" width="80" height="5" fill="#32CD32"/>
  <rect x="520" y="495" width="60" height="5" fill="#FFD700"/>
  <rect x="520" y="505" width="40" height="5" fill="#FF6347"/>
  <text x="560" y="525" text-anchor="middle" fill="#ffffff" font-family="Arial" font-size="12">UNKNOWN</text>

  <rect x="50" y="200" width="60" height="80" fill="#4682B4" stroke="#2F4F4F" stroke-width="3"/>
  <circle cx="80" cy="230" r="15" fill="#00FFFF" filter="url(#glow)"/>
  <rect x="60" y="250" width="40" height="3" fill="#90EE90"/>
  <rect x="60" y="258" width="30" height="3" fill="#90EE90"/>
  <rect x="60" y="266" width="35" height="3" fill="#90EE90"/>
  <text x="80" y="185" text-anchor="middle" fill="#ffffff" font-family="Arial" font-size="10">TRANSLATOR</text>

  <path d="M650 500 L690 520 L690 580 L650 600 L610 580 L610 520 Z" fill="#32CD32" stroke="#228B22" stroke-width="3"/>
  <text x="650" y="565" text-anchor="middle" fill="#ffffff" font-family="Arial" font-size="20" font-weight="bold">$</text>

  <circle cx="700" cy="150" r="30" fill="#8A2BE2"/>
  <circle cx="690" cy="140" r="5" fill="#4B0082"/>
  <circle cx="710" cy="160" r="8" fill="#4B0082"/>
  <circle cx="705" cy="145" r="3" fill="#4B0082"/>

  <text x="400" y="50" text-anchor="middle" fill="#ffffff" font-family="Arial" font-size="26" font-weight="bold">Extraterrestrial Medical</text>
  <text x="400" y="80" text-anchor="middle" fill="#ffffff" font-family="Arial" font-size="26" font-weight="bold">Insurance</text>
  <text x="400" y="110" text-anchor="middle" fill="#ffffff" font-family="Arial" font-size="18">Alien Contact Coverage</text>

  <rect x="50" y="50" width="110" height="30" rx="15" fill="#4F4F4F" opacity="0.9"/>
  <text x="105" y="70" text-anchor="middle" fill="#ffffff" font-family="Arial" font-size="14" font-weight="bold">SPECULATIVE</text>
</svg>