<?xml version="1.0" encoding="UTF-8"?>
<svg width="800" height="600" viewBox="0 0 800 600" xmlns="http://www.w3.org/2000/svg">
  <defs>
    <linearGradient id="bgGradient" x1="0%" y1="0%" x2="100%" y2="100%">
      <stop offset="0%" style="stop-color:#1a1a2e;stop-opacity:1" />
      <stop offset="50%" style="stop-color:#16213e;stop-opacity:1" />
      <stop offset="100%" style="stop-color:#8B4513;stop-opacity:1" />
    </linearGradient>
    <filter id="glow">
      <feGaussianBlur stdDeviation="3" result="coloredBlur"/>
      <feMerge>
        <feMergeNode in="coloredBlur"/>
        <feMergeNode in="SourceGraphic"/>
      </feMerge>
    </filter>
  </defs>

  <rect width="800" height="600" fill="url(#bgGradient)"/>

  <circle cx="300" cy="200" r="40" fill="#FF6347" stroke="#FF4500" stroke-width="3"/>
  <path d="M300 160 Q290 150 285 165" stroke="#228B22" stroke-width="3" fill="none"/>

  <ellipse cx="500" cy="180" rx="15" ry="60" fill="#FFD700" stroke="#FFA500" stroke-width="3"/>

  <ellipse cx="350" cy="320" rx="60" ry="30" fill="#DEB887" stroke="#CD853F" stroke-width="3"/>

  <rect x="450" y="280" width="40" height="80" rx="5" fill="#F5F5F5" stroke="#D3D3D3" stroke-width="2"/>
  <rect x="450" y="280" width="40" height="20" fill="#4169E1"/>

  <rect x="200" y="400" width="80" height="100" rx="10" fill="#696969" stroke="#2F4F4F" stroke-width="3"/>
  <rect x="190" y="390" width="100" height="15" rx="7" fill="#2F4F4F"/>

  <path d="M600 300 L640 320 L640 380 L600 400 L560 380 L560 320 Z" fill="#32CD32" stroke="#228B22" stroke-width="3"/>
  <text x="600" y="365" text-anchor="middle" fill="#ffffff" font-family="Arial" font-size="24" font-weight="bold">$</text>

  <polygon points="400,450 380,490 420,490" fill="#FF4500" stroke="#FF0000" stroke-width="2"/>
  <text x="400" y="480" text-anchor="middle" fill="#ffffff" font-family="Arial" font-size="16" font-weight="bold">!</text>

  <g transform="translate(650,200)">
    <path d="M0,0 L10,17 L-10,17 Z" fill="#228B22"/>
    <path d="M15,10 L5,27 L25,27 Z" fill="#228B22"/>
    <path d="M-15,10 L-5,27 L-25,27 Z" fill="#228B22"/>
  </g>

  <text x="400" y="50" text-anchor="middle" fill="#ffffff" font-family="Arial" font-size="28" font-weight="bold">Food Waste Insurance</text>
  <text x="400" y="550" text-anchor="middle" fill="#ffffff" font-family="Arial" font-size="18">Protecting Business from Spoilage</text>

  <rect x="50" y="50" width="100" height="30" rx="15" fill="#4169E1" opacity="0.9"/>
  <text x="100" y="70" text-anchor="middle" fill="#ffffff" font-family="Arial" font-size="14" font-weight="bold">BUSINESS</text>
</svg>