<?xml version="1.0" encoding="UTF-8"?>
<svg viewBox="0 0 400 300" xmlns="http://www.w3.org/2000/svg">
  <defs>
    <linearGradient id="houseGradient" x1="0%" y1="0%" x2="0%" y2="100%">
      <stop offset="0%" style="stop-color:#FED7AA;stop-opacity:1" />
      <stop offset="100%" style="stop-color:#FDBA74;stop-opacity:1" />
    </linearGradient>
    <linearGradient id="skyGradient" x1="0%" y1="0%" x2="0%" y2="100%">
      <stop offset="0%" style="stop-color:#DBEAFE;stop-opacity:1" />
      <stop offset="100%" style="stop-color:#BFDBFE;stop-opacity:1" />
    </linearGradient>
  </defs>

  <rect width="400" height="300" fill="url(#skyGradient)"/>

  <g transform="translate(150,80)">

    <rect x="0" y="40" width="100" height="90" fill="url(#houseGradient)"/>
    <rect x="2" y="42" width="96" height="86" fill="#FED7AA"/>

    <polygon points="0,40 50,0 100,40" fill="#92400E"/>
    <polygon points="5,40 50,5 95,40" fill="#B45309"/>

    <rect x="15" y="55" width="18" height="18" fill="#F0F8FF"/>
    <rect x="67" y="55" width="18" height="18" fill="#F0F8FF"/>
    <line x1="24" y1="55" x2="24" y2="73" stroke="#92400E" stroke-width="1"/>
    <line x1="15" y1="64" x2="33" y2="64" stroke="#92400E" stroke-width="1"/>
    <line x1="76" y1="55" x2="76" y2="73" stroke="#92400E" stroke-width="1"/>
    <line x1="67" y1="64" x2="85" y2="64" stroke="#92400E" stroke-width="1"/>

    <rect x="42" y="90" width="16" height="40" fill="#92400E"/>
    <rect x="44" y="92" width="12" height="36" fill="#B45309"/>
    <circle cx="54" cy="110" r="1" fill="#F0F8FF"/>

    <rect x="75" y="15" width="10" height="30" fill="#92400E"/>

    <rect x="105" y="70" width="40" height="60" fill="#FBBF24"/>
    <rect x="107" y="72" width="36" height="56" fill="#FCD34D"/>
    <rect x="115" y="90" width="20" height="25" fill="#92400E"/>
    <rect x="117" y="92" width="16" height="21" fill="#B45309"/>
    <line x1="125" y1="90" x2="125" y2="115" stroke="#92400E" stroke-width="1"/>
  </g>

  <g transform="translate(50,180)">
    <rect x="0" y="0" width="80" height="60" fill="#FEF3C7" stroke="#F59E0B" stroke-width="2" rx="5"/>
    <text x="40" y="15" font-family="Arial" font-size="12" fill="#92400E" text-anchor="middle" font-weight="bold">HOME WARRANTY</text>

    <rect x="10" y="25" width="12" height="10" fill="#6B7280" rx="1"/>
    <rect x="11" y="26" width="10" height="8" fill="#9CA3AF" rx="1"/>
    <text x="16" y="40" font-family="Arial" font-size="6" fill="#374151" text-anchor="middle">Appliances</text>

    <rect x="30" y="25" width="12" height="10" fill="#6B7280" rx="1"/>
    <rect x="31" y="26" width="10" height="8" fill="#9CA3AF" rx="1"/>
    <text x="36" y="40" font-family="Arial" font-size="6" fill="#374151" text-anchor="middle">HVAC</text>

    <rect x="50" y="25" width="12" height="10" fill="#6B7280" rx="1"/>
    <rect x="51" y="26" width="10" height="8" fill="#9CA3AF" rx="1"/>
    <text x="56" y="40" font-family="Arial" font-size="6" fill="#374151" text-anchor="middle">Plumbing</text>

    <text x="40" y="55" font-family="Arial" font-size="8" fill="#92400E" text-anchor="middle">Repairs &amp; Maintenance</text>
  </g>

  <g transform="translate(270,180)">
    <rect x="0" y="0" width="80" height="60" fill="#DBEAFE" stroke="#3B82F6" stroke-width="2" rx="5"/>
    <text x="40" y="15" font-family="Arial" font-size="12" fill="#1E40AF" text-anchor="middle" font-weight="bold">HOMEOWNERS</text>
    <text x="40" y="25" font-family="Arial" font-size="12" fill="#1E40AF" text-anchor="middle" font-weight="bold">INSURANCE</text>

    <g transform="translate(10,30)">
      <circle cx="0" cy="0" r="4" fill="#EF4444"/>
      <text x="0" y="12" font-family="Arial" font-size="6" fill="#1E40AF" text-anchor="middle">Fire</text>
    </g>

    <g transform="translate(25,30)">
      <circle cx="0" cy="0" r="4" fill="#6B7280"/>
      <text x="0" y="12" font-family="Arial" font-size="6" fill="#1E40AF" text-anchor="middle">Theft</text>
    </g>

    <g transform="translate(40,30)">
      <circle cx="0" cy="0" r="4" fill="#8B5CF6"/>
      <text x="0" y="12" font-family="Arial" font-size="6" fill="#1E40AF" text-anchor="middle">Storm</text>
    </g>

    <g transform="translate(55,30)">
      <circle cx="0" cy="0" r="4" fill="#10B981"/>
      <text x="0" y="12" font-family="Arial" font-size="6" fill="#1E40AF" text-anchor="middle">Liability</text>
    </g>

    <text x="40" y="55" font-family="Arial" font-size="8" fill="#1E40AF" text-anchor="middle">Damage &amp; Loss</text>
  </g>

  <g transform="translate(200,210)">
    <circle cx="0" cy="0" r="15" fill="#F3F4F6" stroke="#6B7280" stroke-width="2"/>
    <text x="0" y="6" font-family="Arial" font-size="14" fill="#374151" text-anchor="middle" font-weight="bold">VS</text>
  </g>

  <g transform="translate(100,150)">
    <rect x="0" y="0" width="2" height="15" fill="#6B7280"/>
    <rect x="5" y="0" width="2" height="12" fill="#6B7280"/>
    <rect x="10" y="0" width="2" height="18" fill="#6B7280"/>
    <text x="6" y="25" font-family="Arial" font-size="8" fill="#6B7280" text-anchor="middle">Tools</text>
  </g>

  <g transform="translate(300,150)">
    <path d="M0 0 L10 5 L10 20 L0 30 L-10 20 L-10 5 Z" fill="#3B82F6" stroke="#1E40AF" stroke-width="1"/>
    <path d="M0 5 L7 9 L7 18 L0 25 L-7 18 L-7 9 Z" fill="#93C5FD"/>
    <text x="0" y="35" font-family="Arial" font-size="8" fill="#1E40AF" text-anchor="middle">Protection</text>
  </g>

  <text x="200" y="280" font-family="Arial" font-size="16" fill="#374151" text-anchor="middle" font-weight="bold">Home Warranty vs Homeowners Insurance</text>
</svg>