<?xml version="1.0" encoding="UTF-8"?>
<svg width="800" height="600" viewBox="0 0 800 600" xmlns="http://www.w3.org/2000/svg">
  <defs>
    <linearGradient id="bgGradient" x1="0%" y1="0%" x2="100%" y2="100%">
      <stop offset="0%" style="stop-color:#1a1a2e;stop-opacity:1" />
      <stop offset="50%" style="stop-color:#16213e;stop-opacity:1" />
      <stop offset="100%" style="stop-color:#6A5ACD;stop-opacity:1" />
    </linearGradient>
    <linearGradient id="humanGradient" x1="0%" y1="0%" x2="100%" y2="100%">
      <stop offset="0%" style="stop-color:#FF6B6B;stop-opacity:1" />
      <stop offset="100%" style="stop-color:#FF8E53;stop-opacity:1" />
    </linearGradient>
    <linearGradient id="aiGradient" x1="0%" y1="0%" x2="100%" y2="100%">
      <stop offset="0%" style="stop-color:#4ECDC4;stop-opacity:1" />
      <stop offset="100%" style="stop-color:#44A08D;stop-opacity:1" />
    </linearGradient>
    <filter id="glow">
      <feGaussianBlur stdDeviation="3" result="coloredBlur"/>
      <feMerge>
        <feMergeNode in="coloredBlur"/>
        <feMergeNode in="SourceGraphic"/>
      </feMerge>
    </filter>
  </defs>

  <rect width="800" height="600" fill="url(#bgGradient)"/>

  <g id="human" transform="translate(250, 300)">

    <circle cx="0" cy="-60" r="25" fill="url(#humanGradient)" stroke="#FF6B6B" stroke-width="2" filter="url(#glow)"/>
    <circle cx="-8" cy="-65" r="3" fill="white"/>
    <circle cx="8" cy="-65" r="3" fill="white"/>
    <circle cx="-8" cy="-65" r="2" fill="black"/>
    <circle cx="8" cy="-65" r="2" fill="black"/>
    <path d="M -8 -50 Q 0 -45 8 -50" stroke="white" stroke-width="2" fill="none"/>

    <rect x="-15" y="-35" width="30" height="50" rx="15" fill="url(#humanGradient)" stroke="#FF6B6B" stroke-width="2"/>

    <rect x="-35" y="-25" width="20" height="8" rx="4" fill="url(#humanGradient)"/>
    <rect x="15" y="-25" width="20" height="8" rx="4" fill="url(#humanGradient)"/>

    <rect x="-12" y="15" width="8" height="25" rx="4" fill="url(#humanGradient)"/>
    <rect x="4" y="15" width="8" height="25" rx="4" fill="url(#humanGradient)"/>

    <text x="0" y="70" font-family="Arial" font-size="12" fill="#FF6B6B" text-anchor="middle" font-weight="bold">Human</text>
    <text x="0" y="85" font-family="Arial" font-size="10" fill="#FF8E53" text-anchor="middle">• Creativity</text>
    <text x="0" y="98" font-family="Arial" font-size="10" fill="#FF8E53" text-anchor="middle">• Empathy</text>
    <text x="0" y="111" font-family="Arial" font-size="10" fill="#FF8E53" text-anchor="middle">• Ethics</text>
  </g>

  <g id="ai" transform="translate(550, 300)">

    <rect x="-20" y="-70" width="40" height="40" rx="8" fill="url(#aiGradient)" stroke="#4ECDC4" stroke-width="2" filter="url(#glow)"/>
    <circle cx="-10" cy="-55" r="4" fill="#1a1a2e"/>
    <circle cx="10" cy="-55" r="4" fill="#1a1a2e"/>
    <rect x="-15" y="-45" width="30" height="4" rx="2" fill="#1a1a2e"/>

    <circle cx="-8" cy="-55" r="2" fill="#4ECDC4"/>
    <circle cx="8" cy="-55" r="2" fill="#4ECDC4"/>
    <circle cx="0" cy="-60" r="2" fill="#44A08D"/>
    <line x1="-8" y1="-55" x2="8" y2="-55" stroke="#4ECDC4" stroke-width="1"/>
    <line x1="-8" y1="-55" x2="0" y2="-60" stroke="#4ECDC4" stroke-width="1"/>
    <line x1="8" y1="-55" x2="0" y2="-60" stroke="#4ECDC4" stroke-width="1"/>

    <rect x="-15" y="-30" width="30" height="50" rx="8" fill="url(#aiGradient)" stroke="#4ECDC4" stroke-width="2"/>

    <rect x="-35" y="-20" width="20" height="6" rx="3" fill="url(#aiGradient)"/>
    <rect x="15" y="-20" width="20" height="6" rx="3" fill="url(#aiGradient)"/>

    <rect x="-12" y="20" width="24" height="20" rx="4" fill="url(#aiGradient)"/>

    <text x="0" y="70" font-family="Arial" font-size="12" fill="#4ECDC4" text-anchor="middle" font-weight="bold">AI</text>
    <text x="0" y="85" font-family="Arial" font-size="10" fill="#44A08D" text-anchor="middle">• Processing</text>
    <text x="0" y="98" font-family="Arial" font-size="10" fill="#44A08D" text-anchor="middle">• Analysis</text>
    <text x="0" y="111" font-family="Arial" font-size="10" fill="#44A08D" text-anchor="middle">• Automation</text>
  </g>

  <g id="collaboration" transform="translate(400, 250)">

    <circle cx="0" cy="0" r="40" fill="rgba(255,255,255,0.1)" stroke="#6A5ACD" stroke-width="3" filter="url(#glow)"/>
    <text x="0" y="8" font-family="Arial" font-size="16" fill="white" text-anchor="middle" font-weight="bold">🤝</text>
    <text x="0" y="60" font-family="Arial" font-size="12" fill="#6A5ACD" text-anchor="middle" font-weight="bold">Collaboration</text>

    <circle cx="-25" cy="-25" r="8" fill="#FF6B6B" opacity="0.8">
      <animate attributeName="opacity" values="0.8;0.3;0.8" dur="2s" repeatCount="indefinite"/>
    </circle>
    <circle cx="25" cy="-25" r="8" fill="#4ECDC4" opacity="0.8">
      <animate attributeName="opacity" values="0.3;0.8;0.3" dur="2s" repeatCount="indefinite"/>
    </circle>
    <circle cx="-25" cy="25" r="8" fill="#FF8E53" opacity="0.8">
      <animate attributeName="opacity" values="0.8;0.3;0.8" dur="2.5s" repeatCount="indefinite"/>
    </circle>
    <circle cx="25" cy="25" r="8" fill="#44A08D" opacity="0.8">
      <animate attributeName="opacity" values="0.3;0.8;0.3" dur="2.5s" repeatCount="indefinite"/>
    </circle>

    <line x1="-40" y1="0" x2="-150" y2="50" stroke="#FF6B6B" stroke-width="3" stroke-dasharray="8,4">
      <animate attributeName="stroke-dasharray" values="8,4;12,0;8,4" dur="2s" repeatCount="indefinite"/>
    </line>
    <line x1="40" y1="0" x2="150" y2="50" stroke="#4ECDC4" stroke-width="3" stroke-dasharray="8,4">
      <animate attributeName="stroke-dasharray" values="0,8;8,12;0,8" dur="2s" repeatCount="indefinite"/>
    </line>
  </g>

  <g id="risk-scenarios" transform="translate(100, 150)">

    <circle cx="0" cy="0" r="20" fill="rgba(255,193,7,0.4)" stroke="#FFC107" stroke-width="2">
      <animate attributeName="opacity" values="0.8;0.4;0.8" dur="2s" repeatCount="indefinite"/>
    </circle>
    <text x="0" y="5" font-family="Arial" font-size="14" fill="white" text-anchor="middle">⚖️</text>
    <text x="0" y="35" font-family="Arial" font-size="10" fill="#FFC107" text-anchor="middle">Liability</text>

    <circle cx="100" cy="0" r="20" fill="rgba(244,67,54,0.4)" stroke="#F44336" stroke-width="2">
      <animate attributeName="opacity" values="0.4;0.8;0.4" dur="2.5s" repeatCount="indefinite"/>
    </circle>
    <text x="100" y="5" font-family="Arial" font-size="14" fill="white" text-anchor="middle">🔓</text>
    <text x="100" y="35" font-family="Arial" font-size="10" fill="#F44336" text-anchor="middle">Data Breach</text>

    <circle cx="200" cy="0" r="20" fill="rgba(255,87,34,0.4)" stroke="#FF5722" stroke-width="2">
      <animate attributeName="opacity" values="0.8;0.4;0.8" dur="1.8s" repeatCount="indefinite"/>
    </circle>
    <text x="200" y="5" font-family="Arial" font-size="14" fill="white" text-anchor="middle">⚡</text>
    <text x="200" y="35" font-family="Arial" font-size="10" fill="#FF5722" text-anchor="middle">Malfunction</text>
  </g>

  <g id="applications" transform="translate(600, 150)">

    <rect x="0" y="0" width="60" height="40" rx="8" fill="rgba(255,255,255,0.1)" stroke="#6A5ACD" stroke-width="2"/>
    <text x="30" y="15" font-family="Arial" font-size="12" fill="white" text-anchor="middle">🏥</text>
    <text x="30" y="30" font-family="Arial" font-size="10" fill="#6A5ACD" text-anchor="middle">Healthcare</text>

    <rect x="0" y="60" width="60" height="40" rx="8" fill="rgba(255,255,255,0.1)" stroke="#6A5ACD" stroke-width="2"/>
    <text x="30" y="75" font-family="Arial" font-size="12" fill="white" text-anchor="middle">🏭</text>
    <text x="30" y="90" font-family="Arial" font-size="10" fill="#6A5ACD" text-anchor="middle">Manufacturing</text>

    <rect x="0" y="120" width="60" height="40" rx="8" fill="rgba(255,255,255,0.1)" stroke="#6A5ACD" stroke-width="2"/>
    <text x="30" y="135" font-family="Arial" font-size="12" fill="white" text-anchor="middle">🎓</text>
    <text x="30" y="150" font-family="Arial" font-size="10" fill="#6A5ACD" text-anchor="middle">Education</text>
  </g>

  <g id="coverage-areas" transform="translate(50, 480)">
    <rect x="0" y="0" width="700" height="100" rx="10" fill="rgba(255,255,255,0.1)" stroke="#6A5ACD" stroke-width="2"/>
    <text x="20" y="20" font-family="Arial" font-size="14" fill="white" font-weight="bold">Human-AI Collaboration Insurance Coverage:</text>

    <text x="20" y="40" font-family="Arial" font-size="12" fill="#FF6B6B">• Shared Decision Liability</text>
    <text x="220" y="40" font-family="Arial" font-size="12" fill="#FF6B6B">• Human Override Errors</text>
    <text x="420" y="40" font-family="Arial" font-size="12" fill="#FF6B6B">• AI Training Bias</text>
    <text x="620" y="40" font-family="Arial" font-size="12" fill="#FF6B6B">• Interface Failures</text>

    <text x="20" y="55" font-family="Arial" font-size="12" fill="#4ECDC4">• Data Co-processing Errors</text>
    <text x="220" y="55" font-family="Arial" font-size="12" fill="#4ECDC4">• Communication Breakdown</text>
    <text x="420" y="55" font-family="Arial" font-size="12" fill="#4ECDC4">• Quality Assurance</text>
    <text x="620" y="55" font-family="Arial" font-size="12" fill="#4ECDC4">• Performance Degradation</text>

    <text x="20" y="70" font-family="Arial" font-size="12" fill="#6A5ACD">• Workflow Disruption</text>
    <text x="220" y="70" font-family="Arial" font-size="12" fill="#6A5ACD">• Skills Gap Issues</text>
    <text x="420" y="70" font-family="Arial" font-size="12" fill="#6A5ACD">• Integration Costs</text>
    <text x="620" y="70" font-family="Arial" font-size="12" fill="#6A5ACD">• Legal Compliance</text>
  </g>

  <text x="400" y="60" font-family="Arial" font-size="28" fill="white" text-anchor="middle" font-weight="bold">Human-AI Collaboration Insurance</text>
  <text x="400" y="90" font-family="Arial" font-size="18" fill="#6A5ACD" text-anchor="middle">Bridging Human Intelligence &amp; Artificial Intelligence</text>

  <g id="synergy">
    <path d="M 300 200 Q 400 150 500 200" stroke="#6A5ACD" stroke-width="3" fill="none" opacity="0.6">
      <animate attributeName="opacity" values="0.6;1;0.6" dur="3s" repeatCount="indefinite"/>
    </path>
    <circle cx="400" cy="175" r="5" fill="#6A5ACD">
      <animate attributeName="r" values="5;8;5" dur="2s" repeatCount="indefinite"/>
    </circle>
  </g>
</svg>