<?xml version="1.0" encoding="UTF-8"?>
<svg viewBox="0 0 400 300" xmlns="http://www.w3.org/2000/svg">
  <defs>
    <linearGradient id="digitalBg" x1="0%" y1="0%" x2="100%" y2="100%">
      <stop offset="0%" style="stop-color:#1F2937;stop-opacity:1" />
      <stop offset="100%" style="stop-color:#374151;stop-opacity:1" />
    </linearGradient>
    <radialGradient id="alertGlow" cx="50%" cy="50%" r="50%">
      <stop offset="0%" style="stop-color:#EF4444;stop-opacity:0.5" />
      <stop offset="100%" style="stop-color:#DC2626;stop-opacity:0.1" />
    </radialGradient>
  </defs>

  <rect width="400" height="300" fill="url(#digitalBg)"/>

  <g opacity="0.1">
    <text x="20" y="20" font-family="monospace" font-size="8" fill="#9CA3AF">110010110100101</text>
    <text x="20" y="40" font-family="monospace" font-size="8" fill="#9CA3AF">010110010110101</text>
    <text x="20" y="60" font-family="monospace" font-size="8" fill="#9CA3AF">101100101101001</text>
    <text x="20" y="80" font-family="monospace" font-size="8" fill="#9CA3AF">011010010110100</text>
    <text x="220" y="20" font-family="monospace" font-size="8" fill="#9CA3AF">101100101101001</text>
    <text x="220" y="40" font-family="monospace" font-size="8" fill="#9CA3AF">011010010110100</text>
    <text x="220" y="60" font-family="monospace" font-size="8" fill="#9CA3AF">110010110100101</text>
    <text x="220" y="80" font-family="monospace" font-size="8" fill="#9CA3AF">010110010110101</text>
  </g>

  <g transform="translate(100,120)">
    <circle cx="0" cy="0" r="15" fill="#6B7280"/>
    <ellipse cx="0" cy="30" rx="18" ry="25" fill="#6B7280"/>
    <ellipse cx="-12" cy="35" rx="6" ry="20" fill="#6B7280"/>
    <ellipse cx="12" cy="35" rx="6" ry="20" fill="#6B7280"/>
    <ellipse cx="-8" cy="65" rx="6" ry="25" fill="#6B7280"/>
    <ellipse cx="8" cy="65" rx="6" ry="25" fill="#6B7280"/>

    <text x="-25" y="-5" font-family="Arial" font-size="16" fill="#EF4444" font-weight="bold">?</text>
    <text x="25" y="10" font-family="Arial" font-size="14" fill="#EF4444" font-weight="bold">?</text>
    <text x="-20" y="25" font-family="Arial" font-size="12" fill="#EF4444" font-weight="bold">?</text>
  </g>

  <g transform="translate(250,100)">
    <rect x="0" y="0" width="50" height="30" rx="3" fill="#3B82F6"/>
    <rect x="2" y="2" width="46" height="26" rx="2" fill="#60A5FA"/>
    <rect x="5" y="8" width="40" height="4" fill="#1E40AF"/>
    <rect x="5" y="15" width="15" height="3" fill="#1E40AF"/>
    <rect x="5" y="20" width="25" height="3" fill="#1E40AF"/>

    <ellipse cx="60" cy="15" rx="8" ry="12" fill="#4B5563"/>
    <ellipse cx="68" cy="15" rx="4" ry="8" fill="#4B5563"/>

    <rect x="70" y="5" width="8" height="4" fill="#22C55E"/>
    <text x="74" y="8" font-family="Arial" font-size="6" fill="white" text-anchor="middle">$</text>
    <rect x="85" y="0" width="8" height="4" fill="#22C55E"/>
    <text x="89" y="3" font-family="Arial" font-size="6" fill="white" text-anchor="middle">$</text>
    <rect x="75" y="20" width="8" height="4" fill="#22C55E"/>
    <text x="79" y="23" font-family="Arial" font-size="6" fill="white" text-anchor="middle">$</text>
  </g>

  <g transform="translate(300,150)">
    <rect x="0" y="0" width="40" height="25" rx="2" fill="#374151"/>
    <rect x="2" y="2" width="36" height="21" rx="1" fill="#111827"/>
    <rect x="4" y="4" width="32" height="17" rx="1" fill="#EF4444"/>

    <text x="20" y="14" font-family="Arial" font-size="8" fill="white" text-anchor="middle">ALERT!</text>
    <text x="20" y="20" font-family="Arial" font-size="6" fill="white" text-anchor="middle">ID STOLEN</text>

    <rect x="5" y="27" width="30" height="8" rx="1" fill="#374151"/>
    <rect x="7" y="29" width="26" height="4" rx="0.5" fill="#4B5563"/>
  </g>

  <g transform="translate(50,180)">
    <rect x="0" y="0" width="25" height="35" rx="2" fill="#F3F4F6"/>
    <rect x="2" y="2" width="21" height="31" rx="1" fill="#FFFFFF"/>
    <rect x="4" y="4" width="17" height="3" fill="#3B82F6"/>
    <rect x="4" y="9" width="12" height="2" fill="#6B7280"/>
    <rect x="4" y="13" width="15" height="2" fill="#6B7280"/>
    <rect x="4" y="17" width="10" height="2" fill="#6B7280"/>
    <text x="12.5" y="30" font-family="Arial" font-size="6" fill="#374151" text-anchor="middle">SSN</text>

    <path d="M30 10 L30 5 Q30 2 32.5 2 Q35 2 35 5 L35 10" fill="none" stroke="#EF4444" stroke-width="2" stroke-dasharray="2,2"/>
    <rect x="28" y="10" width="7" height="8" rx="1" fill="#EF4444"/>
    <text x="31.5" y="16" font-family="Arial" font-size="8" fill="white" text-anchor="middle">X</text>
  </g>

  <g transform="translate(200,180)">
    <circle cx="0" cy="0" r="25" fill="#DBEAFE"/>
    <path d="M0 -20 L15 -12 L15 8 L0 20 L-15 8 L-15 -12 Z" fill="#3B82F6" stroke="#1E40AF" stroke-width="2"/>
    <path d="M0 -12 L10 -6 L10 6 L0 15 L-10 6 L-10 -6 Z" fill="#93C5FD"/>

    <path d="M-5 2 L-1 6 L8 -5" stroke="#1E40AF" stroke-width="3" fill="none" stroke-linecap="round" stroke-linejoin="round"/>
  </g>

  <circle cx="150" cy="80" r="3" fill="#F59E0B">
    <animate attributeName="r" values="3;6;3" dur="2s" repeatCount="indefinite"/>
    <animate attributeName="opacity" values="1;0.5;1" dur="2s" repeatCount="indefinite"/>
  </circle>
  <circle cx="280" cy="60" r="3" fill="#EF4444">
    <animate attributeName="r" values="3;6;3" dur="1.5s" repeatCount="indefinite"/>
    <animate attributeName="opacity" values="1;0.5;1" dur="1.5s" repeatCount="indefinite"/>
  </circle>

  <g transform="translate(350,100)">
    <rect x="0" y="0" width="30" height="20" rx="2" fill="#6B7280"/>
    <rect x="2" y="2" width="26" height="16" rx="1" fill="#374151"/>
    <rect x="4" y="4" width="22" height="12" rx="1" fill="#111827"/>

    <path d="M10 4 L15 8 L12 12 L18 16" stroke="#EF4444" stroke-width="2" fill="none"/>
    <circle cx="10" cy="4" r="1" fill="#EF4444"/>
    <circle cx="15" cy="8" r="1" fill="#EF4444"/>
    <circle cx="12" cy="12" r="1" fill="#EF4444"/>
    <circle cx="18" cy="16" r="1" fill="#EF4444"/>
  </g>

  <text x="200" y="280" font-family="Arial" font-size="16" fill="#E5E7EB" text-anchor="middle" font-weight="bold">Identity Theft Protection</text>
</svg>