<?xml version="1.0" encoding="UTF-8"?>
<svg viewBox="0 0 400 300" xmlns="http://www.w3.org/2000/svg">
  <defs>
    <linearGradient id="oceanGradient" x1="0%" y1="0%" x2="0%" y2="100%">
      <stop offset="0%" style="stop-color:#0EA5E9;stop-opacity:1" />
      <stop offset="100%" style="stop-color:#0369A1;stop-opacity:1" />
    </linearGradient>
    <linearGradient id="skyGradient" x1="0%" y1="0%" x2="0%" y2="100%">
      <stop offset="0%" style="stop-color:#7DD3FC;stop-opacity:1" />
      <stop offset="100%" style="stop-color:#38BDF8;stop-opacity:1" />
    </linearGradient>
    <linearGradient id="shipGradient" x1="0%" y1="0%" x2="0%" y2="100%">
      <stop offset="0%" style="stop-color:#64748B;stop-opacity:1" />
      <stop offset="100%" style="stop-color:#475569;stop-opacity:1" />
    </linearGradient>
  </defs>

  <rect x="0" y="0" width="400" height="150" fill="url(#skyGradient)"/>

  <rect x="0" y="150" width="400" height="150" fill="url(#oceanGradient)"/>

  <path d="M0 160 Q50 155 100 160 T200 160 T300 160 T400 160" stroke="#0284C7" stroke-width="2" fill="none" opacity="0.7"/>
  <path d="M0 170 Q50 165 100 170 T200 170 T300 170 T400 170" stroke="#0284C7" stroke-width="2" fill="none" opacity="0.5"/>
  <path d="M0 180 Q50 175 100 180 T200 180 T300 180 T400 180" stroke="#0284C7" stroke-width="2" fill="none" opacity="0.3"/>

  <g transform="translate(150,180)">

    <ellipse cx="0" cy="0" rx="80" ry="15" fill="url(#shipGradient)"/>
    <ellipse cx="0" cy="-2" rx="75" ry="12" fill="#64748B"/>

    <rect x="-75" y="-15" width="150" height="8" fill="#475569"/>

    <rect x="-60" y="-35" width="15" height="20" fill="#EF4444"/>
    <rect x="-42" y="-35" width="15" height="20" fill="#3B82F6"/>
    <rect x="-24" y="-35" width="15" height="20" fill="#22C55E"/>
    <rect x="-6" y="-35" width="15" height="20" fill="#F59E0B"/>
    <rect x="12" y="-35" width="15" height="20" fill="#8B5CF6"/>
    <rect x="30" y="-35" width="15" height="20" fill="#EF4444"/>

    <rect x="-50" y="-55" width="15" height="20" fill="#06B6D4"/>
    <rect x="-32" y="-55" width="15" height="20" fill="#F97316"/>
    <rect x="-14" y="-55" width="15" height="20" fill="#84CC16"/>
    <rect x="4" y="-55" width="15" height="20" fill="#EC4899"/>
    <rect x="22" y="-55" width="15" height="20" fill="#6366F1"/>

    <rect x="50" y="-40" width="20" height="25" fill="#374151"/>
    <rect x="52" y="-38" width="16" height="21" fill="#4B5563"/>
    <rect x="54" y="-35" width="4" height="3" fill="#F0F8FF"/>
    <rect x="60" y="-35" width="4" height="3" fill="#F0F8FF"/>
    <rect x="54" y="-30" width="4" height="3" fill="#F0F8FF"/>
    <rect x="60" y="-30" width="4" height="3" fill="#F0F8FF"/>

    <rect x="40" y="-50" width="6" height="20" fill="#DC2626"/>
    <rect x="41" y="-49" width="4" height="18" fill="#EF4444"/>

    <circle cx="43" cy="-55" r="3" fill="#9CA3AF" opacity="0.6"/>
    <circle cx="45" cy="-62" r="4" fill="#9CA3AF" opacity="0.4"/>
    <circle cx="47" cy="-70" r="3" fill="#9CA3AF" opacity="0.3"/>

    <rect x="-20" y="-60" width="3" height="30" fill="#374151"/>
    <rect x="-35" y="-62" width="30" height="2" fill="#374151"/>
    <rect x="-32" y="-60" width="2" height="8" fill="#374151"/>
    <rect x="-25" y="-68" width="2" height="8" fill="#374151"/>
  </g>

  <circle cx="80" cy="40" r="15" fill="#FFFFFF" opacity="0.8"/>
  <circle cx="95" cy="35" r="18" fill="#FFFFFF" opacity="0.8"/>
  <circle cx="110" cy="40" r="12" fill="#FFFFFF" opacity="0.8"/>

  <circle cx="300" cy="50" r="12" fill="#FFFFFF" opacity="0.7"/>
  <circle cx="315" cy="45" r="15" fill="#FFFFFF" opacity="0.7"/>
  <circle cx="330" cy="50" r="10" fill="#FFFFFF" opacity="0.7"/>

  <g transform="translate(350,150)">
    <rect x="0" y="0" width="50" height="80" fill="#4B5563"/>
    <rect x="2" y="2" width="46" height="76" fill="#6B7280"/>

    <rect x="10" y="0" width="4" height="40" fill="#374151"/>
    <rect x="5" y="2" width="14" height="3" fill="#374151"/>
    <rect x="8" y="0" width="3" height="8" fill="#374151"/>

    <rect x="25" y="50" width="8" height="12" fill="#EF4444"/>
    <rect x="35" y="50" width="8" height="12" fill="#3B82F6"/>
    <rect x="25" y="38" width="8" height="12" fill="#22C55E"/>
    <rect x="35" y="38" width="8" height="12" fill="#F59E0B"/>
  </g>

  <g transform="translate(50,120)">
    <rect x="0" y="0" width="8" height="50" fill="#E5E7EB"/>
    <rect x="1" y="1" width="6" height="48" fill="#F3F4F6"/>
    <rect x="2" y="10" width="4" height="2" fill="#374151"/>
    <rect x="2" y="20" width="4" height="2" fill="#374151"/>
    <rect x="2" y="30" width="4" height="2" fill="#374151"/>
    <rect x="2" y="40" width="4" height="2" fill="#374151"/>

    <circle cx="4" cy="-5" r="6" fill="#FCD34D"/>
    <circle cx="4" cy="-5" r="4" fill="#FBBF24"/>
    <circle cx="4" cy="-5" r="2" fill="#F59E0B"/>

    <path d="M4 -5 L100 -20 L100 10 Z" fill="#FCD34D" opacity="0.2"/>
  </g>

  <g transform="translate(100,50)">
    <path d="M0 0 L15 8 L15 30 L0 45 L-15 30 L-15 8 Z" fill="#0EA5E9" stroke="#0369A1" stroke-width="2"/>
    <path d="M0 5 L10 12 L10 28 L0 38 L-10 28 L-10 12 Z" fill="#7DD3FC"/>

    <circle cx="0" cy="15" r="3" fill="#0369A1"/>
    <rect x="-1" y="12" width="2" height="15" fill="#0369A1"/>
    <path d="M-6 23 L-3 26 L3 26 L6 23" stroke="#0369A1" stroke-width="2" fill="none"/>
    <rect x="-8" y="12" width="16" height="2" fill="#0369A1"/>
  </g>

  <g transform="translate(300,80)">
    <circle cx="0" cy="0" r="15" fill="#10B981"/>
    <circle cx="0" cy="0" r="12" fill="#34D399"/>
    <text x="0" y="4" font-family="Arial" font-size="10" fill="white" text-anchor="middle" font-weight="bold">$</text>
    <text x="0" y="25" font-family="Arial" font-size="8" fill="#059669" text-anchor="middle">Trade</text>
  </g>

  <g transform="translate(320,200)">
    <circle cx="0" cy="0" r="12" fill="#F3F4F6" stroke="#6B7280" stroke-width="2"/>
    <circle cx="0" cy="0" r="8" fill="#FFFFFF"/>
    <path d="M0 -8 L3 0 L0 8 L-3 0 Z" fill="#EF4444"/>
    <text x="0" y="20" font-family="Arial" font-size="6" fill="#6B7280" text-anchor="middle">N</text>
  </g>

  <text x="200" y="280" font-family="Arial" font-size="16" fill="#F0F8FF" text-anchor="middle" font-weight="bold">Marine Insurance &amp; Global Trade</text>
</svg>