<?xml version="1.0" encoding="UTF-8"?>
<svg viewBox="0 0 400 300" xmlns="http://www.w3.org/2000/svg">
  <defs>
    <linearGradient id="skyGradient" x1="0%" y1="0%" x2="0%" y2="100%">
      <stop offset="0%" style="stop-color:#87CEEB;stop-opacity:1" />
      <stop offset="100%" style="stop-color:#E0F6FF;stop-opacity:1" />
    </linearGradient>
    <linearGradient id="planeGradient" x1="0%" y1="0%" x2="100%" y2="0%">
      <stop offset="0%" style="stop-color:#4A90E2;stop-opacity:1" />
      <stop offset="100%" style="stop-color:#357ABD;stop-opacity:1" />
    </linearGradient>
  </defs>

  <rect width="400" height="300" fill="url(#skyGradient)"/>

  <circle cx="80" cy="50" r="20" fill="#FFFFFF" opacity="0.8"/>
  <circle cx="100" cy="45" r="25" fill="#FFFFFF" opacity="0.8"/>
  <circle cx="120" cy="50" r="18" fill="#FFFFFF" opacity="0.8"/>

  <circle cx="280" cy="70" r="15" fill="#FFFFFF" opacity="0.7"/>
  <circle cx="295" cy="65" r="20" fill="#FFFFFF" opacity="0.7"/>
  <circle cx="310" cy="70" r="12" fill="#FFFFFF" opacity="0.7"/>

  <g transform="translate(200,150)">
    <ellipse cx="0" cy="0" rx="40" ry="8" fill="url(#planeGradient)"/>
    <ellipse cx="-15" cy="-12" rx="12" ry="3" fill="url(#planeGradient)"/>
    <ellipse cx="-15" cy="12" rx="12" ry="3" fill="url(#planeGradient)"/>
    <ellipse cx="25" cy="-5" rx="8" ry="2" fill="url(#planeGradient)"/>
    <ellipse cx="25" cy="5" rx="8" ry="2" fill="url(#planeGradient)"/>
    <circle cx="30" cy="0" r="3" fill="#FF6B6B"/>
    <circle cx="25" cy="0" r="2" fill="#4A90E2"/>
  </g>

  <g transform="translate(100,220)">
    <rect x="0" y="0" width="30" height="20" rx="3" fill="#8B4513"/>
    <rect x="2" y="2" width="26" height="16" rx="2" fill="#A0522D"/>
    <rect x="12" y="-3" width="6" height="6" rx="1" fill="#654321"/>
    <circle cx="8" cy="25" r="4" fill="#333"/>
    <circle cx="22" cy="25" r="4" fill="#333"/>
  </g>

  <g transform="translate(300,210)">
    <rect x="0" y="0" width="20" height="25" rx="2" fill="#8B0000"/>
    <rect x="2" y="2" width="16" height="21" rx="1" fill="#DC143C"/>
    <rect x="4" y="4" width="12" height="8" rx="1" fill="#FFD700"/>
    <rect x="4" y="14" width="12" height="2" fill="#FFD700"/>
    <rect x="4" y="18" width="8" height="1" fill="#FFD700"/>
    <rect x="4" y="20" width="10" height="1" fill="#FFD700"/>
  </g>

  <g transform="translate(50,100)">
    <path d="M15 5 L25 10 L25 25 L15 35 L5 25 L5 10 Z" fill="#4CAF50" stroke="#2E7D32" stroke-width="2"/>
    <path d="M15 10 L20 15 L15 25 L10 15 Z" fill="#81C784"/>
    <text x="15" y="22" font-family="Arial" font-size="12" fill="white" text-anchor="middle" font-weight="bold">✓</text>
  </g>

  <g transform="translate(320,120)">
    <circle cx="0" cy="0" r="12" fill="#FF5722"/>
    <circle cx="0" cy="0" r="8" fill="#FF8A65"/>
    <circle cx="0" cy="0" r="4" fill="#FFFFFF"/>
    <path d="M0 12 L-6 24 L6 24 Z" fill="#FF5722"/>
  </g>

  <text x="200" y="280" font-family="Arial" font-size="16" fill="#2C3E50" text-anchor="middle" font-weight="bold">Travel Insurance Protection</text>
</svg>