<?xml version="1.0" encoding="UTF-8"?>
<svg width="800" height="600" viewBox="0 0 800 600" xmlns="http://www.w3.org/2000/svg">

  <defs>
    <linearGradient id="bgGradient" x1="0%" y1="0%" x2="100%" y2="100%">
      <stop offset="0%" style="stop-color:#1a1a2e;stop-opacity:1" />
      <stop offset="50%" style="stop-color:#16213e;stop-opacity:1" />
      <stop offset="100%" style="stop-color:#0f3460;stop-opacity:1" />
    </linearGradient>

    <linearGradient id="dataGradient" x1="0%" y1="0%" x2="100%" y2="0%">
      <stop offset="0%" style="stop-color:#00ff88;stop-opacity:0.3" />
      <stop offset="50%" style="stop-color:#0088ff;stop-opacity:0.6" />
      <stop offset="100%" style="stop-color:#ff0088;stop-opacity:0.3" />
    </linearGradient>

    <filter id="glow">
      <feGaussianBlur stdDeviation="3" result="coloredBlur"/>
      <feMerge>
        <feMergeNode in="coloredBlur"/>
        <feMergeNode in="SourceGraphic"/>
      </feMerge>
    </filter>
  </defs>

  <rect width="800" height="600" fill="url(#bgGradient)"/>

  <rect x="50" y="50" width="700" height="500" rx="15" fill="rgba(255,255,255,0.05)" stroke="rgba(255,255,255,0.2)" stroke-width="2"/>

  <text x="70" y="90" font-family="'Courier New', monospace" font-size="36" fill="#00ff88" font-weight="bold">{</text>

  <text x="90" y="130" font-family="'Courier New', monospace" font-size="20" fill="#ffaa00">"posts":</text>
  <text x="170" y="130" font-family="'Courier New', monospace" font-size="20" fill="#00ff88">[</text>

  <g id="postIcons">

    <g transform="translate(100, 160)">

      <rect x="0" y="0" width="80" height="60" rx="8" fill="rgba(106,90,205,0.2)" stroke="#6A5ACD" stroke-width="1"/>
      <circle cx="40" cy="30" r="15" fill="#6A5ACD"/>
      <text x="40" y="35" font-family="Arial" font-size="10" fill="white" text-anchor="middle">DAO</text>

      <rect x="100" y="0" width="80" height="60" rx="8" fill="rgba(255,105,180,0.2)" stroke="#FF69B4" stroke-width="1"/>
      <rect x="130" y="15" width="20" height="15" fill="#FF69B4"/>
      <rect x="130" y="35" width="20" height="15" fill="rgba(255,105,180,0.5)"/>
      <text x="140" y="52" font-family="Arial" font-size="8" fill="white" text-anchor="middle">AI</text>

      <rect x="200" y="0" width="80" height="60" rx="8" fill="rgba(34,139,34,0.2)" stroke="#228B22" stroke-width="1"/>
      <rect x="220" y="15" width="4" height="30" fill="#228B22"/>
      <rect x="230" y="20" width="4" height="25" fill="#228B22"/>
      <rect x="240" y="10" width="4" height="35" fill="#228B22"/>
      <rect x="250" y="18" width="4" height="27" fill="#228B22"/>

      <rect x="300" y="0" width="80" height="60" rx="8" fill="rgba(75,0,130,0.2)" stroke="#4B0082" stroke-width="1"/>
      <circle cx="340" cy="30" r="12" fill="none" stroke="#4B0082" stroke-width="2"/>
      <circle cx="340" cy="30" r="6" fill="#4B0082"/>
      <text x="340" y="52" font-family="Arial" font-size="8" fill="white" text-anchor="middle">Q</text>

      <rect x="400" y="0" width="80" height="60" rx="8" fill="rgba(0,123,255,0.2)" stroke="#007BFF" stroke-width="1"/>
      <circle cx="440" cy="25" r="10" fill="#007BFF"/>
      <path d="M 430 35 Q 440 45 450 35" stroke="#007BFF" stroke-width="2" fill="none"/>

      <rect x="500" y="0" width="80" height="60" rx="8" fill="rgba(70,130,180,0.2)" stroke="#4682B4" stroke-width="1"/>
      <circle cx="540" cy="30" r="8" fill="#4682B4"/>
      <circle cx="525" cy="25" r="2" fill="#4682B4"/>
      <circle cx="555" cy="35" r="2" fill="#4682B4"/>
      <circle cx="530" cy="40" r="1" fill="#4682B4"/>
    </g>

    <g transform="translate(100, 240)">

      <rect x="0" y="0" width="80" height="60" rx="8" fill="rgba(255,99,71,0.2)" stroke="#FF6347" stroke-width="1"/>
      <rect x="20" y="15" width="40" height="25" fill="none" stroke="#FF6347" stroke-width="2"/>
      <circle cx="30" cy="35" r="3" fill="#FF6347"/>
      <circle cx="50" cy="25" r="3" fill="#FF6347"/>

      <rect x="100" y="0" width="80" height="60" rx="8" fill="rgba(255,165,0,0.2)" stroke="#FFA500" stroke-width="1"/>
      <ellipse cx="140" cy="35" rx="15" ry="10" fill="#FFA500"/>
      <circle cx="135" cy="30" r="3" fill="white"/>
      <circle cx="145" cy="30" r="3" fill="white"/>

      <rect x="200" y="0" width="80" height="60" rx="8" fill="rgba(0,128,128,0.2)" stroke="#008080" stroke-width="1"/>
      <rect x="220" y="20" width="40" height="20" fill="none" stroke="#008080" stroke-width="2"/>
      <rect x="235" y="25" width="10" height="5" fill="#008080"/>
      <circle cx="240" cy="32" r="2" fill="#008080"/>

      <rect x="300" y="0" width="80" height="60" rx="8" fill="rgba(128,0,128,0.2)" stroke="#800080" stroke-width="1"/>
      <rect x="320" y="15" width="20" height="30" fill="none" stroke="#800080" stroke-width="2"/>
      <circle cx="330" cy="20" r="5" fill="#800080"/>
      <rect x="325" y="25" width="10" height="15" fill="#800080"/>

      <rect x="400" y="0" width="80" height="60" rx="8" fill="rgba(46,139,87,0.2)" stroke="#2E8B57" stroke-width="1"/>
      <rect x="420" y="25" width="40" height="20" fill="none" stroke="#2E8B57" stroke-width="2"/>
      <polygon points="420,25 440,15 460,25" fill="#2E8B57"/>

      <rect x="500" y="0" width="80" height="60" rx="8" fill="rgba(139,69,19,0.2)" stroke="#8B4513" stroke-width="1"/>
      <rect x="520" y="20" width="40" height="25" fill="none" stroke="#8B4513" stroke-width="2"/>
      <rect x="525" y="25" width="8" height="15" fill="#8B4513"/>
      <rect x="537" y="25" width="8" height="15" fill="#8B4513"/>
      <rect x="549" y="25" width="8" height="15" fill="#8B4513"/>
    </g>

    <g transform="translate(100, 320)">

      <rect x="0" y="0" width="80" height="60" rx="8" fill="rgba(0,191,255,0.2)" stroke="#00BFFF" stroke-width="1"/>
      <path d="M 20 35 Q 40 20 60 35" stroke="#00BFFF" stroke-width="2" fill="none"/>
      <polygon points="35,15 40,25 45,15" fill="#00BFFF"/>

      <rect x="100" y="0" width="80" height="60" rx="8" fill="rgba(30,144,255,0.2)" stroke="#1E90FF" stroke-width="1"/>
      <path d="M 120 40 Q 130 30 140 40 Q 150 30 160 40" stroke="#1E90FF" stroke-width="2" fill="none"/>
      <circle cx="140" cy="25" r="8" fill="rgba(30,144,255,0.3)"/>

      <rect x="200" y="0" width="80" height="60" rx="8" fill="rgba(220,20,60,0.2)" stroke="#DC143C" stroke-width="1"/>
      <rect x="220" y="15" width="40" height="30" fill="none" stroke="#DC143C" stroke-width="2"/>
      <circle cx="240" cy="25" r="5" fill="#DC143C"/>
      <rect x="235" y="32" width="10" height="8" fill="#DC143C"/>

      <rect x="300" y="0" width="80" height="60" rx="8" fill="rgba(255,193,7,0.2)" stroke="#FFC107" stroke-width="1"/>
      <rect x="320" y="20" width="40" height="20" fill="none" stroke="#FFC107" stroke-width="2"/>
      <text x="340" y="35" font-family="Arial" font-size="12" fill="#FFC107" text-anchor="middle">$</text>

      <rect x="400" y="0" width="80" height="60" rx="8" fill="rgba(255,69,0,0.2)" stroke="#FF4500" stroke-width="1"/>
      <rect x="420" y="20" width="40" height="20" fill="none" stroke="#FF4500" stroke-width="2"/>
      <circle cx="430" cy="25" r="3" fill="#FF4500"/>
      <rect x="435" y="22" width="20" height="6" fill="#FF4500"/>

      <rect x="500" y="0" width="80" height="60" rx="8" fill="rgba(138,43,226,0.2)" stroke="#8A2BE2" stroke-width="1"/>
      <path d="M 520 35 Q 540 20 560 35" stroke="#8A2BE2" stroke-width="3" fill="none"/>
      <rect x="538" y="35" width="4" height="15" fill="#8A2BE2"/>
    </g>
  </g>

  <g id="dataFlow" stroke="url(#dataGradient)" stroke-width="2" fill="none" opacity="0.6">
    <path d="M 100 420 Q 200 400 300 420 Q 400 440 500 420 Q 600 400 700 420">
      <animate attributeName="stroke-dasharray" values="0,20;20,0;0,20" dur="3s" repeatCount="indefinite"/>
    </path>
    <path d="M 150 440 Q 250 420 350 440 Q 450 460 550 440 Q 650 420 750 440">
      <animate attributeName="stroke-dasharray" values="10,20;30,0;10,20" dur="4s" repeatCount="indefinite"/>
    </path>
  </g>

  <g id="stats" transform="translate(100, 460)">
    <text x="0" y="0" font-family="Arial" font-size="14" fill="#00ff88">Total Posts: 80+</text>
    <text x="150" y="0" font-family="Arial" font-size="14" fill="#ffaa00">Categories: 15+</text>
    <text x="300" y="0" font-family="Arial" font-size="14" fill="#ff0088">Technologies: AI, Blockchain, IoT</text>
  </g>

  <text x="170" y="500" font-family="'Courier New', monospace" font-size="20" fill="#00ff88">]</text>
  <text x="70" y="530" font-family="'Courier New', monospace" font-size="36" fill="#00ff88" font-weight="bold">}</text>

  <text x="400" y="40" font-family="Arial" font-size="24" fill="white" text-anchor="middle" font-weight="bold">Insurance Blog Posts Collection</text>

  <g id="particles">
    <circle cx="150" cy="100" r="2" fill="#00ff88" opacity="0.8">
      <animate attributeName="opacity" values="0.8;0.3;0.8" dur="2s" repeatCount="indefinite"/>
    </circle>
    <circle cx="650" cy="150" r="2" fill="#ff0088" opacity="0.8">
      <animate attributeName="opacity" values="0.3;0.8;0.3" dur="2.5s" repeatCount="indefinite"/>
    </circle>
    <circle cx="250" cy="480" r="2" fill="#ffaa00" opacity="0.8">
      <animate attributeName="opacity" values="0.8;0.3;0.8" dur="3s" repeatCount="indefinite"/>
    </circle>
    <circle cx="550" cy="120" r="2" fill="#0088ff" opacity="0.8">
      <animate attributeName="opacity" values="0.3;0.8;0.3" dur="1.8s" repeatCount="indefinite"/>
    </circle>
  </g>

  <rect x="50" y="50" width="700" height="500" rx="15" fill="none" stroke="rgba(255,255,255,0.1)" stroke-width="1" filter="url(#glow)"/>
</svg>