<?xml version="1.0" encoding="UTF-8"?>
<svg viewBox="0 0 400 300" xmlns="http://www.w3.org/2000/svg">
  <defs>
    <linearGradient id="officeGradient" x1="0%" y1="0%" x2="0%" y2="100%">
      <stop offset="0%" style="stop-color:#F8FAFC;stop-opacity:1" />
      <stop offset="100%" style="stop-color:#E2E8F0;stop-opacity:1" />
    </linearGradient>
    <linearGradient id="deskGradient" x1="0%" y1="0%" x2="0%" y2="100%">
      <stop offset="0%" style="stop-color:#92400E;stop-opacity:1" />
      <stop offset="100%" style="stop-color:#78350F;stop-opacity:1" />
    </linearGradient>
  </defs>

  <rect width="400" height="300" fill="url(#officeGradient)"/>

  <rect x="50" y="30" width="80" height="60" fill="#E0F2FE" stroke="#0369A1" stroke-width="2"/>
  <line x1="90" y1="30" x2="90" y2="90" stroke="#0369A1" stroke-width="1"/>
  <line x1="50" y1="60" x2="130" y2="60" stroke="#0369A1" stroke-width="1"/>

  <g transform="translate(200,150)">

    <rect x="-40" y="20" width="80" height="40" fill="url(#deskGradient)"/>
    <rect x="-38" y="22" width="76" height="36" fill="#A16207"/>

    <rect x="-15" y="0" width="30" height="20" fill="#4B5563"/>
    <rect x="-12" y="2" width="24" height="16" fill="#6B7280"/>
    <rect x="-5" y="-15" width="10" height="18" fill="#4B5563"/>
    <rect x="-3" y="-13" width="6" height="14" fill="#6B7280"/>

    <circle cx="0" cy="-30" r="8" fill="#FBBF24"/>
    <ellipse cx="0" cy="-10" rx="12" ry="15" fill="#3B82F6"/>
    <ellipse cx="-8" cy="-8" rx="4" ry="12" fill="#3B82F6"/>
    <ellipse cx="8" cy="-8" rx="4" ry="12" fill="#3B82F6"/>
    <ellipse cx="-6" cy="15" rx="4" ry="15" fill="#1E40AF"/>
    <ellipse cx="6" cy="15" rx="4" ry="15" fill="#1E40AF"/>

    <rect x="-15" y="15" width="30" height="2" fill="#374151"/>
    <rect x="-12" y="8" width="24" height="15" fill="#374151"/>
    <rect x="-10" y="10" width="20" height="11" fill="#111827"/>
    <rect x="-8" y="12" width="16" height="7" fill="#3B82F6"/>

    <rect x="20" y="25" width="15" height="20" fill="#FFFFFF"/>
    <rect x="21" y="26" width="13" height="18" fill="#F8FAFC"/>
    <rect x="22" y="28" width="11" height="2" fill="#3B82F6"/>
    <rect x="22" y="32" width="8" height="1" fill="#6B7280"/>
    <rect x="22" y="35" width="10" height="1" fill="#6B7280"/>
    <rect x="22" y="38" width="7" height="1" fill="#6B7280"/>

    <rect x="-35" y="25" width="12" height="15" fill="#374151"/>
    <rect x="-34" y="26" width="10" height="5" fill="#111827"/>
    <rect x="-33" y="32" width="2" height="2" fill="#6B7280"/>
    <rect x="-30" y="32" width="2" height="2" fill="#6B7280"/>
    <rect x="-27" y="32" width="2" height="2" fill="#6B7280"/>
    <rect x="-33" y="35" width="2" height="2" fill="#6B7280"/>
    <rect x="-30" y="35" width="2" height="2" fill="#6B7280"/>
    <rect x="-27" y="35" width="2" height="2" fill="#6B7280"/>
  </g>

  <g transform="translate(80,200)">
    <rect x="0" y="0" width="20" height="30" fill="#FFFFFF" stroke="#6B7280" stroke-width="1"/>
    <rect x="1" y="1" width="18" height="28" fill="#F8FAFC"/>
    <rect x="2" y="3" width="16" height="2" fill="#DC2626"/>
    <rect x="2" y="7" width="12" height="1" fill="#374151"/>
    <rect x="2" y="10" width="14" height="1" fill="#374151"/>
    <rect x="2" y="13" width="10" height="1" fill="#374151"/>
    <rect x="2" y="16" width="16" height="1" fill="#374151"/>
    <rect x="2" y="19" width="8" height="1" fill="#374151"/>
    <rect x="2" y="22" width="12" height="1" fill="#374151"/>
    <rect x="2" y="25" width="14" height="1" fill="#374151"/>
    <text x="10" y="38" font-family="Arial" font-size="6" fill="#374151" text-anchor="middle">CONTRACT</text>
  </g>

  <g transform="translate(320,180)">
    <rect x="0" y="0" width="20" height="6" fill="#92400E"/>
    <rect x="1" y="1" width="18" height="4" fill="#A16207"/>
    <rect x="8" y="6" width="4" height="25" fill="#78350F"/>
    <rect x="9" y="7" width="2" height="23" fill="#92400E"/>
    <circle cx="10" cy="35" r="8" fill="#374151"/>
    <circle cx="10" cy="35" r="6" fill="#4B5563"/>
    <text x="10" y="50" font-family="Arial" font-size="8" fill="#374151" text-anchor="middle">JUSTICE</text>
  </g>

  <g transform="translate(150,80)">
    <circle cx="0" cy="0" r="15" fill="#FEF2F2"/>
    <circle cx="0" cy="0" r="12" fill="#EF4444"/>
    <text x="0" y="4" font-family="Arial" font-size="14" fill="white" text-anchor="middle" font-weight="bold">!</text>
    <text x="0" y="25" font-family="Arial" font-size="8" fill="#DC2626" text-anchor="middle">ERROR</text>
  </g>

  <g transform="translate(280,80)">
    <path d="M0 0 L15 8 L15 30 L0 45 L-15 30 L-15 8 Z" fill="#059669" stroke="#047857" stroke-width="2"/>
    <path d="M0 5 L10 12 L10 28 L0 38 L-10 28 L-10 12 Z" fill="#34D399"/>

    <circle cx="0" cy="15" r="4" fill="#047857"/>
    <rect x="-1" y="12" width="2" height="8" fill="#047857"/>
    <rect x="-6" y="18" width="12" height="2" fill="#047857"/>
    <text x="0" y="50" font-family="Arial" font-size="8" fill="#047857" text-anchor="middle">LIABILITY</text>
  </g>

  <g transform="translate(50,120)">

    <circle cx="0" cy="0" r="6" fill="#FBBF24"/>
    <ellipse cx="0" cy="15" rx="8" ry="12" fill="#6B7280"/>
    <ellipse cx="-6" cy="17" rx="3" ry="8" fill="#6B7280"/>
    <ellipse cx="6" cy="17" rx="3" ry="8" fill="#6B7280"/>

    <ellipse cx="15" cy="-5" rx="12" ry="8" fill="#FFFFFF" stroke="#D1D5DB" stroke-width="1"/>
    <text x="15" y="-2" font-family="Arial" font-size="6" fill="#374151" text-anchor="middle">SUE!</text>
    <polygon points="8,-5 3,-2 8,0" fill="#FFFFFF" stroke="#D1D5DB" stroke-width="1"/>
  </g>

  <g transform="translate(320,50)">
    <rect x="0" y="20" width="60" height="40" fill="#6B7280"/>
    <rect x="2" y="22" width="56" height="36" fill="#9CA3AF"/>

    <rect x="8" y="20" width="4" height="30" fill="#E5E7EB"/>
    <rect x="18" y="20" width="4" height="30" fill="#E5E7EB"/>
    <rect x="28" y="20" width="4" height="30" fill="#E5E7EB"/>
    <rect x="38" y="20" width="4" height="30" fill="#E5E7EB"/>
    <rect x="48" y="20" width="4" height="30" fill="#E5E7EB"/>

    <polygon points="0,20 30,0 60,20" fill="#4B5563"/>
    <polygon points="5,20 30,5 55,20" fill="#6B7280"/>

    <rect x="-5" y="50" width="70" height="5" fill="#9CA3AF"/>
    <rect x="-3" y="55" width="66" height="3" fill="#6B7280"/>

    <rect x="25" y="35" width="10" height="15" fill="#374151"/>
    <rect x="26" y="36" width="8" height="13" fill="#4B5563"/>

    <text x="30" y="70" font-family="Arial" font-size="8" fill="#374151" text-anchor="middle">COURT</text>
  </g>

  <g transform="translate(250,200)">
    <rect x="0" y="0" width="12" height="8" fill="#22C55E"/>
    <rect x="1" y="1" width="10" height="6" fill="#34D399"/>
    <text x="6" y="6" font-family="Arial" font-size="6" fill="white" text-anchor="middle">$</text>
    <rect x="15" y="0" width="12" height="8" fill="#22C55E"/>
    <text x="21" y="6" font-family="Arial" font-size="6" fill="white" text-anchor="middle">$</text>
    <rect x="30" y="0" width="12" height="8" fill="#22C55E"/>
    <text x="36" y="6" font-family="Arial" font-size="6" fill="white" text-anchor="middle">$</text>
    <text x="21" y="18" font-family="Arial" font-size="8" fill="#059669" text-anchor="middle">DAMAGES</text>
  </g>

  <text x="200" y="280" font-family="Arial" font-size="16" fill="#1F2937" text-anchor="middle" font-weight="bold">Professional Liability Insurance</text>
</svg>