<?xml version="1.0" encoding="UTF-8"?>
<svg width="800" height="600" viewBox="0 0 800 600" xmlns="http://www.w3.org/2000/svg">
  <defs>
    <linearGradient id="bgGradient" x1="0%" y1="0%" x2="100%" y2="100%">
      <stop offset="0%" style="stop-color:#1a1a2e;stop-opacity:1" />
      <stop offset="50%" style="stop-color:#16213e;stop-opacity:1" />
      <stop offset="100%" style="stop-color:#8A2BE2;stop-opacity:1" />
    </linearGradient>
    <filter id="glow">
      <feGaussianBlur stdDeviation="3" result="coloredBlur"/>
      <feMerge>
        <feMergeNode in="coloredBlur"/>
        <feMergeNode in="SourceGraphic"/>
      </feMerge>
    </filter>
  </defs>

  <rect width="800" height="600" fill="url(#bgGradient)"/>

  <rect x="200" y="200" width="150" height="200" fill="#4169E1" stroke="#2F4F4F" stroke-width="4"/>
  <circle cx="275" cy="250" r="25" fill="#00FFFF" filter="url(#glow)"/>
  <circle cx="275" cy="300" r="20" fill="#00FFFF" filter="url(#glow)"/>
  <circle cx="275" cy="350" r="15" fill="#00FFFF" filter="url(#glow)"/>

  <g stroke="#9370DB" stroke-width="3" fill="none" filter="url(#glow)">
    <path d="M350 250 Q400 230 450 250"/>
    <path d="M350 300 Q400 320 450 300"/>
    <path d="M350 350 Q400 370 450 350"/>
  </g>

  <g stroke="#00FFFF" stroke-width="2" fill="none">
    <circle cx="500" cy="200" r="15" fill="#00FFFF" opacity="0.7"/>
    <circle cx="550" cy="220" r="15" fill="#FF6347" opacity="0.7"/>
    <circle cx="500" cy="240" r="15" fill="#00FFFF" opacity="0.7"/>
    <circle cx="550" cy="260" r="15" fill="#FF6347" opacity="0.7"/>
    <circle cx="500" cy="280" r="15" fill="#00FFFF" opacity="0.7"/>
    <line x1="500" y1="200" x2="550" y2="220"/>
    <line x1="550" y1="220" x2="500" y2="240"/>
    <line x1="500" y1="240" x2="550" y2="260"/>
    <line x1="550" y1="260" x2="500" y2="280"/>
  </g>

  <rect x="450" y="350" width="120" height="80" fill="#000000" stroke="#4682B4" stroke-width="3"/>
  <text x="510" y="375" text-anchor="middle" fill="#00FFFF" font-family="Arial" font-size="14" font-weight="bold">RISK ANALYSIS</text>
  <rect x="460" y="385" width="80" height="5" fill="#32CD32"/>
  <rect x="460" y="395" width="60" height="5" fill="#FFD700"/>
  <rect x="460" y="405" width="40" height="5" fill="#FF6347"/>
  <text x="510" y="425" text-anchor="middle" fill="#ffffff" font-family="Arial" font-size="12">QUANTUM AI</text>

  <rect x="100" y="450" width="200" height="80" fill="#2F4F4F" stroke="#4682B4" stroke-width="3"/>
  <text x="200" y="475" text-anchor="middle" fill="#ffffff" font-family="Arial" font-size="14" font-weight="bold">INSURANCE ALGORITHM</text>
  <rect x="120" y="485" width="160" height="3" fill="#00FFFF"/>
  <rect x="120" y="495" width="140" height="3" fill="#00FFFF"/>
  <rect x="120" y="505" width="120" height="3" fill="#00FFFF"/>
  <rect x="120" y="515" width="100" height="3" fill="#00FFFF"/>

  <g stroke="#32CD32" stroke-width="3" fill="none" marker-end="url(#arrowhead)">
    <path d="M350 300 Q375 375 320 450"/>
    <path d="M450 400 Q375 425 300 450"/>
  </g>

  <defs>
    <marker id="arrowhead" markerWidth="10" markerHeight="7" refX="9" refY="3.5" orient="auto">
      <polygon points="0 0, 10 3.5, 0 7" fill="#32CD32"/>
    </marker>
  </defs>

  <g stroke="#FFD700" stroke-width="2" fill="none">
    <path d="M600 350 Q650 330 700 350 Q750 370 700 390 Q650 410 600 390 Q550 370 600 350"/>
    <circle cx="625" cy="370" r="3" fill="#FFD700"/>
    <circle cx="675" cy="370" r="3" fill="#FFD700"/>
    <circle cx="650" cy="350" r="3" fill="#FFD700"/>
    <circle cx="650" cy="390" r="3" fill="#FFD700"/>
  </g>

  <path d="M600 500 L640 520 L640 580 L600 600 L560 580 L560 520 Z" fill="#32CD32" stroke="#228B22" stroke-width="3"/>
  <text x="600" y="565" text-anchor="middle" fill="#ffffff" font-family="Arial" font-size="20" font-weight="bold">$</text>

  <rect x="50" y="300" width="80" height="100" fill="#4682B4" stroke="#2F4F4F" stroke-width="3"/>
  <text x="90" y="280" text-anchor="middle" fill="#ffffff" font-family="Arial" font-size="12" font-weight="bold">QUANTUM LAB</text>
  <rect x="60" y="320" width="15" height="15" fill="#87CEEB"/>
  <rect x="80" y="320" width="15" height="15" fill="#87CEEB"/>
  <rect x="100" y="320" width="15" height="15" fill="#87CEEB"/>
  <rect x="60" y="350" width="15" height="15" fill="#87CEEB"/>
  <rect x="80" y="350" width="15" height="15" fill="#87CEEB"/>
  <rect x="100" y="350" width="15" height="15" fill="#87CEEB"/>

  <text x="400" y="50" text-anchor="middle" fill="#ffffff" font-family="Arial" font-size="26" font-weight="bold">Quantum Computing</text>
  <text x="400" y="80" text-anchor="middle" fill="#ffffff" font-family="Arial" font-size="26" font-weight="bold">Insurance</text>
  <text x="400" y="110" text-anchor="middle" fill="#ffffff" font-family="Arial" font-size="18">Revolutionary Risk Assessment</text>

  <rect x="50" y="50" width="110" height="30" rx="15" fill="#FF69B4" opacity="0.9"/>
  <text x="105" y="70" text-anchor="middle" fill="#ffffff" font-family="Arial" font-size="14" font-weight="bold">FUTURE TECH</text>
</svg>