<?xml version="1.0" encoding="UTF-8"?>
<svg width="800" height="600" viewBox="0 0 800 600" xmlns="http://www.w3.org/2000/svg">
  <defs>
    <linearGradient id="bgGradient" x1="0%" y1="0%" x2="100%" y2="100%">
      <stop offset="0%" style="stop-color:#1a1a2e;stop-opacity:1" />
      <stop offset="50%" style="stop-color:#16213e;stop-opacity:1" />
      <stop offset="100%" style="stop-color:#00008B;stop-opacity:1" />
    </linearGradient>
    <filter id="glow">
      <feGaussianBlur stdDeviation="3" result="coloredBlur"/>
      <feMerge>
        <feMergeNode in="coloredBlur"/>
        <feMergeNode in="SourceGraphic"/>
      </feMerge>
    </filter>
  </defs>

  <rect width="800" height="600" fill="url(#bgGradient)"/>

  <rect x="150" y="150" width="120" height="150" fill="#4169E1" stroke="#2F4F4F" stroke-width="3"/>
  <circle cx="210" cy="200" r="20" fill="#00FFFF" filter="url(#glow)"/>
  <circle cx="210" cy="240" r="15" fill="#00FFFF" filter="url(#glow)"/>
  <circle cx="210" cy="280" r="12" fill="#00FFFF" filter="url(#glow)"/>

  <g stroke="#00FFFF" stroke-width="2" fill="none">
    <circle cx="320" cy="180" r="15" fill="#00FFFF" opacity="0.7"/>
    <circle cx="350" cy="200" r="15" fill="#FF6347" opacity="0.7"/>
    <circle cx="320" cy="220" r="15" fill="#00FFFF" opacity="0.7"/>
    <circle cx="350" cy="240" r="15" fill="#FF6347" opacity="0.7"/>
    <line x1="320" y1="180" x2="350" y2="200"/>
    <line x1="350" y1="200" x2="320" y2="220"/>
    <line x1="320" y1="220" x2="350" y2="240"/>
  </g>

  <rect x="500" y="180" width="80" height="40" fill="#FFD700" stroke="#FFA500" stroke-width="3"/>
  <circle cx="520" cy="200" r="8" fill="#000000"/>
  <rect x="535" y="195" width="30" height="10" fill="#000000"/>
  <rect x="545" y="190" width="5" height="5" fill="#000000"/>
  <rect x="555" y="190" width="5" height="5" fill="#000000"/>

  <path d="M400 350 L440 370 L440 430 L400 450 L360 430 L360 370 Z" fill="#32CD32" stroke="#228B22" stroke-width="3"/>
  <rect x="390" y="390" width="20" height="3" fill="#ffffff"/>
  <rect x="390" y="400" width="20" height="3" fill="#ffffff"/>
  <rect x="390" y="410" width="20" height="3" fill="#ffffff"/>

  <polygon points="600,150 580,190 620,190" fill="#FF4500" stroke="#FF0000" stroke-width="2"/>
  <text x="600" y="180" text-anchor="middle" fill="#ffffff" font-family="Arial" font-size="16" font-weight="bold">⚠</text>

  <g stroke="#00FFFF" stroke-width="2" fill="none" opacity="0.6">
    <circle cx="650" cy="300" r="12" fill="#1a1a2e"/>
    <circle cx="680" cy="320" r="12" fill="#1a1a2e"/>
    <circle cx="620" cy="340" r="12" fill="#1a1a2e"/>
    <circle cx="700" cy="350" r="12" fill="#1a1a2e"/>
    <line x1="650" y1="300" x2="680" y2="320"/>
    <line x1="680" y1="320" x2="620" y2="340"/>
    <line x1="620" y1="340" x2="700" y2="350"/>
    <line x1="700" y1="350" x2="650" y2="300"/>
  </g>

  <g stroke="#9370DB" stroke-width="3" fill="none" stroke-dasharray="5,5">
    <path d="M270 225 Q400 200 500 200" filter="url(#glow)"/>
  </g>

  <rect x="180" y="420" width="40" height="30" fill="#4682B4" stroke="#2F4F4F" stroke-width="2"/>
  <circle cx="200" cy="410" r="10" fill="none" stroke="#4682B4" stroke-width="3"/>

  <text x="400" y="50" text-anchor="middle" fill="#ffffff" font-family="Arial" font-size="26" font-weight="bold">Quantum Cybersecurity</text>
  <text x="400" y="80" text-anchor="middle" fill="#ffffff" font-family="Arial" font-size="26" font-weight="bold">Insurance</text>
  <text x="400" y="550" text-anchor="middle" fill="#ffffff" font-family="Arial" font-size="18">Future Threat Protection</text>

  <rect x="50" y="50" width="110" height="30" rx="15" fill="#FF69B4" opacity="0.9"/>
  <text x="105" y="70" text-anchor="middle" fill="#ffffff" font-family="Arial" font-size="14" font-weight="bold">FUTURE TECH</text>
</svg>