<?xml version="1.0" encoding="UTF-8"?>
<svg viewBox="0 0 400 300" xmlns="http://www.w3.org/2000/svg">
  <defs>
    <linearGradient id="apartmentGradient" x1="0%" y1="0%" x2="0%" y2="100%">
      <stop offset="0%" style="stop-color:#D97706;stop-opacity:1" />
      <stop offset="100%" style="stop-color:#B45309;stop-opacity:1" />
    </linearGradient>
    <linearGradient id="skyGradient" x1="0%" y1="0%" x2="0%" y2="100%">
      <stop offset="0%" style="stop-color:#E0F2FE;stop-opacity:1" />
      <stop offset="100%" style="stop-color:#BAE6FD;stop-opacity:1" />
    </linearGradient>
  </defs>

  <rect width="400" height="300" fill="url(#skyGradient)"/>

  <g transform="translate(150,50)">

    <rect x="0" y="0" width="100" height="150" fill="url(#apartmentGradient)"/>
    <rect x="2" y="2" width="96" height="146" fill="#F59E0B"/>

    <rect x="0" y="0" width="100" height="10" fill="#92400E"/>
    <rect x="2" y="2" width="96" height="6" fill="#B45309"/>

    <rect x="10" y="20" width="12" height="15" fill="#F0F8FF"/>
    <rect x="30" y="20" width="12" height="15" fill="#F0F8FF"/>
    <rect x="50" y="20" width="12" height="15" fill="#F0F8FF"/>
    <rect x="70" y="20" width="12" height="15" fill="#F0F8FF"/>

    <rect x="10" y="45" width="12" height="15" fill="#F0F8FF"/>
    <rect x="30" y="45" width="12" height="15" fill="#F0F8FF"/>
    <rect x="50" y="45" width="12" height="15" fill="#F0F8FF"/>
    <rect x="70" y="45" width="12" height="15" fill="#F0F8FF"/>

    <rect x="10" y="70" width="12" height="15" fill="#F0F8FF"/>
    <rect x="30" y="70" width="12" height="15" fill="#F0F8FF"/>
    <rect x="50" y="70" width="12" height="15" fill="#F0F8FF"/>
    <rect x="70" y="70" width="12" height="15" fill="#F0F8FF"/>

    <rect x="10" y="95" width="12" height="15" fill="#F0F8FF"/>
    <rect x="30" y="95" width="12" height="15" fill="#F0F8FF"/>
    <rect x="50" y="95" width="12" height="15" fill="#F0F8FF"/>
    <rect x="70" y="95" width="12" height="15" fill="#F0F8FF"/>

    <rect x="42" y="120" width="16" height="30" fill="#78350F"/>
    <rect x="44" y="122" width="12" height="26" fill="#92400E"/>
    <circle cx="54" cy="135" r="1" fill="#F0F8FF"/>

    <rect x="25" y="35" width="15" height="3" fill="#92400E"/>
    <rect x="60" y="35" width="15" height="3" fill="#92400E"/>
    <rect x="25" y="85" width="15" height="3" fill="#92400E"/>
    <rect x="60" y="85" width="15" height="3" fill="#92400E"/>

    <rect x="95" y="30" width="8" height="90" fill="#6B7280"/>
    <rect x="93" y="35" width="12" height="2" fill="#6B7280"/>
    <rect x="93" y="50" width="12" height="2" fill="#6B7280"/>
    <rect x="93" y="65" width="12" height="2" fill="#6B7280"/>
    <rect x="93" y="80" width="12" height="2" fill="#6B7280"/>
    <rect x="93" y="95" width="12" height="2" fill="#6B7280"/>
    <rect x="93" y="110" width="12" height="2" fill="#6B7280"/>
  </g>

  <g transform="translate(50,180)">
    <rect x="0" y="0" width="80" height="60" fill="#F8FAFC" stroke="#CBD5E0" stroke-width="2"/>
    <rect x="2" y="2" width="76" height="56" fill="#FFFFFF"/>

    <rect x="10" y="20" width="20" height="12" fill="#6B7280"/>
    <rect x="11" y="21" width="18" height="10" fill="#9CA3AF"/>
    <rect x="8" y="22" width="4" height="8" fill="#6B7280"/>
    <rect x="28" y="22" width="4" height="8" fill="#6B7280"/>

    <rect x="45" y="15" width="20" height="15" fill="#374151"/>
    <rect x="47" y="17" width="16" height="11" fill="#111827"/>
    <rect x="52" y="30" width="6" height="5" fill="#374151"/>
    <rect x="55" y="35" width="8" height="2" fill="#374151"/>

    <rect x="15" y="40" width="15" height="8" fill="#A16207"/>
    <rect x="16" y="41" width="13" height="6" fill="#D97706"/>
    <rect x="18" y="48" width="2" height="5" fill="#A16207"/>
    <rect x="27" y="48" width="2" height="5" fill="#A16207"/>

    <rect x="20" y="38" width="8" height="5" fill="#374151"/>
    <rect x="21" y="39" width="6" height="3" fill="#60A5FA"/>

    <text x="40" y="75" font-family="Arial" font-size="8" fill="#374151" text-anchor="middle">RENTER'S UNIT</text>
  </g>

  <g transform="translate(300,180)">
    <rect x="0" y="0" width="20" height="25" fill="#374151"/>
    <rect x="1" y="1" width="18" height="23" fill="#4B5563"/>
    <rect x="2" y="2" width="16" height="21" fill="#6B7280"/>

    <rect x="5" y="5" width="10" height="8" fill="#EF4444"/>
    <path d="M5 5 L15 13 M15 5 L5 13" stroke="#FEF2F2" stroke-width="2"/>

    <circle cx="30" cy="10" r="4" fill="#1F2937"/>
    <ellipse cx="30" cy="20" rx="5" ry="8" fill="#1F2937"/>
    <ellipse cx="25" cy="22" rx="2" ry="6" fill="#1F2937"/>
    <ellipse cx="35" cy="22" rx="2" ry="6" fill="#1F2937"/>

    <rect x="40" y="15" width="6" height="4" fill="#374151"/>
    <rect x="41" y="16" width="4" height="2" fill="#60A5FA"/>
    <text x="43" y="26" font-family="Arial" font-size="6" fill="#374151" text-anchor="middle">STOLEN</text>
  </g>

  <g transform="translate(80,100)">
    <path d="M0 0 L15 8 L15 30 L0 45 L-15 30 L-15 8 Z" fill="#059669" stroke="#047857" stroke-width="2"/>
    <path d="M0 5 L10 12 L10 28 L0 38 L-10 28 L-10 12 Z" fill="#34D399"/>

    <rect x="-5" y="18" width="10" height="8" fill="#047857"/>
    <polygon points="-5,18 0,12 5,18" fill="#047857"/>
    <rect x="-1" y="22" width="2" height="4" fill="#34D399"/>
    <rect x="-3" y="20" width="2" height="2" fill="#34D399"/>
    <rect x="1" y="20" width="2" height="2" fill="#34D399"/>
  </g>

  <g transform="translate(200,30)">
    <rect x="0" y="0" width="60" height="3" fill="#6B7280"/>
    <circle cx="10" cy="3" r="2" fill="#EF4444"/>
    <circle cx="25" cy="3" r="2" fill="#EF4444"/>
    <circle cx="40" cy="3" r="2" fill="#EF4444"/>
    <circle cx="55" cy="3" r="2" fill="#EF4444"/>

    <circle cx="10" cy="8" r="1" fill="#0EA5E9"/>
    <circle cx="25" cy="12" r="1" fill="#0EA5E9"/>
    <circle cx="40" cy="10" r="1" fill="#0EA5E9"/>
    <circle cx="55" cy="14" r="1" fill="#0EA5E9"/>
  </g>

  <g transform="translate(320,100)">

    <circle cx="0" cy="15" r="8" fill="none" stroke="#374151" stroke-width="2"/>
    <circle cx="20" cy="15" r="8" fill="none" stroke="#374151" stroke-width="2"/>
    <line x1="0" y1="15" x2="20" y2="15" stroke="#374151" stroke-width="2"/>
    <line x1="10" y1="15" x2="10" y2="5" stroke="#374151" stroke-width="2"/>
    <line x1="0" y1="15" x2="10" y2="5" stroke="#374151" stroke-width="2"/>
    <line x1="20" y1="15" x2="10" y2="5" stroke="#374151" stroke-width="2"/>

    <circle cx="30" cy="5" r="3" fill="#F59E0B"/>
    <circle cx="30" cy="5" r="1" fill="#FBBF24"/>
    <text x="30" y="20" font-family="Arial" font-size="6" fill="#374151" text-anchor="middle">JEWELRY</text>
  </g>

  <g transform="translate(50,120)">
    <circle cx="0" cy="0" r="6" fill="#FBBF24"/>
    <ellipse cx="0" cy="12" rx="8" ry="10" fill="#3B82F6"/>
    <ellipse cx="-6" cy="14" rx="3" ry="8" fill="#3B82F6"/>
    <ellipse cx="6" cy="14" rx="3" ry="8" fill="#3B82F6"/>

    <path d="M0 25 Q10 30 20 25" stroke="#EF4444" stroke-width="2" fill="none"/>
    <circle cx="25" cy="25" r="3" fill="#EF4444"/>
    <text x="25" y="35" font-family="Arial" font-size="6" fill="#EF4444" text-anchor="middle">SLIP</text>
  </g>

  <text x="200" y="280" font-family="Arial" font-size="16" fill="#1F2937" text-anchor="middle" font-weight="bold">Renters Insurance Protection</text>
</svg>