<?xml version="1.0" encoding="UTF-8"?>
<svg width="800" height="600" viewBox="0 0 800 600" xmlns="http://www.w3.org/2000/svg">
  <defs>
    <linearGradient id="bgGradient" x1="0%" y1="0%" x2="100%" y2="100%">
      <stop offset="0%" style="stop-color:#1a1a2e;stop-opacity:1" />
      <stop offset="50%" style="stop-color:#16213e;stop-opacity:1" />
      <stop offset="100%" style="stop-color:#FFD700;stop-opacity:1" />
    </linearGradient>
    <filter id="glow">
      <feGaussianBlur stdDeviation="3" result="coloredBlur"/>
      <feMerge>
        <feMergeNode in="coloredBlur"/>
        <feMergeNode in="SourceGraphic"/>
      </feMerge>
    </filter>
  </defs>

  <rect width="800" height="600" fill="url(#bgGradient)"/>

  <circle cx="300" cy="180" r="40" fill="#FFE4E1" stroke="#FFA07A" stroke-width="3"/>
  <rect x="270" y="220" width="60" height="80" rx="15" fill="#4169E1"/>
  <circle cx="285" cy="165" r="5" fill="#000000"/>
  <circle cx="315" cy="165" r="5" fill="#000000"/>
  <path d="M290 190 Q300 200 310 190" stroke="#FF69B4" stroke-width="2" fill="none"/>

  <rect x="450" y="150" width="40" height="40" rx="10" fill="#3b5998"/>
  <text x="470" y="175" text-anchor="middle" fill="#ffffff" font-family="Arial" font-size="16" font-weight="bold">f</text>

  <rect x="500" y="150" width="40" height="40" rx="10" fill="#1DA1F2"/>
  <text x="520" y="175" text-anchor="middle" fill="#ffffff" font-family="Arial" font-size="16" font-weight="bold">T</text>

  <rect x="550" y="150" width="40" height="40" rx="10" fill="#E4405F"/>
  <text x="570" y="175" text-anchor="middle" fill="#ffffff" font-family="Arial" font-size="16" font-weight="bold">IG</text>

  <rect x="100" y="300" width="120" height="60" rx="15" fill="#FF6B6B" stroke="#FF0000" stroke-width="2"/>
  <text x="160" y="325" text-anchor="middle" fill="#ffffff" font-family="Arial" font-size="12">NEGATIVE</text>
  <text x="160" y="340" text-anchor="middle" fill="#ffffff" font-family="Arial" font-size="12">COMMENTS</text>

  <rect x="250" y="350" width="100" height="50" rx="10" fill="#FF8C00" stroke="#FF4500" stroke-width="2"/>
  <text x="300" y="375" text-anchor="middle" fill="#ffffff" font-family="Arial" font-size="12">BAD REVIEWS</text>
  <g fill="#FFD700">
    <polygon points="270,385 275,395 285,395 277,401 280,411 270,405 260,411 263,401 255,395 265,395"/>
    <polygon points="290,385 295,395 305,395 297,401 300,411 290,405 280,411 283,401 275,395 285,395"/>
  </g>

  <rect x="400" y="320" width="100" height="60" rx="10" fill="#800080" stroke="#4B0082" stroke-width="2"/>
  <text x="450" y="345" text-anchor="middle" fill="#ffffff" font-family="Arial" font-size="12">FAKE NEWS</text>
  <text x="450" y="360" text-anchor="middle" fill="#ffffff" font-family="Arial" font-size="12">RUMORS</text>

  <circle cx="300" cy="450" r="30" fill="#32CD32" stroke="#228B22" stroke-width="3"/>
  <text x="300" y="460" text-anchor="middle" fill="#ffffff" font-family="Arial" font-size="16" font-weight="bold">ME</text>

  <g stroke="#FF0000" stroke-width="3" fill="none" marker-end="url(#arrowhead)">
    <path d="M220 330 Q250 370 270 430"/>
    <path d="M350 370 Q325 400 315 430"/>
    <path d="M400 350 Q350 390 330 430"/>
  </g>

  <defs>
    <marker id="arrowhead" markerWidth="10" markerHeight="7" refX="9" refY="3.5" orient="auto">
      <polygon points="0 0, 10 3.5, 0 7" fill="#FF0000"/>
    </marker>
  </defs>

  <path d="M600 400 L640 420 L640 480 L600 500 L560 480 L560 420 Z" fill="#32CD32" stroke="#228B22" stroke-width="3"/>
  <text x="600" y="465" text-anchor="middle" fill="#ffffff" font-family="Arial" font-size="20" font-weight="bold">$</text>

  <rect x="550" y="300" width="80" height="60" fill="#2F4F4F" stroke="#696969" stroke-width="2"/>
  <text x="590" y="325" text-anchor="middle" fill="#ffffff" font-family="Arial" font-size="12">CAREER</text>
  <text x="590" y="340" text-anchor="middle" fill="#ffffff" font-family="Arial" font-size="12">IMPACT</text>

  <g stroke="#00FFFF" stroke-width="2" fill="none" opacity="0.7">
    <path d="M250 500 Q300 520 350 500"/>
    <path d="M260 510 Q300 530 340 510"/>
    <path d="M270 520 Q300 540 330 520"/>
  </g>
  <text x="300" y="550" text-anchor="middle" fill="#ffffff" font-family="Arial" font-size="12">DIGITAL FOOTPRINT</text>

  <text x="400" y="50" text-anchor="middle" fill="#ffffff" font-family="Arial" font-size="26" font-weight="bold">Personal Reputation</text>
  <text x="400" y="80" text-anchor="middle" fill="#ffffff" font-family="Arial" font-size="26" font-weight="bold">Risk Insurance</text>
  <text x="400" y="110" text-anchor="middle" fill="#ffffff" font-family="Arial" font-size="18">Online Brand Protection</text>

  <rect x="50" y="50" width="140" height="30" rx="15" fill="#4169E1" opacity="0.9"/>
  <text x="120" y="70" text-anchor="middle" fill="#ffffff" font-family="Arial" font-size="14" font-weight="bold">PERSONAL FINANCE</text>
</svg>