<?xml version="1.0" encoding="UTF-8"?>
<svg width="800" height="600" viewBox="0 0 800 600" xmlns="http://www.w3.org/2000/svg">
  <defs>
    <linearGradient id="bgGradient" x1="0%" y1="0%" x2="100%" y2="100%">
      <stop offset="0%" style="stop-color:#1a1a2e;stop-opacity:1" />
      <stop offset="50%" style="stop-color:#16213e;stop-opacity:1" />
      <stop offset="100%" style="stop-color:#4B0082;stop-opacity:1" />
    </linearGradient>
    <filter id="glow">
      <feGaussianBlur stdDeviation="3" result="coloredBlur"/>
      <feMerge>
        <feMergeNode in="coloredBlur"/>
        <feMergeNode in="SourceGraphic"/>
      </feMerge>
    </filter>
  </defs>

  <rect width="800" height="600" fill="url(#bgGradient)"/>

  <ellipse cx="300" cy="200" rx="60" ry="30" fill="#4682B4" stroke="#2F4F4F" stroke-width="3"/>

  <g stroke="#32CD32" stroke-width="3" fill="none">
    <ellipse cx="250" cy="180" rx="20" ry="5" fill="#32CD32"/>
    <ellipse cx="350" cy="180" rx="20" ry="5" fill="#32CD32"/>
    <ellipse cx="250" cy="220" rx="20" ry="5" fill="#32CD32"/>
    <ellipse cx="350" cy="220" rx="20" ry="5" fill="#32CD32"/>
  </g>

  <circle cx="300" cy="200" r="15" fill="#000000" stroke="#4682B4" stroke-width="2"/>
  <circle cx="300" cy="200" r="8" fill="#00FFFF" filter="url(#glow)"/>

  <rect x="480" y="300" width="80" height="100" rx="15" fill="#8A2BE2" stroke="#4B0082" stroke-width="3"/>
  <circle cx="520" cy="280" r="25" fill="#8A2BE2" stroke="#4B0082" stroke-width="3"/>

  <circle cx="510" cy="275" r="5" fill="#00FFFF" filter="url(#glow)"/>
  <circle cx="530" cy="275" r="5" fill="#00FFFF" filter="url(#glow)"/>

  <rect x="440" y="320" width="40" height="15" rx="7" fill="#8A2BE2"/>
  <rect x="560" y="320" width="40" height="15" rx="7" fill="#8A2BE2"/>

  <rect x="495" y="400" width="15" height="40" rx="7" fill="#8A2BE2"/>
  <rect x="530" y="400" width="15" height="40" rx="7" fill="#8A2BE2"/>

  <g stroke="#00FFFF" stroke-width="2" fill="none" stroke-dasharray="3,3">
    <path d="M360 200 Q400 180 440 200" filter="url(#glow)"/>
    <path d="M360 210 Q400 230 440 210" filter="url(#glow)"/>
  </g>

  <polygon points="200,350 170,400 230,400" fill="#FF4500" stroke="#FF0000" stroke-width="2"/>
  <text x="200" y="385" text-anchor="middle" fill="#ffffff" font-family="Arial" font-size="16" font-weight="bold">!</text>

  <path d="M650 300 L690 320 L690 380 L650 400 L610 380 L610 320 Z" fill="#32CD32" stroke="#228B22" stroke-width="3"/>
  <text x="650" y="365" text-anchor="middle" fill="#ffffff" font-family="Arial" font-size="20" font-weight="bold">$</text>

  <rect x="100" y="100" width="40" height="20" fill="#FFD700" stroke="#FFA500" stroke-width="2"/>
  <rect x="90" y="110" width="60" height="5" fill="#FFD700"/>
  <rect x="80" y="115" width="80" height="5" fill="#FFD700"/>

  <g stroke="#FFD700" stroke-width="2" fill="none" stroke-dasharray="2,2">
    <line x1="140" y1="120" x2="280" y2="180"/>
    <line x1="140" y1="120" x2="500" y2="260"/>
  </g>

  <rect x="50" y="400" width="30" height="80" fill="#696969"/>
  <rect x="90" y="380" width="25" height="100" fill="#696969"/>
  <rect x="125" y="420" width="20" height="60" fill="#696969"/>

  <rect x="55" y="410" width="5" height="5" fill="#FFFF00"/>
  <rect x="65" y="410" width="5" height="5" fill="#FFFF00"/>
  <rect x="55" y="425" width="5" height="5" fill="#FFFF00"/>
  <rect x="95" y="390" width="5" height="5" fill="#FFFF00"/>
  <rect x="105" y="390" width="5" height="5" fill="#FFFF00"/>

  <text x="400" y="50" text-anchor="middle" fill="#ffffff" font-family="Arial" font-size="28" font-weight="bold">Robot &amp; Drone Insurance</text>
  <text x="400" y="550" text-anchor="middle" fill="#ffffff" font-family="Arial" font-size="18">Automated World Liability</text>

  <rect x="50" y="50" width="110" height="30" rx="15" fill="#8A2BE2" opacity="0.9"/>
  <text x="105" y="70" text-anchor="middle" fill="#ffffff" font-family="Arial" font-size="14" font-weight="bold">AUTOMATION</text>
</svg>