<svg width="400" height="300" viewBox="0 0 400 300" xmlns="http://www.w3.org/2000/svg">
  <defs>
    <linearGradient id="screenGradient" x1="0%" y1="0%" x2="100%" y2="100%">
      <stop offset="0%" style="stop-color:#F0F8FF;stop-opacity:1" />
      <stop offset="100%" style="stop-color:#E6E6FA;stop-opacity:1" />
    </linearGradient>
    <linearGradient id="phoneGradient" x1="0%" y1="0%" x2="100%" y2="100%">
      <stop offset="0%" style="stop-color:#4169E1;stop-opacity:1" />
      <stop offset="100%" style="stop-color:#191970;stop-opacity:1" />
    </linearGradient>
    <radialGradient id="pulseGradient" cx="50%" cy="50%" r="50%">
      <stop offset="0%" style="stop-color:#32CD32;stop-opacity:0.8" />
      <stop offset="100%" style="stop-color:#32CD32;stop-opacity:0.1" />
    </radialGradient>
  </defs>

  <rect width="400" height="300" fill="#F5F5F5"/>

  <g transform="translate(50, 50)">

    <rect x="0" y="0" width="140" height="90" fill="#2F4F4F" rx="5"/>
    <rect x="5" y="5" width="130" height="80" fill="url(#screenGradient)" rx="3"/>

    <g transform="translate(15, 15)">

      <circle cx="30" cy="20" r="12" fill="#FDBCB4"/>

      <path d="M 18 12 Q 30 8 42 12 Q 42 8 30 5 Q 18 8 18 12" fill="#8B4513"/>

      <rect x="20" y="32" width="20" height="30" fill="#FFFFFF"/>

      <circle cx="25" cy="40" r="2" fill="#4169E1"/>
      <path d="M 25 42 Q 30 45 35 40" stroke="#4169E1" stroke-width="2" fill="none"/>

      <rect x="35" y="35" width="6" height="2" fill="#FF6347"/>
      <rect x="37" y="33" width="2" height="6" fill="#FF6347"/>
    </g>

    <rect x="10" y="65" width="50" height="5" fill="#32CD32" rx="2"/>
    <text x="35" y="72" text-anchor="middle" font-family="Arial, sans-serif" font-size="6" fill="#32CD32">CONNECTED</text>

    <rect x="65" y="90" width="10" height="15" fill="#696969"/>
    <rect x="50" y="105" width="40" height="8" fill="#696969" rx="4"/>
  </g>

  <g transform="translate(250, 80)">

    <rect x="0" y="0" width="80" height="120" fill="url(#phoneGradient)" rx="10"/>
    <rect x="5" y="15" width="70" height="90" fill="#000000" rx="5"/>

    <g transform="translate(15, 25)">

      <circle cx="25" cy="20" r="10" fill="#FDBCB4"/>

      <path d="M 15 12 Q 25 8 35 12 Q 35 8 25 5 Q 15 8 15 12" fill="#4B0082"/>

      <rect x="18" y="30" width="14" height="20" fill="#87CEEB"/>

      <circle cx="22" cy="18" r="1" fill="#333333"/>
      <circle cx="28" cy="18" r="1" fill="#333333"/>
      <path d="M 22 23 Q 25 25 28 23" stroke="#333333" stroke-width="1" fill="none"/>
    </g>

    <circle cx="20" cy="110" r="6" fill="#FF6347"/>
    <text x="20" y="113" text-anchor="middle" font-family="Arial, sans-serif" font-size="8" fill="#FFFFFF">×</text>

    <circle cx="40" cy="110" r="6" fill="#32CD32"/>
    <rect x="37" y="107" width="6" height="2" fill="#FFFFFF"/>
    <rect x="39" y="105" width="2" height="6" fill="#FFFFFF"/>

    <circle cx="60" cy="110" r="6" fill="#4169E1"/>
    <circle cx="60" cy="110" r="3" fill="#FFFFFF"/>
  </g>

  <g opacity="0.6">
    <path d="M 190 95 Q 220 85 250 95" stroke="#32CD32" stroke-width="3" fill="none" stroke-dasharray="5,5"/>
    <path d="M 190 105 Q 220 115 250 105" stroke="#32CD32" stroke-width="3" fill="none" stroke-dasharray="5,5"/>
  </g>

  <g transform="translate(220, 60)">
    <path d="M 0 20 Q 5 15 10 20" stroke="#32CD32" stroke-width="2" fill="none"/>
    <path d="M -5 25 Q 5 10 15 25" stroke="#32CD32" stroke-width="2" fill="none"/>
    <path d="M -10 30 Q 5 5 20 30" stroke="#32CD32" stroke-width="2" fill="none"/>
    <circle cx="5" cy="25" r="2" fill="#32CD32"/>
  </g>

  <g transform="translate(320, 220)">
    <path d="M 0 0 L 15 -8 L 30 0 L 30 20 L 15 30 L 0 20 Z" fill="#4169E1" stroke="#191970" stroke-width="2"/>
    <text x="15" y="12" text-anchor="middle" font-family="Arial, sans-serif" font-size="8" fill="#FFFFFF">$</text>
    <text x="15" y="22" text-anchor="middle" font-family="Arial, sans-serif" font-size="6" fill="#FFFFFF">MALPRACTICE</text>
  </g>

  <g transform="translate(60, 180)">
    <rect x="0" y="0" width="100" height="80" fill="#FFFFFF" stroke="#333333" stroke-width="2" rx="5"/>
    <text x="50" y="15" text-anchor="middle" font-family="Arial, sans-serif" font-size="10" fill="#333333">TELEMEDICINE RISKS</text>

    <g transform="translate(10, 25)">

      <circle cx="5" cy="5" r="3" fill="#FF6347"/>
      <text x="15" y="8" font-family="Arial, sans-serif" font-size="8" fill="#333333">Diagnostic Limitations</text>

      <circle cx="5" cy="18" r="3" fill="#FFD700"/>
      <text x="15" y="21" font-family="Arial, sans-serif" font-size="8" fill="#333333">Technology Failures</text>

      <circle cx="5" cy="31" r="3" fill="#FF6347"/>
      <text x="15" y="34" font-family="Arial, sans-serif" font-size="8" fill="#333333">Jurisdictional Issues</text>

      <circle cx="5" cy="44" r="3" fill="#FFD700"/>
      <text x="15" y="47" font-family="Arial, sans-serif" font-size="8" fill="#333333">Communication Errors</text>
    </g>
  </g>

  <g transform="translate(180, 220)">
    <rect x="0" y="5" width="20" height="6" fill="#FF6347"/>
    <rect x="7" y="-2" width="6" height="20" fill="#FF6347"/>
    <circle cx="10" cy="8" r="8" fill="none" stroke="#FF6347" stroke-width="2"/>
  </g>

  <g transform="translate(20, 20)">
    <rect x="0" y="8" width="16" height="12" fill="#4169E1" rx="2"/>
    <path d="M 3 8 Q 3 4 8 4 Q 13 4 13 8" stroke="#4169E1" stroke-width="2" fill="none"/>
    <circle cx="8" cy="14" r="2" fill="#FFFFFF"/>
    <text x="8" y="35" text-anchor="middle" font-family="Arial, sans-serif" font-size="6" fill="#333333">Data Security</text>
  </g>

  <text x="200" y="25" text-anchor="middle" font-family="Arial, sans-serif" font-size="16" font-weight="bold" fill="#2F4F4F">Telemedicine Insurance</text>
</svg>