<?xml version="1.0" encoding="UTF-8"?>
<svg viewBox="0 0 400 300" xmlns="http://www.w3.org/2000/svg">
  <defs>
    <linearGradient id="umbrellaGradient" x1="0%" y1="0%" x2="0%" y2="100%">
      <stop offset="0%" style="stop-color:#DC2626;stop-opacity:1" />
      <stop offset="100%" style="stop-color:#991B1B;stop-opacity:1" />
    </linearGradient>
    <linearGradient id="skyGradient" x1="0%" y1="0%" x2="0%" y2="100%">
      <stop offset="0%" style="stop-color:#94A3B8;stop-opacity:1" />
      <stop offset="100%" style="stop-color:#CBD5E0;stop-opacity:1" />
    </linearGradient>
    <radialGradient id="protectionGlow" cx="50%" cy="50%" r="50%">
      <stop offset="0%" style="stop-color:#DC2626;stop-opacity:0.3" />
      <stop offset="100%" style="stop-color:#991B1B;stop-opacity:0.1" />
    </radialGradient>
  </defs>

  <rect width="400" height="300" fill="url(#skyGradient)"/>

  <circle cx="80" cy="40" r="25" fill="#64748B"/>
  <circle cx="100" cy="35" r="30" fill="#475569"/>
  <circle cx="120" cy="40" r="20" fill="#64748B"/>
  <circle cx="140" cy="35" r="25" fill="#475569"/>
  <circle cx="160" cy="40" r="18" fill="#64748B"/>

  <circle cx="240" cy="45" r="22" fill="#64748B"/>
  <circle cx="260" cy="40" r="28" fill="#475569"/>
  <circle cx="280" cy="45" r="20" fill="#64748B"/>
  <circle cx="300" cy="40" r="25" fill="#475569"/>
  <circle cx="320" cy="45" r="18" fill="#64748B"/>

  <g opacity="0.7">
    <line x1="70" y1="65" x2="65" y2="85" stroke="#475569" stroke-width="3"/>
    <line x1="85" y1="60" x2="80" y2="80" stroke="#475569" stroke-width="3"/>
    <line x1="100" y1="65" x2="95" y2="85" stroke="#475569" stroke-width="3"/>
    <line x1="115" y1="60" x2="110" y2="80" stroke="#475569" stroke-width="3"/>
    <line x1="130" y1="65" x2="125" y2="85" stroke="#475569" stroke-width="3"/>
    <line x1="145" y1="60" x2="140" y2="80" stroke="#475569" stroke-width="3"/>
    <line x1="160" y1="65" x2="155" y2="85" stroke="#475569" stroke-width="3"/>

    <line x1="240" y1="70" x2="235" y2="90" stroke="#475569" stroke-width="3"/>
    <line x1="255" y1="65" x2="250" y2="85" stroke="#475569" stroke-width="3"/>
    <line x1="270" y1="70" x2="265" y2="90" stroke="#475569" stroke-width="3"/>
    <line x1="285" y1="65" x2="280" y2="85" stroke="#475569" stroke-width="3"/>
    <line x1="300" y1="70" x2="295" y2="90" stroke="#475569" stroke-width="3"/>
    <line x1="315" y1="65" x2="310" y2="85" stroke="#475569" stroke-width="3"/>
    <line x1="330" y1="70" x2="325" y2="90" stroke="#475569" stroke-width="3"/>
  </g>

  <g transform="translate(200,120)">
    <circle cx="0" cy="0" r="80" fill="url(#protectionGlow)"/>

    <path d="M-60 0 Q-50 -20 -30 -15 Q-10 -20 0 -18 Q10 -20 30 -15 Q50 -20 60 0 Q50 5 30 0 Q10 5 0 3 Q-10 5 -30 0 Q-50 5 -60 0" fill="url(#umbrellaGradient)"/>

    <line x1="-60" y1="0" x2="-5" y2="0" stroke="#7F1D1D" stroke-width="2"/>
    <line x1="-30" y1="-15" x2="-3" y2="-2" stroke="#7F1D1D" stroke-width="2"/>
    <line x1="0" y1="-18" x2="0" y2="-2" stroke="#7F1D1D" stroke-width="2"/>
    <line x1="30" y1="-15" x2="3" y2="-2" stroke="#7F1D1D" stroke-width="2"/>
    <line x1="60" y1="0" x2="5" y2="0" stroke="#7F1D1D" stroke-width="2"/>

    <line x1="0" y1="0" x2="0" y2="40" stroke="#78350F" stroke-width="4"/>
    <path d="M0 40 Q-8 45 -8 50 Q-8 55 0 55" stroke="#78350F" stroke-width="4" fill="none"/>

    <circle cx="0" cy="0" r="3" fill="#7F1D1D"/>
  </g>

  <g transform="translate(200,180)">
    <circle cx="0" cy="0" r="8" fill="#FBBF24"/>
    <ellipse cx="0" cy="18" rx="12" ry="15" fill="#3B82F6"/>
    <ellipse cx="-8" cy="20" rx="4" ry="12" fill="#3B82F6"/>
    <ellipse cx="8" cy="20" rx="4" ry="12" fill="#3B82F6"/>
    <ellipse cx="-6" cy="45" rx="4" ry="15" fill="#1E40AF"/>
    <ellipse cx="6" cy="45" rx="4" ry="15" fill="#1E40AF"/>

    <circle cx="-3" cy="-3" r="1" fill="#1F2937"/>
    <circle cx="3" cy="-3" r="1" fill="#1F2937"/>
    <path d="M-4 2 Q0 6 4 2" stroke="#1F2937" stroke-width="1" fill="none"/>
  </g>

  <g transform="translate(80,200)">
    <rect x="0" y="0" width="25" height="12" rx="2" fill="#EF4444"/>
    <rect x="1" y="1" width="23" height="10" rx="1" fill="#F87171"/>
    <rect x="3" y="3" width="6" height="4" fill="#FEF2F2"/>
    <rect x="16" y="3" width="6" height="4" fill="#FEF2F2"/>
    <circle cx="6" cy="13" r="3" fill="#1F2937"/>
    <circle cx="19" cy="13" r="3" fill="#1F2937"/>

    <path d="M25 6 L35 6 M30 2 L40 2 M30 10 L40 10" stroke="#F59E0B" stroke-width="2"/>
    <text x="15" y="25" font-family="Arial" font-size="8" fill="#DC2626" text-anchor="middle">ACCIDENT</text>
  </g>

  <g transform="translate(320,180)">
    <rect x="0" y="10" width="30" height="25" fill="#92400E"/>
    <rect x="1" y="11" width="28" height="23" fill="#D97706"/>
    <polygon points="0,10 15,0 30,10" fill="#7C2D12"/>
    <polygon points="2,10 15,2 28,10" fill="#92400E"/>

    <path d="M5 8 Q8 3 12 8 Q15 3 18 8 Q21 3 25 8" stroke="#EF4444" stroke-width="2" fill="none"/>
    <path d="M7 6 Q10 1 14 6 Q17 1 20 6 Q23 1 23 6" stroke="#F59E0B" stroke-width="2" fill="none"/>
    <text x="15" y="45" font-family="Arial" font-size="8" fill="#DC2626" text-anchor="middle">FIRE</text>
  </g>

  <g transform="translate(50,120)">
    <rect x="0" y="0" width="20" height="25" fill="#FFFFFF" stroke="#D1D5DB" stroke-width="1"/>
    <rect x="1" y="1" width="18" height="23" fill="#F9FAFB"/>
    <rect x="2" y="3" width="16" height="2" fill="#DC2626"/>
    <rect x="2" y="7" width="12" height="1" fill="#374151"/>
    <rect x="2" y="10" width="14" height="1" fill="#374151"/>
    <rect x="2" y="13" width="10" height="1" fill="#374151"/>
    <rect x="2" y="16" width="16" height="1" fill="#374151"/>
    <rect x="2" y="19" width="8" height="1" fill="#374151"/>
    <rect x="2" y="22" width="12" height="1" fill="#374151"/>
    <text x="10" y="35" font-family="Arial" font-size="8" fill="#DC2626" text-anchor="middle">LAWSUIT</text>
  </g>

  <g transform="translate(350,120)">
    <rect x="0" y="0" width="20" height="25" fill="#FFFFFF" stroke="#D1D5DB" stroke-width="1"/>
    <rect x="1" y="1" width="18" height="23" fill="#F9FAFB"/>
    <circle cx="10" cy="8" r="4" fill="#EF4444"/>
    <rect x="8" y="6" width="4" height="1" fill="#FFFFFF"/>
    <rect x="9" y="5" width="2" height="3" fill="#FFFFFF"/>
    <rect x="2" y="15" width="16" height="1" fill="#374151"/>
    <rect x="2" y="18" width="12" height="1" fill="#374151"/>
    <rect x="2" y="21" width="14" height="1" fill="#374151"/>
    <text x="10" y="35" font-family="Arial" font-size="8" fill="#DC2626" text-anchor="middle">MEDICAL</text>
  </g>

  <g transform="translate(100,50)">
    <rect x="0" y="0" width="40" height="8" fill="#3B82F6" opacity="0.8"/>
    <text x="20" y="6" font-family="Arial" font-size="6" fill="white" text-anchor="middle">AUTO LIABILITY</text>

    <rect x="0" y="10" width="40" height="8" fill="#22C55E" opacity="0.8"/>
    <text x="20" y="16" font-family="Arial" font-size="6" fill="white" text-anchor="middle">HOME LIABILITY</text>

    <rect x="0" y="20" width="40" height="8" fill="#F59E0B" opacity="0.8"/>
    <text x="20" y="26" font-family="Arial" font-size="6" fill="white" text-anchor="middle">EXCESS LIABILITY</text>

    <rect x="0" y="30" width="40" height="8" fill="#DC2626" opacity="0.8"/>
    <text x="20" y="36" font-family="Arial" font-size="6" fill="white" text-anchor="middle">UMBRELLA</text>
  </g>

  <g transform="translate(300,50)">
    <circle cx="0" cy="0" r="12" fill="#22C55E"/>
    <text x="0" y="4" font-family="Arial" font-size="8" fill="white" text-anchor="middle" font-weight="bold">$1M</text>

    <circle cx="0" cy="25" r="12" fill="#F59E0B"/>
    <text x="0" y="29" font-family="Arial" font-size="8" fill="white" text-anchor="middle" font-weight="bold">$5M</text>

    <circle cx="0" cy="50" r="12" fill="#DC2626"/>
    <text x="0" y="54" font-family="Arial" font-size="8" fill="white" text-anchor="middle" font-weight="bold">$10M</text>
  </g>

  <text x="200" y="280" font-family="Arial" font-size="16" fill="#1F2937" text-anchor="middle" font-weight="bold">Umbrella Insurance Ultimate Protection</text>
</svg>