<?xml version="1.0" encoding="UTF-8"?>
<svg viewBox="0 0 400 300" xmlns="http://www.w3.org/2000/svg">
  <defs>
    <linearGradient id="bgGradient" x1="0%" y1="0%" x2="0%" y2="100%">
      <stop offset="0%" style="stop-color:#E8F5E8;stop-opacity:1" />
      <stop offset="100%" style="stop-color:#C8E6C9;stop-opacity:1" />
    </linearGradient>
    <radialGradient id="heartGradient" cx="50%" cy="50%" r="50%">
      <stop offset="0%" style="stop-color:#FF6B6B;stop-opacity:1" />
      <stop offset="100%" style="stop-color:#E74C3C;stop-opacity:1" />
    </radialGradient>
  </defs>

  <rect width="400" height="300" fill="url(#bgGradient)"/>

  <g transform="translate(120,150)">

    <ellipse cx="0" cy="0" rx="35" ry="25" fill="#D2691E"/>

    <circle cx="-20" cy="-15" r="20" fill="#DEB887"/>

    <ellipse cx="-35" cy="-25" rx="8" ry="12" fill="#CD853F"/>
    <ellipse cx="-10" cy="-25" rx="8" ry="12" fill="#CD853F"/>

    <circle cx="-28" cy="-18" r="3" fill="#000"/>
    <circle cx="-12" cy="-18" r="3" fill="#000"/>
    <circle cx="-27" cy="-19" r="1" fill="#FFF"/>
    <circle cx="-11" cy="-19" r="1" fill="#FFF"/>

    <ellipse cx="-20" cy="-10" rx="2" ry="1.5" fill="#000"/>

    <path d="M-20 -8 Q-15 -5 -10 -8" stroke="#000" stroke-width="1" fill="none"/>

    <path d="M30 -5 Q45 -10 50 5" stroke="#D2691E" stroke-width="8" fill="none" stroke-linecap="round"/>

    <ellipse cx="-15" cy="20" rx="4" ry="10" fill="#D2691E"/>
    <ellipse cx="-5" cy="20" rx="4" ry="10" fill="#D2691E"/>
    <ellipse cx="5" cy="20" rx="4" ry="10" fill="#D2691E"/>
    <ellipse cx="15" cy="20" rx="4" ry="10" fill="#D2691E"/>
  </g>

  <g transform="translate(280,160)">

    <ellipse cx="0" cy="0" rx="30" ry="20" fill="#A0522D"/>

    <circle cx="-15" cy="-12" r="15" fill="#D2691E"/>

    <polygon points="-25,-20 -20,-28 -15,-22" fill="#D2691E"/>
    <polygon points="-15,-22 -10,-28 -5,-20" fill="#D2691E"/>

    <ellipse cx="-20" cy="-15" rx="2" ry="3" fill="#32CD32"/>
    <ellipse cx="-10" cy="-15" rx="2" ry="3" fill="#32CD32"/>
    <ellipse cx="-20" cy="-15" rx="0.5" ry="2" fill="#000"/>
    <ellipse cx="-10" cy="-15" rx="0.5" ry="2" fill="#000"/>

    <polygon points="-15,-10 -13,-8 -17,-8" fill="#FF69B4"/>

    <line x1="-25" y1="-12" x2="-35" y2="-10" stroke="#000" stroke-width="1"/>
    <line x1="-25" y1="-8" x2="-35" y2="-8" stroke="#000" stroke-width="1"/>
    <line x1="-5" y1="-12" x2="5" y2="-10" stroke="#000" stroke-width="1"/>
    <line x1="-5" y1="-8" x2="5" y2="-8" stroke="#000" stroke-width="1"/>

    <path d="M25 -5 Q40 -15 45 -25 Q50 -35 55 -25" stroke="#A0522D" stroke-width="6" fill="none" stroke-linecap="round"/>

    <ellipse cx="-10" cy="15" rx="3" ry="8" fill="#A0522D"/>
    <ellipse cx="-2" cy="15" rx="3" ry="8" fill="#A0522D"/>
    <ellipse cx="6" cy="15" rx="3" ry="8" fill="#A0522D"/>
    <ellipse cx="14" cy="15" rx="3" ry="8" fill="#A0522D"/>
  </g>

  <g transform="translate(200,80)">
    <path d="M0 0 L15 8 L15 30 L0 45 L-15 30 L-15 8 Z" fill="#4CAF50" stroke="#2E7D32" stroke-width="2"/>
    <path d="M0 5 L10 12 L10 28 L0 38 L-10 28 L-10 12 Z" fill="#81C784"/>

    <path d="M0 18 L-4 12 Q-8 8 -4 12 Q0 16 0 18 Q0 16 4 12 Q8 8 4 12 Z" fill="url(#heartGradient)"/>
  </g>

  <g transform="translate(50,50)">
    <circle cx="0" cy="0" r="20" fill="#FF6B6B"/>
    <rect x="-12" y="-3" width="24" height="6" fill="#FFF"/>
    <rect x="-3" y="-12" width="6" height="24" fill="#FFF"/>
  </g>

  <g transform="translate(100,50)">
    <circle cx="0" cy="0" r="4" fill="#8B4513"/>
    <circle cx="-3" cy="-6" r="2" fill="#8B4513"/>
    <circle cx="3" cy="-6" r="2" fill="#8B4513"/>
    <circle cx="-6" cy="-3" r="2" fill="#8B4513"/>
    <circle cx="6" cy="-3" r="2" fill="#8B4513"/>
  </g>

  <g transform="translate(350,50)">
    <circle cx="0" cy="0" r="4" fill="#8B4513"/>
    <circle cx="-3" cy="-6" r="2" fill="#8B4513"/>
    <circle cx="3" cy="-6" r="2" fill="#8B4513"/>
    <circle cx="-6" cy="-3" r="2" fill="#8B4513"/>
    <circle cx="6" cy="-3" r="2" fill="#8B4513"/>
  </g>

  <text x="200" y="280" font-family="Arial" font-size="16" fill="#2C3E50" text-anchor="middle" font-weight="bold">Pet Insurance Coverage</text>
</svg>