<?xml version="1.0" encoding="UTF-8"?>
<svg viewBox="0 0 400 300" xmlns="http://www.w3.org/2000/svg">
  <defs>
    <linearGradient id="medicalBg" x1="0%" y1="0%" x2="100%" y2="100%">
      <stop offset="0%" style="stop-color:#FEF2F2;stop-opacity:1" />
      <stop offset="100%" style="stop-color:#FEE2E2;stop-opacity:1" />
    </linearGradient>
    <linearGradient id="supportGradient" x1="0%" y1="0%" x2="0%" y2="100%">
      <stop offset="0%" style="stop-color:#3B82F6;stop-opacity:1" />
      <stop offset="100%" style="stop-color:#1E40AF;stop-opacity:1" />
    </linearGradient>
  </defs>

  <rect width="400" height="300" fill="url(#medicalBg)"/>

  <g transform="translate(50,50)">
    <rect x="0" y="0" width="60" height="80" fill="#E5E7EB"/>
    <rect x="2" y="2" width="56" height="76" fill="#F3F4F6"/>

    <rect x="25" y="10" width="10" height="30" fill="#EF4444"/>
    <rect x="15" y="20" width="30" height="10" fill="#EF4444"/>
    <rect x="27" y="12" width="6" height="26" fill="#FECACA"/>
    <rect x="17" y="22" width="26" height="6" fill="#FECACA"/>

    <rect x="8" y="50" width="8" height="8" fill="#F0F8FF"/>
    <rect x="20" y="50" width="8" height="8" fill="#F0F8FF"/>
    <rect x="32" y="50" width="8" height="8" fill="#F0F8FF"/>
    <rect x="44" y="50" width="8" height="8" fill="#F0F8FF"/>

    <rect x="8" y="62" width="8" height="8" fill="#F0F8FF"/>
    <rect x="20" y="62" width="8" height="8" fill="#F0F8FF"/>
    <rect x="32" y="62" width="8" height="8" fill="#F0F8FF"/>
    <rect x="44" y="62" width="8" height="8" fill="#F0F8FF"/>

    <rect x="26" y="72" width="8" height="8" fill="#374151"/>
    <rect x="27" y="73" width="6" height="6" fill="#4B5563"/>

    <text x="30" y="95" font-family="Arial" font-size="8" fill="#374151" text-anchor="middle">HOSPITAL</text>
  </g>

  <g transform="translate(200,150)">
    <circle cx="0" cy="0" r="10" fill="#FBBF24"/>
    <ellipse cx="0" cy="20" rx="12" ry="15" fill="#3B82F6"/>
    <ellipse cx="-8" cy="22" rx="4" ry="12" fill="#3B82F6"/>
    <ellipse cx="8" cy="22" rx="4" ry="12" fill="#3B82F6"/>
    <ellipse cx="-6" cy="50" rx="4" ry="15" fill="#1E40AF"/>
    <ellipse cx="6" cy="50" rx="4" ry="15" fill="#1E40AF"/>

    <line x1="-18" y1="35" x2="-18" y2="65" stroke="#92400E" stroke-width="3"/>
    <line x1="18" y1="35" x2="18" y2="65" stroke="#92400E" stroke-width="3"/>
    <rect x="-20" y="33" width="4" height="6" fill="#B45309"/>
    <rect x="16" y="33" width="4" height="6" fill="#B45309"/>

    <rect x="10" y="18" width="6" height="8" fill="#FFFFFF"/>
    <rect x="11" y="19" width="4" height="6" fill="#F3F4F6"/>

    <circle cx="-3" cy="-3" r="1" fill="#1F2937"/>
    <circle cx="3" cy="-3" r="1" fill="#1F2937"/>
    <path d="M-4 5 Q0 2 4 5" stroke="#1F2937" stroke-width="1" fill="none"/>
  </g>

  <g transform="translate(300,100)">
    <rect x="0" y="0" width="30" height="40" fill="#FFFFFF" stroke="#3B82F6" stroke-width="2"/>
    <rect x="1" y="1" width="28" height="38" fill="#F0F9FF"/>
    <rect x="2" y="3" width="26" height="4" fill="#3B82F6"/>
    <text x="15" y="6" font-family="Arial" font-size="6" fill="white" text-anchor="middle" font-weight="bold">DISABILITY</text>
    <text x="15" y="12" font-family="Arial" font-size="6" fill="white" text-anchor="middle" font-weight="bold">INSURANCE</text>

    <rect x="2" y="16" width="20" height="2" fill="#60A5FA"/>
    <rect x="2" y="20" width="16" height="2" fill="#60A5FA"/>
    <rect x="2" y="24" width="22" height="2" fill="#60A5FA"/>
    <rect x="2" y="28" width="18" height="2" fill="#60A5FA"/>
    <rect x="2" y="32" width="24" height="2" fill="#60A5FA"/>

    <line x1="2" y1="36" x2="28" y2="36" stroke="#3B82F6" stroke-width="1"/>
    <text x="15" y="50" font-family="Arial" font-size="8" fill="#3B82F6" text-anchor="middle">POLICY</text>
  </g>

  <g transform="translate(100,100)">
    <rect x="0" y="0" width="40" height="30" fill="#F59E0B"/>
    <rect x="1" y="1" width="38" height="28" fill="#FBBF24"/>

    <polygon points="20,5 35,25 5,25" fill="#EF4444" stroke="#DC2626" stroke-width="2"/>
    <text x="20" y="20" font-family="Arial" font-size="12" fill="white" text-anchor="middle" font-weight="bold">!</text>

    <text x="20" y="45" font-family="Arial" font-size="8" fill="#D97706" text-anchor="middle">WORKPLACE</text>
  </g>

  <g transform="translate(50,200)">
    <rect x="0" y="0" width="80" height="40" fill="#DBEAFE" stroke="#3B82F6" stroke-width="2" rx="5"/>
    <text x="40" y="12" font-family="Arial" font-size="10" fill="#1E40AF" text-anchor="middle" font-weight="bold">INCOME REPLACEMENT</text>

    <circle cx="20" cy="25" r="8" fill="#3B82F6"/>
    <text x="20" y="29" font-family="Arial" font-size="8" fill="white" text-anchor="middle" font-weight="bold">60%</text>

    <circle cx="40" cy="25" r="8" fill="#3B82F6"/>
    <text x="40" y="29" font-family="Arial" font-size="8" fill="white" text-anchor="middle" font-weight="bold">70%</text>

    <circle cx="60" cy="25" r="8" fill="#3B82F6"/>
    <text x="60" y="29" font-family="Arial" font-size="8" fill="white" text-anchor="middle" font-weight="bold">80%</text>
  </g>

  <g transform="translate(250,200)">
    <rect x="0" y="0" width="25" height="30" fill="#FFFFFF" stroke="#EF4444" stroke-width="2"/>
    <rect x="1" y="1" width="23" height="28" fill="#FEF2F2"/>
    <rect x="2" y="3" width="21" height="3" fill="#EF4444"/>
    <text x="12.5" y="6" font-family="Arial" font-size="6" fill="white" text-anchor="middle" font-weight="bold">MEDICAL</text>

    <rect x="2" y="9" width="16" height="2" fill="#374151"/>
    <rect x="2" y="13" width="18" height="2" fill="#374151"/>
    <rect x="2" y="17" width="14" height="2" fill="#374151"/>
    <rect x="2" y="21" width="20" height="2" fill="#374151"/>
    <rect x="2" y="25" width="12" height="2" fill="#374151"/>

    <text x="30" y="10" font-family="Arial" font-size="12" fill="#EF4444" font-weight="bold">$</text>
    <text x="35" y="20" font-family="Arial" font-size="12" fill="#EF4444" font-weight="bold">$</text>
    <text x="30" y="30" font-family="Arial" font-size="12" fill="#EF4444" font-weight="bold">$</text>

    <text x="12.5" y="40" font-family="Arial" font-size="8" fill="#DC2626" text-anchor="middle">BILLS</text>
  </g>

  <g transform="translate(350,150)">
    <path d="M0 0 L15 8 L15 30 L0 45 L-15 30 L-15 8 Z" fill="url(#supportGradient)" stroke="#1E40AF" stroke-width="2"/>
    <path d="M0 5 L10 12 L10 28 L0 38 L-10 28 L-10 12 Z" fill="#93C5FD"/>

    <ellipse cx="-5" cy="18" rx="3" ry="5" fill="#1E40AF"/>
    <ellipse cx="5" cy="18" rx="3" ry="5" fill="#1E40AF"/>
    <ellipse cx="0" cy="22" rx="4" ry="3" fill="#93C5FD"/>

    <text x="0" y="55" font-family="Arial" font-size="8" fill="#1E40AF" text-anchor="middle">SUPPORT</text>
  </g>

  <g transform="translate(120,180)">

    <circle cx="0" cy="0" r="6" fill="#FBBF24"/>
    <circle cx="15" cy="0" r="6" fill="#FBBF24"/>
    <circle cx="7" cy="15" r="4" fill="#FBBF24"/>
    <circle cx="22" cy="15" r="4" fill="#FBBF24"/>

    <circle cx="-2" cy="-2" r="0.5" fill="#1F2937"/>
    <circle cx="2" cy="-2" r="0.5" fill="#1F2937"/>
    <path d="M-3 3 Q0 1 3 3" stroke="#1F2937" stroke-width="1" fill="none"/>

    <circle cx="13" cy="-2" r="0.5" fill="#1F2937"/>
    <circle cx="17" cy="-2" r="0.5" fill="#1F2937"/>
    <path d="M12 3 Q15 1 18 3" stroke="#1F2937" stroke-width="1" fill="none"/>

    <text x="11" y="30" font-family="Arial" font-size="8" fill="#DC2626" text-anchor="middle">FAMILY STRESS</text>
  </g>

  <g transform="translate(150,50)">
    <rect x="0" y="0" width="50" height="8" fill="#F59E0B"/>
    <text x="25" y="6" font-family="Arial" font-size="6" fill="white" text-anchor="middle">SHORT-TERM</text>

    <rect x="0" y="12" width="50" height="8" fill="#EF4444"/>
    <text x="25" y="18" font-family="Arial" font-size="6" fill="white" text-anchor="middle">LONG-TERM</text>

    <rect x="0" y="24" width="50" height="8" fill="#8B5CF6"/>
    <text x="25" y="30" font-family="Arial" font-size="6" fill="white" text-anchor="middle">PERMANENT</text>
  </g>

  <g transform="translate(320,50)">
    <rect x="0" y="0" width="60" height="20" fill="#F8FAFC" stroke="#CBD5E0" stroke-width="1"/>
    <text x="30" y="30" font-family="Arial" font-size="8" fill="#4A5568" text-anchor="middle">RECOVERY</text>

    <rect x="5" y="15" width="8" height="3" fill="#EF4444"/>
    <rect x="16" y="12" width="8" height="6" fill="#F59E0B"/>
    <rect x="27" y="10" width="8" height="8" fill="#22C55E"/>
    <rect x="38" y="8" width="8" height="10" fill="#22C55E"/>
    <rect x="49" y="5" width="8" height="13" fill="#22C55E"/>

    <path d="M5 5 L55 5 L50 0 L55 5 L50 10" stroke="#22C55E" stroke-width="2" fill="none"/>
  </g>

  <text x="200" y="280" font-family="Arial" font-size="16" fill="#1F2937" text-anchor="middle" font-weight="bold">Understanding Disability Insurance</text>
</svg>