<?xml version="1.0" encoding="UTF-8"?>
<svg viewBox="0 0 400 300" xmlns="http://www.w3.org/2000/svg">
  <defs>
    <linearGradient id="retirementBg" x1="0%" y1="0%" x2="100%" y2="100%">
      <stop offset="0%" style="stop-color:#FEF3C7;stop-opacity:1" />
      <stop offset="100%" style="stop-color:#FDE68A;stop-opacity:1" />
    </linearGradient>
    <linearGradient id="goldGradient" x1="0%" y1="0%" x2="0%" y2="100%">
      <stop offset="0%" style="stop-color:#FBBF24;stop-opacity:1" />
      <stop offset="100%" style="stop-color:#D97706;stop-opacity:1" />
    </linearGradient>
  </defs>

  <rect width="400" height="300" fill="url(#retirementBg)"/>

  <g transform="translate(100,150)">

    <circle cx="-15" cy="0" r="10" fill="#FBBF24"/>
    <ellipse cx="-15" cy="20" rx="12" ry="15" fill="#3B82F6"/>
    <ellipse cx="-23" cy="22" rx="4" ry="12" fill="#3B82F6"/>
    <ellipse cx="-7" cy="22" rx="4" ry="12" fill="#3B82F6"/>
    <ellipse cx="-21" cy="50" rx="4" ry="15" fill="#1E40AF"/>
    <ellipse cx="-9" cy="50" rx="4" ry="15" fill="#1E40AF"/>

    <circle cx="15" cy="0" r="10" fill="#FBBF24"/>
    <ellipse cx="15" cy="20" rx="12" ry="15" fill="#F472B6"/>
    <ellipse cx="7" cy="22" rx="4" ry="12" fill="#F472B6"/>
    <ellipse cx="23" cy="22" rx="4" ry="12" fill="#F472B6"/>
    <ellipse cx="9" cy="50" rx="4" ry="15" fill="#EC4899"/>
    <ellipse cx="21" cy="50" rx="4" ry="15" fill="#EC4899"/>

    <line x1="-25" y1="40" x2="-25" y2="65" stroke="#92400E" stroke-width="3"/>
    <line x1="25" y1="40" x2="25" y2="65" stroke="#92400E" stroke-width="3"/>
    <circle cx="-25" cy="38" r="2" fill="#B45309"/>
    <circle cx="25" cy="38" r="2" fill="#B45309"/>

    <circle cx="-18" cy="-3" r="1" fill="#1F2937"/>
    <circle cx="-12" cy="-3" r="1" fill="#1F2937"/>
    <path d="M-19 2 Q-15 6 -11 2" stroke="#1F2937" stroke-width="1" fill="none"/>

    <circle cx="12" cy="-3" r="1" fill="#1F2937"/>
    <circle cx="18" cy="-3" r="1" fill="#1F2937"/>
    <path d="M11 2 Q15 6 19 2" stroke="#1F2937" stroke-width="1" fill="none"/>
  </g>

  <g transform="translate(250,100)">
    <rect x="0" y="0" width="30" height="40" fill="#FFFFFF" stroke="#D97706" stroke-width="2"/>
    <rect x="1" y="1" width="28" height="38" fill="#FFFBEB"/>
    <rect x="2" y="3" width="26" height="4" fill="#F59E0B"/>
    <text x="15" y="6" font-family="Arial" font-size="6" fill="white" text-anchor="middle" font-weight="bold">ANNUITY</text>

    <rect x="2" y="10" width="20" height="2" fill="#D97706"/>
    <rect x="2" y="14" width="16" height="2" fill="#D97706"/>
    <rect x="2" y="18" width="22" height="2" fill="#D97706"/>
    <rect x="2" y="22" width="18" height="2" fill="#D97706"/>
    <rect x="2" y="26" width="24" height="2" fill="#D97706"/>
    <rect x="2" y="30" width="14" height="2" fill="#D97706"/>
    <rect x="2" y="34" width="20" height="2" fill="#D97706"/>

    <line x1="2" y1="37" x2="28" y2="37" stroke="#D97706" stroke-width="1"/>
    <text x="15" y="50" font-family="Arial" font-size="8" fill="#D97706" text-anchor="middle">CONTRACT</text>
  </g>

  <g transform="translate(50,80)">
    <rect x="0" y="0" width="15" height="10" fill="#22C55E"/>
    <rect x="1" y="1" width="13" height="8" fill="#34D399"/>
    <text x="7.5" y="7" font-family="Arial" font-size="8" fill="white" text-anchor="middle">$</text>

    <rect x="20" y="0" width="15" height="10" fill="#22C55E"/>
    <text x="27.5" y="7" font-family="Arial" font-size="8" fill="white" text-anchor="middle">$</text>

    <rect x="40" y="0" width="15" height="10" fill="#22C55E"/>
    <text x="47.5" y="7" font-family="Arial" font-size="8" fill="white" text-anchor="middle">$</text>

    <path d="M60 5 L75 5 L70 0 L75 5 L70 10" stroke="#22C55E" stroke-width="2" fill="none"/>
    <text x="27.5" y="20" font-family="Arial" font-size="8" fill="#059669" text-anchor="middle">PREMIUM</text>
  </g>

  <g transform="translate(300,50)">
    <circle cx="0" cy="0" r="15" fill="#FBBF24"/>
    <circle cx="0" cy="0" r="12" fill="#F59E0B"/>
    <text x="0" y="4" font-family="Arial" font-size="10" fill="white" text-anchor="middle" font-weight="bold">%</text>

    <path d="M0 -20 L0 -35 L-5 -30 L0 -35 L5 -30" stroke="#22C55E" stroke-width="2" fill="none"/>
    <text x="0" y="-40" font-family="Arial" font-size="8" fill="#22C55E" text-anchor="middle">GROWTH</text>
  </g>

  <g transform="translate(150,220)">
    <rect x="0" y="0" width="100" height="30" fill="#E0F2FE" stroke="#0369A1" stroke-width="2" rx="5"/>
    <text x="50" y="12" font-family="Arial" font-size="10" fill="#0369A1" text-anchor="middle" font-weight="bold">MONTHLY PAYMENTS</text>

    <rect x="10" y="18" width="8" height="6" fill="#0369A1"/>
    <text x="14" y="23" font-family="Arial" font-size="6" fill="white" text-anchor="middle">$</text>

    <rect x="25" y="18" width="8" height="6" fill="#0369A1"/>
    <text x="29" y="23" font-family="Arial" font-size="6" fill="white" text-anchor="middle">$</text>

    <rect x="40" y="18" width="8" height="6" fill="#0369A1"/>
    <text x="44" y="23" font-family="Arial" font-size="6" fill="white" text-anchor="middle">$</text>

    <rect x="55" y="18" width="8" height="6" fill="#0369A1"/>
    <text x="59" y="23" font-family="Arial" font-size="6" fill="white" text-anchor="middle">$</text>

    <rect x="70" y="18" width="8" height="6" fill="#0369A1"/>
    <text x="74" y="23" font-family="Arial" font-size="6" fill="white" text-anchor="middle">$</text>

    <rect x="85" y="18" width="8" height="6" fill="#0369A1"/>
    <text x="89" y="23" font-family="Arial" font-size="6" fill="white" text-anchor="middle">$</text>
  </g>

  <g transform="translate(350,150)">
    <path d="M0 0 L15 8 L15 30 L0 45 L-15 30 L-15 8 Z" fill="#059669" stroke="#047857" stroke-width="2"/>
    <path d="M0 5 L10 12 L10 28 L0 38 L-10 28 L-10 12 Z" fill="#34D399"/>

    <text x="0" y="25" font-family="Arial" font-size="18" fill="#047857" text-anchor="middle" font-weight="bold">$</text>
    <text x="0" y="55" font-family="Arial" font-size="8" fill="#047857" text-anchor="middle">SECURITY</text>
  </g>

  <g transform="translate(50,180)">
    <rect x="0" y="20" width="40" height="30" fill="#FED7AA"/>
    <rect x="1" y="21" width="38" height="28" fill="#FDBA74"/>
    <polygon points="0,20 20,0 40,20" fill="#D97706"/>
    <polygon points="2,20 20,2 38,20" fill="#F59E0B"/>

    <rect x="6" y="28" width="6" height="6" fill="#F0F8FF"/>
    <rect x="16" y="28" width="6" height="6" fill="#F0F8FF"/>
    <rect x="28" y="28" width="6" height="6" fill="#F0F8FF"/>

    <rect x="17" y="38" width="6" height="12" fill="#92400E"/>
    <rect x="18" y="39" width="4" height="10" fill="#B45309"/>
    <circle cx="21" cy="44" r="0.5" fill="#F0F8FF"/>

    <text x="20" y="65" font-family="Arial" font-size="8" fill="#D97706" text-anchor="middle">RETIREMENT</text>
  </g>

  <g transform="translate(200,50)">
    <circle cx="0" cy="0" r="12" fill="#F3F4F6" stroke="#6B7280" stroke-width="2"/>
    <circle cx="0" cy="0" r="8" fill="#FFFFFF"/>
    <line x1="0" y1="0" x2="0" y2="-6" stroke="#374151" stroke-width="2"/>
    <line x1="0" y1="0" x2="4" y2="-3" stroke="#374151" stroke-width="2"/>
    <text x="0" y="20" font-family="Arial" font-size="6" fill="#6B7280" text-anchor="middle">TIME</text>
  </g>

  <g transform="translate(320,200)">
    <rect x="0" y="0" width="50" height="30" fill="#F8FAFC" stroke="#CBD5E0" stroke-width="1"/>
    <text x="25" y="40" font-family="Arial" font-size="8" fill="#4A5568" text-anchor="middle">GROWTH</text>

    <rect x="5" y="22" width="6" height="6" fill="#22C55E"/>
    <rect x="14" y="18" width="6" height="10" fill="#22C55E"/>
    <rect x="23" y="14" width="6" height="14" fill="#22C55E"/>
    <rect x="32" y="8" width="6" height="20" fill="#22C55E"/>
    <rect x="41" y="4" width="6" height="24" fill="#22C55E"/>

    <path d="M5 5 L45 5 L40 0 L45 5 L40 10" stroke="#22C55E" stroke-width="2" fill="none"/>
  </g>

  <text x="200" y="280" font-family="Arial" font-size="16" fill="#92400E" text-anchor="middle" font-weight="bold">Understanding Annuities - Retirement Income</text>
</svg>