<?xml version="1.0" encoding="UTF-8"?>
<svg width="800" height="600" viewBox="0 0 800 600" xmlns="http://www.w3.org/2000/svg">
  <defs>
    <linearGradient id="bgGradient" x1="0%" y1="0%" x2="100%" y2="100%">
      <stop offset="0%" style="stop-color:#1B5E20;stop-opacity:1" />
      <stop offset="50%" style="stop-color:#2E7D32;stop-opacity:1" />
      <stop offset="100%" style="stop-color:#4CAF50;stop-opacity:1" />
    </linearGradient>
    <linearGradient id="facilityGradient" x1="0%" y1="0%" x2="100%" y2="100%">
      <stop offset="0%" style="stop-color:#ECEFF1;stop-opacity:1" />
      <stop offset="100%" style="stop-color:#78909C;stop-opacity:1" />
    </linearGradient>
    <linearGradient id="cropGradient" x1="0%" y1="0%" x2="100%" y2="100%">
      <stop offset="0%" style="stop-color:#8BC34A;stop-opacity:1" />
      <stop offset="100%" style="stop-color:#4CAF50;stop-opacity:1" />
    </linearGradient>
    <filter id="glow">
      <feGaussianBlur stdDeviation="3" result="coloredBlur"/>
      <feMerge>
        <feMergeNode in="coloredBlur"/>
        <feMergeNode in="SourceGraphic"/>
      </feMerge>
    </filter>
  </defs>

  <rect width="800" height="600" fill="url(#bgGradient)"/>

  <g id="vertical-farm" transform="translate(300, 300)">

    <rect x="-100" y="-150" width="200" height="300" rx="10" fill="url(#facilityGradient)" stroke="#78909C" stroke-width="3" filter="url(#glow)"/>

    <g id="growing-levels">

      <rect x="-80" y="-130" width="160" height="25" fill="rgba(139,195,74,0.6)" stroke="#8BC34A" stroke-width="2"/>
      <circle cx="-60" cy="-118" r="3" fill="#4CAF50"/>
      <circle cx="-40" cy="-118" r="3" fill="#66BB6A"/>
      <circle cx="-20" cy="-118" r="3" fill="#4CAF50"/>
      <circle cx="0" cy="-118" r="3" fill="#66BB6A"/>
      <circle cx="20" cy="-118" r="3" fill="#4CAF50"/>
      <circle cx="40" cy="-118" r="3" fill="#66BB6A"/>
      <circle cx="60" cy="-118" r="3" fill="#4CAF50"/>

      <rect x="-80" y="-90" width="160" height="25" fill="rgba(139,195,74,0.6)" stroke="#8BC34A" stroke-width="2"/>
      <circle cx="-60" cy="-78" r="3" fill="#66BB6A"/>
      <circle cx="-40" cy="-78" r="3" fill="#4CAF50"/>
      <circle cx="-20" cy="-78" r="3" fill="#66BB6A"/>
      <circle cx="0" cy="-78" r="3" fill="#4CAF50"/>
      <circle cx="20" cy="-78" r="3" fill="#66BB6A"/>
      <circle cx="40" cy="-78" r="3" fill="#4CAF50"/>
      <circle cx="60" cy="-78" r="3" fill="#66BB6A"/>

      <rect x="-80" y="-50" width="160" height="25" fill="rgba(139,195,74,0.6)" stroke="#8BC34A" stroke-width="2"/>
      <circle cx="-60" cy="-38" r="3" fill="#4CAF50"/>
      <circle cx="-40" cy="-38" r="3" fill="#66BB6A"/>
      <circle cx="-20" cy="-38" r="3" fill="#4CAF50"/>
      <circle cx="0" cy="-38" r="3" fill="#66BB6A"/>
      <circle cx="20" cy="-38" r="3" fill="#4CAF50"/>
      <circle cx="40" cy="-38" r="3" fill="#66BB6A"/>
      <circle cx="60" cy="-38" r="3" fill="#4CAF50"/>

      <rect x="-80" y="-10" width="160" height="25" fill="rgba(139,195,74,0.6)" stroke="#8BC34A" stroke-width="2"/>
      <circle cx="-60" cy="2" r="3" fill="#66BB6A"/>
      <circle cx="-40" cy="2" r="3" fill="#4CAF50"/>
      <circle cx="-20" cy="2" r="3" fill="#66BB6A"/>
      <circle cx="0" cy="2" r="3" fill="#4CAF50"/>
      <circle cx="20" cy="2" r="3" fill="#66BB6A"/>
      <circle cx="40" cy="2" r="3" fill="#4CAF50"/>
      <circle cx="60" cy="2" r="3" fill="#66BB6A"/>

      <rect x="-80" y="30" width="160" height="25" fill="rgba(139,195,74,0.6)" stroke="#8BC34A" stroke-width="2"/>
      <circle cx="-60" cy="42" r="3" fill="#4CAF50"/>
      <circle cx="-40" cy="42" r="3" fill="#66BB6A"/>
      <circle cx="-20" cy="42" r="3" fill="#4CAF50"/>
      <circle cx="0" cy="42" r="3" fill="#66BB6A"/>
      <circle cx="20" cy="42" r="3" fill="#4CAF50"/>
      <circle cx="40" cy="42" r="3" fill="#66BB6A"/>
      <circle cx="60" cy="42" r="3" fill="#4CAF50"/>

      <rect x="-80" y="70" width="160" height="25" fill="rgba(139,195,74,0.6)" stroke="#8BC34A" stroke-width="2"/>
      <circle cx="-60" cy="82" r="3" fill="#66BB6A"/>
      <circle cx="-40" cy="82" r="3" fill="#4CAF50"/>
      <circle cx="-20" cy="82" r="3" fill="#66BB6A"/>
      <circle cx="0" cy="82" r="3" fill="#4CAF50"/>
      <circle cx="20" cy="82" r="3" fill="#66BB6A"/>
      <circle cx="40" cy="82" r="3" fill="#4CAF50"/>
      <circle cx="60" cy="82" r="3" fill="#66BB6A"/>

      <rect x="-80" y="110" width="160" height="25" fill="rgba(139,195,74,0.6)" stroke="#8BC34A" stroke-width="2"/>
      <circle cx="-60" cy="122" r="3" fill="#4CAF50"/>
      <circle cx="-40" cy="122" r="3" fill="#66BB6A"/>
      <circle cx="-20" cy="122" r="3" fill="#4CAF50"/>
      <circle cx="0" cy="122" r="3" fill="#66BB6A"/>
      <circle cx="20" cy="122" r="3" fill="#4CAF50"/>
      <circle cx="40" cy="122" r="3" fill="#66BB6A"/>
      <circle cx="60" cy="122" r="3" fill="#4CAF50"/>
    </g>

    <g id="led-lights">
      <rect x="-90" y="-140" width="180" height="4" fill="#E91E63" opacity="0.8">
        <animate attributeName="opacity" values="0.8;0.4;0.8" dur="2s" repeatCount="indefinite"/>
      </rect>
      <rect x="-90" y="-100" width="180" height="4" fill="#9C27B0" opacity="0.8">
        <animate attributeName="opacity" values="0.4;0.8;0.4" dur="2s" repeatCount="indefinite"/>
      </rect>
      <rect x="-90" y="-60" width="180" height="4" fill="#E91E63" opacity="0.8">
        <animate attributeName="opacity" values="0.8;0.4;0.8" dur="2s" repeatCount="indefinite"/>
      </rect>
      <rect x="-90" y="-20" width="180" height="4" fill="#9C27B0" opacity="0.8">
        <animate attributeName="opacity" values="0.4;0.8;0.4" dur="2s" repeatCount="indefinite"/>
      </rect>
      <rect x="-90" y="20" width="180" height="4" fill="#E91E63" opacity="0.8">
        <animate attributeName="opacity" values="0.8;0.4;0.8" dur="2s" repeatCount="indefinite"/>
      </rect>
      <rect x="-90" y="60" width="180" height="4" fill="#9C27B0" opacity="0.8">
        <animate attributeName="opacity" values="0.4;0.8;0.4" dur="2s" repeatCount="indefinite"/>
      </rect>
      <rect x="-90" y="100" width="180" height="4" fill="#E91E63" opacity="0.8">
        <animate attributeName="opacity" values="0.8;0.4;0.8" dur="2s" repeatCount="indefinite"/>
      </rect>
    </g>

    <rect x="110" y="-100" width="60" height="80" rx="8" fill="rgba(255,255,255,0.1)" stroke="#2196F3" stroke-width="2"/>
    <text x="140" y="-80" font-family="Arial" font-size="10" fill="white" text-anchor="middle" font-weight="bold">Control</text>
    <text x="140" y="-68" font-family="Arial" font-size="10" fill="white" text-anchor="middle" font-weight="bold">System</text>

    <circle cx="125" cy="-50" r="4" fill="#4CAF50">
      <animate attributeName="opacity" values="1;0.3;1" dur="2s" repeatCount="indefinite"/>
    </circle>
    <circle cx="140" cy="-50" r="4" fill="#2196F3">
      <animate attributeName="opacity" values="0.3;1;0.3" dur="2s" repeatCount="indefinite"/>
    </circle>
    <circle cx="155" cy="-50" r="4" fill="#FF9800">
      <animate attributeName="opacity" values="1;0.3;1" dur="2.5s" repeatCount="indefinite"/>
    </circle>

    <text x="140" y="-30" font-family="Arial" font-size="8" fill="#2196F3" text-anchor="middle">Environmental</text>
    <text x="140" y="-22" font-family="Arial" font-size="8" fill="#2196F3" text-anchor="middle">Monitoring</text>
  </g>

  <g id="tech-systems" transform="translate(600, 200)">

    <rect x="0" y="0" width="80" height="50" rx="8" fill="rgba(33,150,243,0.3)" stroke="#2196F3" stroke-width="2"/>
    <text x="40" y="20" font-family="Arial" font-size="12" fill="white" text-anchor="middle">💧</text>
    <text x="40" y="35" font-family="Arial" font-size="10" fill="#2196F3" text-anchor="middle" font-weight="bold">Hydroponics</text>

    <rect x="0" y="70" width="80" height="50" rx="8" fill="rgba(156,39,176,0.3)" stroke="#9C27B0" stroke-width="2"/>
    <text x="40" y="90" font-family="Arial" font-size="12" fill="white" text-anchor="middle">🌬️</text>
    <text x="40" y="105" font-family="Arial" font-size="10" fill="#9C27B0" text-anchor="middle" font-weight="bold">Aeroponics</text>

    <rect x="0" y="140" width="80" height="50" rx="8" fill="rgba(255,193,7,0.3)" stroke="#FFC107" stroke-width="2"/>
    <text x="40" y="160" font-family="Arial" font-size="12" fill="white" text-anchor="middle">🤖</text>
    <text x="40" y="175" font-family="Arial" font-size="10" fill="#FFC107" text-anchor="middle" font-weight="bold">AI Monitoring</text>

    <rect x="0" y="210" width="80" height="50" rx="8" fill="rgba(255,87,34,0.3)" stroke="#FF5722" stroke-width="2"/>
    <text x="40" y="230" font-family="Arial" font-size="12" fill="white" text-anchor="middle">🌡️</text>
    <text x="40" y="245" font-family="Arial" font-size="10" fill="#FF5722" text-anchor="middle" font-weight="bold">Climate Control</text>
  </g>

  <g id="risk-factors" transform="translate(100, 150)">

    <circle cx="0" cy="0" r="25" fill="rgba(244,67,54,0.4)" stroke="#F44336" stroke-width="2">
      <animate attributeName="opacity" values="0.8;0.4;0.8" dur="2s" repeatCount="indefinite"/>
    </circle>
    <text x="0" y="5" font-family="Arial" font-size="16" fill="white" text-anchor="middle">⚡</text>
    <text x="0" y="40" font-family="Arial" font-size="10" fill="#F44336" text-anchor="middle" font-weight="bold">Power Failure</text>

    <circle cx="0" cy="80" r="25" fill="rgba(255,152,0,0.4)" stroke="#FF9800" stroke-width="2">
      <animate attributeName="opacity" values="0.4;0.8;0.4" dur="2.5s" repeatCount="indefinite"/>
    </circle>
    <text x="0" y="85" font-family="Arial" font-size="16" fill="white" text-anchor="middle">⚙️</text>
    <text x="0" y="120" font-family="Arial" font-size="10" fill="#FF9800" text-anchor="middle" font-weight="bold">Equipment Failure</text>

    <circle cx="0" cy="160" r="25" fill="rgba(156,39,176,0.4)" stroke="#9C27B0" stroke-width="2">
      <animate attributeName="opacity" values="0.8;0.4;0.8" dur="1.8s" repeatCount="indefinite"/>
    </circle>
    <text x="0" y="165" font-family="Arial" font-size="16" fill="white" text-anchor="middle">☣️</text>
    <text x="0" y="200" font-family="Arial" font-size="10" fill="#9C27B0" text-anchor="middle" font-weight="bold">Contamination</text>

    <circle cx="0" cy="240" r="25" fill="rgba(255,193,7,0.4)" stroke="#FFC107" stroke-width="2">
      <animate attributeName="opacity" values="0.4;0.8;0.4" dur="2.2s" repeatCount="indefinite"/>
    </circle>
    <text x="0" y="245" font-family="Arial" font-size="16" fill="white" text-anchor="middle">📈</text>
    <text x="0" y="280" font-family="Arial" font-size="10" fill="#FFC107" text-anchor="middle" font-weight="bold">Market Risk</text>
  </g>

  <g id="coverage-areas" transform="translate(50, 480)">
    <rect x="0" y="0" width="700" height="100" rx="10" fill="rgba(255,255,255,0.1)" stroke="#4CAF50" stroke-width="2"/>
    <text x="20" y="20" font-family="Arial" font-size="14" fill="white" font-weight="bold">Vertical Farming &amp; CEA Insurance Coverage:</text>

    <text x="20" y="40" font-family="Arial" font-size="12" fill="#8BC34A">• Crop Loss &amp; Yield Protection</text>
    <text x="220" y="40" font-family="Arial" font-size="12" fill="#8BC34A">• Equipment Breakdown</text>
    <text x="380" y="40" font-family="Arial" font-size="12" fill="#8BC34A">• Power &amp; Utility Failure</text>
    <text x="540" y="40" font-family="Arial" font-size="12" fill="#8BC34A">• System Contamination</text>

    <text x="20" y="55" font-family="Arial" font-size="12" fill="#66BB6A">• Technology Malfunction</text>
    <text x="220" y="55" font-family="Arial" font-size="12" fill="#66BB6A">• Business Interruption</text>
    <text x="380" y="55" font-family="Arial" font-size="12" fill="#66BB6A">• Product Liability</text>
    <text x="540" y="55" font-family="Arial" font-size="12" fill="#66BB6A">• Market Price Protection</text>

    <text x="20" y="70" font-family="Arial" font-size="12" fill="#4CAF50">• Environmental Control Failure</text>
    <text x="220" y="70" font-family="Arial" font-size="12" fill="#4CAF50">• Cyber Security Breaches</text>
    <text x="380" y="70" font-family="Arial" font-size="12" fill="#4CAF50">• Supply Chain Disruption</text>
    <text x="540" y="70" font-family="Arial" font-size="12" fill="#4CAF50">• Research &amp; Development</text>

    <text x="20" y="85" font-family="Arial" font-size="12" fill="#2E7D32">• Regulatory Compliance</text>
    <text x="220" y="85" font-family="Arial" font-size="12" fill="#2E7D32">• Worker Safety &amp; Training</text>
    <text x="380" y="85" font-family="Arial" font-size="12" fill="#2E7D32">• Quality Assurance</text>
    <text x="540" y="85" font-family="Arial" font-size="12" fill="#2E7D32">• Facility Expansion</text>
  </g>

  <text x="400" y="60" font-family="Arial" font-size="28" fill="white" text-anchor="middle" font-weight="bold">Vertical Farming &amp; CEA Insurance</text>
  <text x="400" y="90" font-family="Arial" font-size="18" fill="#4CAF50" text-anchor="middle">Protecting Controlled Environment Agriculture</text>

  <g id="growth-indicators">
    <circle cx="50" cy="100" r="3" fill="#8BC34A">
      <animate attributeName="opacity" values="0.3;1;0.3" dur="2s" repeatCount="indefinite"/>
    </circle>
    <circle cx="750" cy="350" r="3" fill="#66BB6A">
      <animate attributeName="opacity" values="1;0.3;1" dur="2.5s" repeatCount="indefinite"/>
    </circle>
    <circle cx="400" cy="550" r="3" fill="#4CAF50">
      <animate attributeName="opacity" values="0.5;1;0.5" dur="1.8s" repeatCount="indefinite"/>
    </circle>
  </g>

  <g id="connections">
    <line x1="125" y1="250" x2="200" y2="280" stroke="#F44336" stroke-width="3" stroke-dasharray="8,4" opacity="0.6">
      <animate attributeName="stroke-dasharray" values="8,4;12,0;8,4" dur="2s" repeatCount="indefinite"/>
    </line>
    <line x1="500" y1="280" x2="600" y2="230" stroke="#2196F3" stroke-width="3" stroke-dasharray="8,4" opacity="0.6">
      <animate attributeName="stroke-dasharray" values="0,8;8,12;0,8" dur="2s" repeatCount="indefinite"/>
    </line>
  </g>
</svg>